<svg width="22" height="19" viewBox="0 0 28 25" fill="none" xmlns="http://www.w3.org/2000/svg">
<path fill-rule="evenodd" clip-rule="evenodd" d="M17.1964 8.93596C15.7886 12.1436 15.0847 15.2474 15.0847 18.2476V24.0404H23.3968V18.1039C23.3968 15.5825 23.7562 13.2128 24.4751 10.9946C25.194 8.77637 26.2873 6.58214 27.755 4.41181L22.9924 0.964844C20.5362 3.07134 18.6042 5.72835 17.1964 8.93596ZM2.22243 8.93597C0.814616 12.1436 0.110718 15.2474 0.110718 18.2476V24.0404H8.42279V18.104C8.42279 15.5825 8.78222 13.2128 9.50111 10.9946C10.22 8.77638 11.3133 6.58215 12.781 4.41182L8.01842 0.964851C5.56223 3.07134 3.63025 5.72836 2.22243 8.93597Z" fill="#5D5DFF"/>
</svg>
