<?xml version="1.0" encoding="UTF-8" standalone="no"?> <svg width="44" height="44" viewBox="0 0 24 24" fill="none" xmlns="http://www.w3.org/2000/svg">
<path fill-rule="evenodd" clip-rule="evenodd" d="M3 7C2.44772 7 2 7.44772 2 8V16C2 16.5523 2.44772 17 3 17H16C16.5523 17 17 16.5523 17 16V8C17 7.44772 16.5523 7 16 7H3ZM0 8C0 6.34315 1.34315 5 3 5H16C17.6569 5 19 6.34315 19 8V8.91938L20.7506 7.51889C22.0601 6.47127 24 7.40361 24 9.08062V14.9194C24 16.5964 22.0601 17.5287 20.7506 16.4811L19 15.0806V16C19 17.6569 17.6569 19 16 19H3C1.34315 19 0 17.6569 0 16V8ZM19 12.5194L22 14.9194V9.08063L19 11.4806V12.5194Z" fill="#222157"/>
</svg>
