<svg xmlns="http://www.w3.org/2000/svg" xmlns:xlink="http://www.w3.org/1999/xlink" width="1080" zoomAndPan="magnify" viewBox="0 0 810 1439.999935" height="1920" preserveAspectRatio="xMidYMid meet" version="1.0"><defs><clipPath id="1281830a77"><path d="M 211.804688 851.941406 L 392.554688 851.941406 L 392.554688 1032.691406 L 211.804688 1032.691406 Z M 211.804688 851.941406 " clip-rule="nonzero"/></clipPath><clipPath id="06e8f91254"><path d="M 392.621094 942.351562 C 392.621094 943.832031 392.585938 945.308594 392.515625 946.785156 C 392.441406 948.265625 392.332031 949.738281 392.1875 951.210938 C 392.042969 952.683594 391.863281 954.152344 391.644531 955.617188 C 391.425781 957.078125 391.175781 958.539062 390.886719 959.988281 C 390.597656 961.441406 390.273438 962.882812 389.914062 964.316406 C 389.554688 965.753906 389.160156 967.179688 388.730469 968.59375 C 388.300781 970.011719 387.835938 971.414062 387.339844 972.808594 C 386.839844 974.203125 386.308594 975.582031 385.742188 976.949219 C 385.175781 978.316406 384.574219 979.667969 383.941406 981.003906 C 383.308594 982.34375 382.644531 983.664062 381.949219 984.96875 C 381.25 986.273438 380.519531 987.5625 379.761719 988.832031 C 379 990.097656 378.207031 991.347656 377.386719 992.578125 C 376.5625 993.808594 375.710938 995.019531 374.832031 996.207031 C 373.949219 997.394531 373.039062 998.5625 372.101562 999.707031 C 371.164062 1000.847656 370.195312 1001.96875 369.203125 1003.066406 C 368.207031 1004.164062 367.1875 1005.234375 366.144531 1006.28125 C 365.097656 1007.324219 364.023438 1008.347656 362.929688 1009.339844 C 361.832031 1010.332031 360.710938 1011.300781 359.570312 1012.238281 C 358.425781 1013.175781 357.257812 1014.085938 356.070312 1014.96875 C 354.882812 1015.847656 353.671875 1016.703125 352.441406 1017.523438 C 351.210938 1018.34375 349.960938 1019.136719 348.691406 1019.898438 C 347.425781 1020.65625 346.136719 1021.386719 344.832031 1022.085938 C 343.527344 1022.78125 342.207031 1023.445312 340.867188 1024.078125 C 339.53125 1024.710938 338.179688 1025.3125 336.8125 1025.878906 C 335.445312 1026.445312 334.066406 1026.976562 332.671875 1027.476562 C 331.277344 1027.972656 329.875 1028.4375 328.457031 1028.867188 C 327.042969 1029.296875 325.617188 1029.691406 324.179688 1030.050781 C 322.746094 1030.410156 321.300781 1030.734375 319.851562 1031.023438 C 318.398438 1031.3125 316.941406 1031.5625 315.480469 1031.78125 C 314.015625 1032 312.546875 1032.179688 311.074219 1032.324219 C 309.601562 1032.46875 308.128906 1032.578125 306.648438 1032.652344 C 305.171875 1032.722656 303.691406 1032.761719 302.214844 1032.761719 C 300.734375 1032.761719 299.253906 1032.722656 297.777344 1032.652344 C 296.300781 1032.578125 294.824219 1032.46875 293.351562 1032.324219 C 291.878906 1032.179688 290.410156 1032 288.949219 1031.78125 C 287.484375 1031.5625 286.027344 1031.3125 284.574219 1031.023438 C 283.125 1030.734375 281.679688 1030.410156 280.246094 1030.050781 C 278.808594 1029.691406 277.386719 1029.296875 275.96875 1028.867188 C 274.554688 1028.4375 273.148438 1027.972656 271.753906 1027.476562 C 270.363281 1026.976562 268.980469 1026.445312 267.617188 1025.878906 C 266.25 1025.3125 264.894531 1024.710938 263.558594 1024.078125 C 262.222656 1023.445312 260.898438 1022.78125 259.59375 1022.085938 C 258.289062 1021.386719 257.003906 1020.65625 255.734375 1019.898438 C 254.464844 1019.136719 253.214844 1018.34375 251.984375 1017.523438 C 250.753906 1016.703125 249.546875 1015.847656 248.355469 1014.96875 C 247.167969 1014.085938 246.003906 1013.175781 244.859375 1012.238281 C 243.714844 1011.300781 242.59375 1010.332031 241.5 1009.339844 C 240.402344 1008.347656 239.332031 1007.324219 238.285156 1006.28125 C 237.238281 1005.234375 236.21875 1004.164062 235.222656 1003.066406 C 234.230469 1001.96875 233.265625 1000.847656 232.324219 999.707031 C 231.386719 998.5625 230.476562 997.394531 229.597656 996.207031 C 228.714844 995.019531 227.863281 993.808594 227.039062 992.578125 C 226.21875 991.347656 225.425781 990.097656 224.667969 988.832031 C 223.90625 987.5625 223.175781 986.273438 222.480469 984.96875 C 221.78125 983.664062 221.117188 982.34375 220.484375 981.003906 C 219.851562 979.667969 219.253906 978.316406 218.6875 976.949219 C 218.121094 975.582031 217.585938 974.203125 217.089844 972.808594 C 216.589844 971.414062 216.125 970.011719 215.695312 968.59375 C 215.265625 967.179688 214.871094 965.753906 214.511719 964.316406 C 214.152344 962.882812 213.828125 961.441406 213.542969 959.988281 C 213.253906 958.539062 213 957.078125 212.78125 955.617188 C 212.566406 954.152344 212.382812 952.683594 212.238281 951.210938 C 212.09375 949.738281 211.984375 948.265625 211.914062 946.785156 C 211.839844 945.308594 211.804688 943.832031 211.804688 942.351562 C 211.804688 940.871094 211.839844 939.390625 211.914062 937.914062 C 211.984375 936.4375 212.09375 934.960938 212.238281 933.488281 C 212.382812 932.015625 212.566406 930.546875 212.78125 929.085938 C 213 927.621094 213.253906 926.164062 213.542969 924.710938 C 213.828125 923.261719 214.152344 921.816406 214.511719 920.382812 C 214.871094 918.949219 215.265625 917.523438 215.695312 916.105469 C 216.125 914.691406 216.589844 913.285156 217.089844 911.894531 C 217.585938 910.5 218.121094 909.121094 218.6875 907.753906 C 219.253906 906.386719 219.851562 905.03125 220.484375 903.695312 C 221.117188 902.359375 221.78125 901.035156 222.480469 899.730469 C 223.175781 898.425781 223.90625 897.140625 224.667969 895.871094 C 225.425781 894.601562 226.21875 893.351562 227.039062 892.121094 C 227.863281 890.890625 228.714844 889.683594 229.597656 888.492188 C 230.476562 887.304688 231.386719 886.140625 232.324219 884.996094 C 233.265625 883.851562 234.230469 882.730469 235.222656 881.636719 C 236.21875 880.539062 237.238281 879.46875 238.285156 878.421875 C 239.332031 877.375 240.402344 876.355469 241.5 875.363281 C 242.59375 874.367188 243.714844 873.402344 244.859375 872.464844 C 246.003906 871.523438 247.167969 870.613281 248.355469 869.734375 C 249.546875 868.851562 250.753906 868 251.984375 867.179688 C 253.214844 866.355469 254.464844 865.566406 255.734375 864.804688 C 257.003906 864.042969 258.289062 863.3125 259.59375 862.617188 C 260.898438 861.917969 262.222656 861.253906 263.558594 860.621094 C 264.894531 859.988281 266.25 859.390625 267.617188 858.824219 C 268.980469 858.257812 270.363281 857.726562 271.753906 857.226562 C 273.148438 856.726562 274.554688 856.265625 275.96875 855.835938 C 277.386719 855.40625 278.808594 855.011719 280.246094 854.652344 C 281.679688 854.292969 283.125 853.96875 284.574219 853.679688 C 286.027344 853.390625 287.484375 853.136719 288.949219 852.917969 C 290.410156 852.703125 291.878906 852.523438 293.351562 852.375 C 294.824219 852.230469 296.300781 852.121094 297.777344 852.050781 C 299.253906 851.976562 300.734375 851.941406 302.214844 851.941406 C 303.691406 851.941406 305.171875 851.976562 306.648438 852.050781 C 308.128906 852.121094 309.601562 852.230469 311.074219 852.375 C 312.546875 852.523438 314.015625 852.703125 315.480469 852.917969 C 316.941406 853.136719 318.398438 853.390625 319.851562 853.679688 C 321.300781 853.96875 322.746094 854.292969 324.179688 854.652344 C 325.617188 855.011719 327.042969 855.40625 328.457031 855.835938 C 329.875 856.265625 331.277344 856.726562 332.671875 857.226562 C 334.066406 857.726562 335.445312 858.257812 336.8125 858.824219 C 338.179688 859.390625 339.53125 859.988281 340.867188 860.621094 C 342.207031 861.253906 343.527344 861.917969 344.832031 862.617188 C 346.136719 863.3125 347.425781 864.042969 348.691406 864.804688 C 349.960938 865.566406 351.210938 866.355469 352.441406 867.179688 C 353.671875 868 354.882812 868.851562 356.070312 869.734375 C 357.257812 870.613281 358.425781 871.523438 359.570312 872.464844 C 360.710938 873.402344 361.832031 874.367188 362.929688 875.363281 C 364.023438 876.355469 365.097656 877.375 366.144531 878.421875 C 367.1875 879.46875 368.207031 880.539062 369.203125 881.636719 C 370.195312 882.730469 371.164062 883.851562 372.101562 884.996094 C 373.039062 886.140625 373.949219 887.304688 374.832031 888.492188 C 375.710938 889.683594 376.5625 890.890625 377.386719 892.121094 C 378.207031 893.351562 379 894.601562 379.761719 895.871094 C 380.519531 897.140625 381.25 898.425781 381.949219 899.730469 C 382.644531 901.035156 383.308594 902.359375 383.941406 903.695312 C 384.574219 905.03125 385.175781 906.386719 385.742188 907.753906 C 386.308594 909.121094 386.839844 910.5 387.339844 911.894531 C 387.835938 913.285156 388.300781 914.691406 388.730469 916.105469 C 389.160156 917.523438 389.554688 918.949219 389.914062 920.382812 C 390.273438 921.816406 390.597656 923.261719 390.886719 924.710938 C 391.175781 926.164062 391.425781 927.621094 391.644531 929.085938 C 391.863281 930.546875 392.042969 932.015625 392.1875 933.488281 C 392.332031 934.960938 392.441406 936.4375 392.515625 937.914062 C 392.585938 939.390625 392.621094 940.871094 392.621094 942.351562 Z M 392.621094 942.351562 " clip-rule="nonzero"/></clipPath><linearGradient x1="182.530328" gradientTransform="matrix(0.689096, 0, 0, 0.689096, 211.804029, 851.941222)" y1="288.3665" x2="79.781039" gradientUnits="userSpaceOnUse" y2="-26.070278" id="da8dd58521"><stop stop-opacity="1" stop-color="rgb(27.799988%, 24.699402%, 56.098938%)" offset="0"/><stop stop-opacity="1" stop-color="rgb(27.799988%, 24.699402%, 56.098938%)" offset="0.0625"/><stop stop-opacity="1" stop-color="rgb(27.799988%, 24.699402%, 56.098938%)" offset="0.09375"/><stop stop-opacity="1" stop-color="rgb(27.799988%, 24.699402%, 56.098938%)" offset="0.109375"/><stop stop-opacity="1" stop-color="rgb(27.789307%, 24.710083%, 56.109619%)" offset="0.117188"/><stop stop-opacity="1" stop-color="rgb(27.603149%, 24.92981%, 56.315613%)" offset="0.121094"/><stop stop-opacity="1" stop-color="rgb(27.429199%, 25.138855%, 56.509399%)" offset="0.125"/><stop stop-opacity="1" stop-color="rgb(27.253723%, 25.346375%, 56.703186%)" offset="0.128906"/><stop stop-opacity="1" stop-color="rgb(27.078247%, 25.553894%, 56.898499%)" offset="0.132813"/><stop stop-opacity="1" stop-color="rgb(26.902771%, 25.761414%, 57.092285%)" offset="0.136719"/><stop stop-opacity="1" stop-color="rgb(26.727295%, 25.970459%, 57.287598%)" offset="0.140625"/><stop stop-opacity="1" stop-color="rgb(26.551819%, 26.177979%, 57.481384%)" offset="0.144531"/><stop stop-opacity="1" stop-color="rgb(26.376343%, 26.387024%, 57.676697%)" offset="0.148438"/><stop stop-opacity="1" stop-color="rgb(26.200867%, 26.594543%, 57.870483%)" offset="0.152344"/><stop stop-opacity="1" stop-color="rgb(26.025391%, 26.802063%, 58.06427%)" offset="0.15625"/><stop stop-opacity="1" stop-color="rgb(25.849915%, 27.009583%, 58.258057%)" offset="0.160156"/><stop stop-opacity="1" stop-color="rgb(25.675964%, 27.218628%, 58.453369%)" offset="0.164062"/><stop stop-opacity="1" stop-color="rgb(25.500488%, 27.426147%, 58.647156%)" offset="0.167969"/><stop stop-opacity="1" stop-color="rgb(25.325012%, 27.633667%, 58.842468%)" offset="0.171875"/><stop stop-opacity="1" stop-color="rgb(25.149536%, 27.841187%, 59.036255%)" offset="0.175781"/><stop stop-opacity="1" stop-color="rgb(24.97406%, 28.050232%, 59.231567%)" offset="0.179688"/><stop stop-opacity="1" stop-color="rgb(24.798584%, 28.257751%, 59.425354%)" offset="0.183594"/><stop stop-opacity="1" stop-color="rgb(24.623108%, 28.465271%, 59.619141%)" offset="0.1875"/><stop stop-opacity="1" stop-color="rgb(24.447632%, 28.672791%, 59.812927%)" offset="0.191406"/><stop stop-opacity="1" stop-color="rgb(24.272156%, 28.881836%, 60.00824%)" offset="0.195313"/><stop stop-opacity="1" stop-color="rgb(24.09668%, 29.089355%, 60.202026%)" offset="0.199219"/><stop stop-opacity="1" stop-color="rgb(23.922729%, 29.298401%, 60.397339%)" offset="0.203125"/><stop stop-opacity="1" stop-color="rgb(23.747253%, 29.50592%, 60.591125%)" offset="0.207031"/><stop stop-opacity="1" stop-color="rgb(23.571777%, 29.71344%, 60.786438%)" offset="0.210938"/><stop stop-opacity="1" stop-color="rgb(23.396301%, 29.920959%, 60.980225%)" offset="0.214844"/><stop stop-opacity="1" stop-color="rgb(23.220825%, 30.130005%, 61.174011%)" offset="0.21875"/><stop stop-opacity="1" stop-color="rgb(23.045349%, 30.337524%, 61.367798%)" offset="0.222656"/><stop stop-opacity="1" stop-color="rgb(22.869873%, 30.545044%, 61.56311%)" offset="0.226563"/><stop stop-opacity="1" stop-color="rgb(22.694397%, 30.752563%, 61.756897%)" offset="0.230469"/><stop stop-opacity="1" stop-color="rgb(22.518921%, 30.961609%, 61.952209%)" offset="0.234375"/><stop stop-opacity="1" stop-color="rgb(22.343445%, 31.169128%, 62.145996%)" offset="0.238281"/><stop stop-opacity="1" stop-color="rgb(22.169495%, 31.376648%, 62.341309%)" offset="0.242188"/><stop stop-opacity="1" stop-color="rgb(21.994019%, 31.584167%, 62.535095%)" offset="0.246094"/><stop stop-opacity="1" stop-color="rgb(21.818542%, 31.793213%, 62.728882%)" offset="0.25"/><stop stop-opacity="1" stop-color="rgb(21.643066%, 32.000732%, 62.922668%)" offset="0.253906"/><stop stop-opacity="1" stop-color="rgb(21.46759%, 32.208252%, 63.117981%)" offset="0.257813"/><stop stop-opacity="1" stop-color="rgb(21.292114%, 32.415771%, 63.311768%)" offset="0.261719"/><stop stop-opacity="1" stop-color="rgb(21.116638%, 32.624817%, 63.50708%)" offset="0.265625"/><stop stop-opacity="1" stop-color="rgb(20.941162%, 32.832336%, 63.700867%)" offset="0.269531"/><stop stop-opacity="1" stop-color="rgb(20.765686%, 33.041382%, 63.896179%)" offset="0.273438"/><stop stop-opacity="1" stop-color="rgb(20.59021%, 33.248901%, 64.089966%)" offset="0.277344"/><stop stop-opacity="1" stop-color="rgb(20.41626%, 33.456421%, 64.283752%)" offset="0.28125"/><stop stop-opacity="1" stop-color="rgb(20.240784%, 33.66394%, 64.477539%)" offset="0.285156"/><stop stop-opacity="1" stop-color="rgb(20.065308%, 33.872986%, 64.672852%)" offset="0.289062"/><stop stop-opacity="1" stop-color="rgb(19.889832%, 34.080505%, 64.866638%)" offset="0.292969"/><stop stop-opacity="1" stop-color="rgb(19.714355%, 34.288025%, 65.061951%)" offset="0.296875"/><stop stop-opacity="1" stop-color="rgb(19.538879%, 34.495544%, 65.255737%)" offset="0.300781"/><stop stop-opacity="1" stop-color="rgb(19.363403%, 34.70459%, 65.45105%)" offset="0.304688"/><stop stop-opacity="1" stop-color="rgb(19.187927%, 34.912109%, 65.644836%)" offset="0.308594"/><stop stop-opacity="1" stop-color="rgb(19.012451%, 35.119629%, 65.838623%)" offset="0.3125"/><stop stop-opacity="1" stop-color="rgb(18.836975%, 35.327148%, 66.03241%)" offset="0.316406"/><stop stop-opacity="1" stop-color="rgb(18.663025%, 35.536194%, 66.227722%)" offset="0.320313"/><stop stop-opacity="1" stop-color="rgb(18.487549%, 35.743713%, 66.421509%)" offset="0.324219"/><stop stop-opacity="1" stop-color="rgb(18.312073%, 35.951233%, 66.616821%)" offset="0.328125"/><stop stop-opacity="1" stop-color="rgb(18.136597%, 36.158752%, 66.810608%)" offset="0.332031"/><stop stop-opacity="1" stop-color="rgb(17.961121%, 36.367798%, 67.004395%)" offset="0.335938"/><stop stop-opacity="1" stop-color="rgb(17.785645%, 36.575317%, 67.198181%)" offset="0.339844"/><stop stop-opacity="1" stop-color="rgb(17.610168%, 36.784363%, 67.393494%)" offset="0.34375"/><stop stop-opacity="1" stop-color="rgb(17.434692%, 36.991882%, 67.58728%)" offset="0.347656"/><stop stop-opacity="1" stop-color="rgb(17.259216%, 37.199402%, 67.782593%)" offset="0.351563"/><stop stop-opacity="1" stop-color="rgb(17.08374%, 37.406921%, 67.976379%)" offset="0.355469"/><stop stop-opacity="1" stop-color="rgb(16.90979%, 37.615967%, 68.171692%)" offset="0.359375"/><stop stop-opacity="1" stop-color="rgb(16.734314%, 37.823486%, 68.365479%)" offset="0.363281"/><stop stop-opacity="1" stop-color="rgb(16.558838%, 38.031006%, 68.559265%)" offset="0.367188"/><stop stop-opacity="1" stop-color="rgb(16.383362%, 38.238525%, 68.753052%)" offset="0.371094"/><stop stop-opacity="1" stop-color="rgb(16.207886%, 38.447571%, 68.948364%)" offset="0.375"/><stop stop-opacity="1" stop-color="rgb(16.03241%, 38.65509%, 69.142151%)" offset="0.378906"/><stop stop-opacity="1" stop-color="rgb(15.856934%, 38.86261%, 69.337463%)" offset="0.382813"/><stop stop-opacity="1" stop-color="rgb(15.681458%, 39.070129%, 69.53125%)" offset="0.386719"/><stop stop-opacity="1" stop-color="rgb(15.505981%, 39.279175%, 69.726562%)" offset="0.390625"/><stop stop-opacity="1" stop-color="rgb(15.330505%, 39.486694%, 69.920349%)" offset="0.394531"/><stop stop-opacity="1" stop-color="rgb(15.156555%, 39.694214%, 70.114136%)" offset="0.398438"/><stop stop-opacity="1" stop-color="rgb(14.981079%, 39.901733%, 70.307922%)" offset="0.402344"/><stop stop-opacity="1" stop-color="rgb(14.805603%, 40.110779%, 70.503235%)" offset="0.40625"/><stop stop-opacity="1" stop-color="rgb(14.630127%, 40.318298%, 70.697021%)" offset="0.410156"/><stop stop-opacity="1" stop-color="rgb(14.454651%, 40.527344%, 70.892334%)" offset="0.414062"/><stop stop-opacity="1" stop-color="rgb(14.279175%, 40.734863%, 71.086121%)" offset="0.417969"/><stop stop-opacity="1" stop-color="rgb(14.103699%, 40.942383%, 71.281433%)" offset="0.421875"/><stop stop-opacity="1" stop-color="rgb(13.928223%, 41.149902%, 71.47522%)" offset="0.425781"/><stop stop-opacity="1" stop-color="rgb(13.752747%, 41.358948%, 71.669006%)" offset="0.429688"/><stop stop-opacity="1" stop-color="rgb(13.577271%, 41.566467%, 71.862793%)" offset="0.433594"/><stop stop-opacity="1" stop-color="rgb(13.40332%, 41.773987%, 72.058105%)" offset="0.4375"/><stop stop-opacity="1" stop-color="rgb(13.227844%, 41.981506%, 72.251892%)" offset="0.441406"/><stop stop-opacity="1" stop-color="rgb(13.052368%, 42.190552%, 72.447205%)" offset="0.445312"/><stop stop-opacity="1" stop-color="rgb(12.876892%, 42.398071%, 72.640991%)" offset="0.449219"/><stop stop-opacity="1" stop-color="rgb(12.701416%, 42.605591%, 72.836304%)" offset="0.453125"/><stop stop-opacity="1" stop-color="rgb(12.52594%, 42.81311%, 73.03009%)" offset="0.457031"/><stop stop-opacity="1" stop-color="rgb(12.350464%, 43.022156%, 73.223877%)" offset="0.460938"/><stop stop-opacity="1" stop-color="rgb(12.174988%, 43.229675%, 73.417664%)" offset="0.464844"/><stop stop-opacity="1" stop-color="rgb(11.999512%, 43.437195%, 73.612976%)" offset="0.46875"/><stop stop-opacity="1" stop-color="rgb(11.824036%, 43.644714%, 73.806763%)" offset="0.472656"/><stop stop-opacity="1" stop-color="rgb(11.64856%, 43.85376%, 74.002075%)" offset="0.476562"/><stop stop-opacity="1" stop-color="rgb(11.473083%, 44.061279%, 74.195862%)" offset="0.480469"/><stop stop-opacity="1" stop-color="rgb(11.299133%, 44.270325%, 74.391174%)" offset="0.484375"/><stop stop-opacity="1" stop-color="rgb(11.123657%, 44.477844%, 74.584961%)" offset="0.488281"/><stop stop-opacity="1" stop-color="rgb(10.948181%, 44.685364%, 74.778748%)" offset="0.492188"/><stop stop-opacity="1" stop-color="rgb(10.772705%, 44.892883%, 74.972534%)" offset="0.496094"/><stop stop-opacity="1" stop-color="rgb(10.597229%, 45.101929%, 75.167847%)" offset="0.5"/><stop stop-opacity="1" stop-color="rgb(10.421753%, 45.309448%, 75.361633%)" offset="0.503906"/><stop stop-opacity="1" stop-color="rgb(10.246277%, 45.516968%, 75.556946%)" offset="0.507812"/><stop stop-opacity="1" stop-color="rgb(10.070801%, 45.724487%, 75.750732%)" offset="0.511719"/><stop stop-opacity="1" stop-color="rgb(9.895325%, 45.933533%, 75.946045%)" offset="0.515625"/><stop stop-opacity="1" stop-color="rgb(9.719849%, 46.141052%, 76.139832%)" offset="0.519531"/><stop stop-opacity="1" stop-color="rgb(9.545898%, 46.348572%, 76.333618%)" offset="0.523438"/><stop stop-opacity="1" stop-color="rgb(9.370422%, 46.556091%, 76.527405%)" offset="0.527344"/><stop stop-opacity="1" stop-color="rgb(9.194946%, 46.765137%, 76.722717%)" offset="0.53125"/><stop stop-opacity="1" stop-color="rgb(9.01947%, 46.972656%, 76.916504%)" offset="0.535156"/><stop stop-opacity="1" stop-color="rgb(8.843994%, 47.180176%, 77.111816%)" offset="0.539062"/><stop stop-opacity="1" stop-color="rgb(8.668518%, 47.387695%, 77.305603%)" offset="0.542969"/><stop stop-opacity="1" stop-color="rgb(8.493042%, 47.596741%, 77.500916%)" offset="0.546875"/><stop stop-opacity="1" stop-color="rgb(8.317566%, 47.80426%, 77.694702%)" offset="0.550781"/><stop stop-opacity="1" stop-color="rgb(8.14209%, 48.013306%, 77.888489%)" offset="0.554688"/><stop stop-opacity="1" stop-color="rgb(7.966614%, 48.220825%, 78.082275%)" offset="0.558594"/><stop stop-opacity="1" stop-color="rgb(7.792664%, 48.428345%, 78.277588%)" offset="0.5625"/><stop stop-opacity="1" stop-color="rgb(7.617188%, 48.635864%, 78.471375%)" offset="0.566406"/><stop stop-opacity="1" stop-color="rgb(7.441711%, 48.84491%, 78.666687%)" offset="0.570312"/><stop stop-opacity="1" stop-color="rgb(7.266235%, 49.052429%, 78.860474%)" offset="0.574219"/><stop stop-opacity="1" stop-color="rgb(7.090759%, 49.259949%, 79.055786%)" offset="0.578125"/><stop stop-opacity="1" stop-color="rgb(6.915283%, 49.467468%, 79.249573%)" offset="0.582031"/><stop stop-opacity="1" stop-color="rgb(6.739807%, 49.676514%, 79.443359%)" offset="0.585938"/><stop stop-opacity="1" stop-color="rgb(6.564331%, 49.884033%, 79.637146%)" offset="0.589844"/><stop stop-opacity="1" stop-color="rgb(6.388855%, 50.091553%, 79.832458%)" offset="0.59375"/><stop stop-opacity="1" stop-color="rgb(6.213379%, 50.299072%, 80.026245%)" offset="0.597656"/><stop stop-opacity="1" stop-color="rgb(6.039429%, 50.508118%, 80.221558%)" offset="0.601562"/><stop stop-opacity="1" stop-color="rgb(5.863953%, 50.715637%, 80.415344%)" offset="0.605469"/><stop stop-opacity="1" stop-color="rgb(5.688477%, 50.924683%, 80.610657%)" offset="0.609375"/><stop stop-opacity="1" stop-color="rgb(5.513%, 51.132202%, 80.804443%)" offset="0.613281"/><stop stop-opacity="1" stop-color="rgb(5.337524%, 51.339722%, 80.99823%)" offset="0.617187"/><stop stop-opacity="1" stop-color="rgb(5.162048%, 51.547241%, 81.192017%)" offset="0.621094"/><stop stop-opacity="1" stop-color="rgb(4.986572%, 51.756287%, 81.387329%)" offset="0.625"/><stop stop-opacity="1" stop-color="rgb(4.811096%, 51.963806%, 81.581116%)" offset="0.628906"/><stop stop-opacity="1" stop-color="rgb(4.63562%, 52.171326%, 81.776428%)" offset="0.632813"/><stop stop-opacity="1" stop-color="rgb(4.460144%, 52.378845%, 81.970215%)" offset="0.636719"/><stop stop-opacity="1" stop-color="rgb(4.286194%, 52.587891%, 82.164001%)" offset="0.640625"/><stop stop-opacity="1" stop-color="rgb(4.110718%, 52.79541%, 82.357788%)" offset="0.644531"/><stop stop-opacity="1" stop-color="rgb(3.935242%, 53.00293%, 82.553101%)" offset="0.648438"/><stop stop-opacity="1" stop-color="rgb(3.759766%, 53.210449%, 82.746887%)" offset="0.652344"/><stop stop-opacity="1" stop-color="rgb(3.58429%, 53.419495%, 82.9422%)" offset="0.65625"/><stop stop-opacity="1" stop-color="rgb(3.408813%, 53.627014%, 83.135986%)" offset="0.660156"/><stop stop-opacity="1" stop-color="rgb(3.233337%, 53.834534%, 83.331299%)" offset="0.664062"/><stop stop-opacity="1" stop-color="rgb(3.057861%, 54.042053%, 83.525085%)" offset="0.667969"/><stop stop-opacity="1" stop-color="rgb(2.882385%, 54.251099%, 83.718872%)" offset="0.671875"/><stop stop-opacity="1" stop-color="rgb(2.706909%, 54.458618%, 83.912659%)" offset="0.675781"/><stop stop-opacity="1" stop-color="rgb(2.532959%, 54.667664%, 84.107971%)" offset="0.679688"/><stop stop-opacity="1" stop-color="rgb(2.357483%, 54.875183%, 84.301758%)" offset="0.683594"/><stop stop-opacity="1" stop-color="rgb(2.182007%, 55.082703%, 84.49707%)" offset="0.6875"/><stop stop-opacity="1" stop-color="rgb(2.090454%, 55.19104%, 84.597778%)" offset="0.75"/><stop stop-opacity="1" stop-color="rgb(1.998901%, 55.299377%, 84.698486%)" offset="0.753709"/><stop stop-opacity="1" stop-color="rgb(1.998901%, 55.299377%, 84.698486%)" offset="1"/></linearGradient><clipPath id="948a30f284"><path d="M 219 859 L 385 859 L 385 1025 L 219 1025 Z M 219 859 " clip-rule="nonzero"/></clipPath><clipPath id="13d3492f6b"><path d="M 384.699219 942.351562 C 384.699219 943.699219 384.664062 945.050781 384.597656 946.398438 C 384.53125 947.746094 384.433594 949.09375 384.300781 950.4375 C 384.167969 951.777344 384.003906 953.117188 383.804688 954.453125 C 383.609375 955.789062 383.375 957.117188 383.113281 958.441406 C 382.851562 959.765625 382.554688 961.082031 382.226562 962.394531 C 381.898438 963.703125 381.539062 965.003906 381.148438 966.292969 C 380.753906 967.585938 380.332031 968.867188 379.875 970.140625 C 379.421875 971.410156 378.9375 972.667969 378.417969 973.917969 C 377.902344 975.164062 377.355469 976.398438 376.777344 977.617188 C 376.203125 978.835938 375.59375 980.042969 374.957031 981.234375 C 374.320312 982.425781 373.65625 983.597656 372.964844 984.757812 C 372.269531 985.914062 371.546875 987.054688 370.796875 988.175781 C 370.046875 989.300781 369.269531 990.402344 368.464844 991.488281 C 367.660156 992.570312 366.832031 993.636719 365.976562 994.679688 C 365.117188 995.722656 364.238281 996.742188 363.332031 997.742188 C 362.425781 998.746094 361.492188 999.722656 360.539062 1000.675781 C 359.585938 1001.628906 358.605469 1002.5625 357.605469 1003.46875 C 356.605469 1004.375 355.585938 1005.257812 354.542969 1006.113281 C 353.496094 1006.96875 352.433594 1007.800781 351.351562 1008.601562 C 350.265625 1009.40625 349.160156 1010.183594 348.039062 1010.933594 C 346.917969 1011.683594 345.777344 1012.40625 344.621094 1013.101562 C 343.460938 1013.792969 342.285156 1014.460938 341.097656 1015.097656 C 339.90625 1015.730469 338.699219 1016.339844 337.480469 1016.917969 C 336.261719 1017.492188 335.027344 1018.039062 333.777344 1018.558594 C 332.53125 1019.074219 331.273438 1019.558594 330 1020.015625 C 328.730469 1020.46875 327.449219 1020.890625 326.15625 1021.285156 C 324.867188 1021.675781 323.566406 1022.035156 322.253906 1022.363281 C 320.945312 1022.691406 319.628906 1022.988281 318.304688 1023.25 C 316.980469 1023.515625 315.652344 1023.746094 314.316406 1023.941406 C 312.980469 1024.140625 311.640625 1024.304688 310.296875 1024.4375 C 308.953125 1024.570312 307.609375 1024.667969 306.261719 1024.734375 C 304.914062 1024.800781 303.5625 1024.835938 302.214844 1024.835938 C 300.863281 1024.835938 299.515625 1024.800781 298.167969 1024.734375 C 296.816406 1024.667969 295.472656 1024.570312 294.128906 1024.4375 C 292.785156 1024.304688 291.445312 1024.140625 290.109375 1023.941406 C 288.773438 1023.746094 287.445312 1023.515625 286.121094 1023.25 C 284.796875 1022.988281 283.480469 1022.691406 282.171875 1022.363281 C 280.863281 1022.035156 279.5625 1021.675781 278.269531 1021.285156 C 276.976562 1020.890625 275.695312 1020.46875 274.425781 1020.015625 C 273.152344 1019.558594 271.894531 1019.074219 270.648438 1018.558594 C 269.402344 1018.039062 268.167969 1017.492188 266.945312 1016.917969 C 265.726562 1016.339844 264.519531 1015.730469 263.332031 1015.097656 C 262.140625 1014.460938 260.964844 1013.792969 259.808594 1013.101562 C 258.648438 1012.40625 257.511719 1011.683594 256.386719 1010.933594 C 255.265625 1010.183594 254.160156 1009.40625 253.078125 1008.601562 C 251.992188 1007.800781 250.929688 1006.96875 249.886719 1006.113281 C 248.84375 1005.257812 247.820312 1004.375 246.820312 1003.46875 C 245.820312 1002.5625 244.84375 1001.628906 243.886719 1000.675781 C 242.933594 999.722656 242.003906 998.746094 241.097656 997.742188 C 240.191406 996.742188 239.308594 995.722656 238.453125 994.679688 C 237.59375 993.636719 236.765625 992.570312 235.960938 991.488281 C 235.15625 990.402344 234.378906 989.300781 233.628906 988.175781 C 232.878906 987.054688 232.15625 985.914062 231.464844 984.757812 C 230.769531 983.597656 230.105469 982.425781 229.46875 981.234375 C 228.832031 980.042969 228.226562 978.835938 227.648438 977.617188 C 227.070312 976.398438 226.523438 975.164062 226.007812 973.917969 C 225.492188 972.667969 225.003906 971.410156 224.550781 970.140625 C 224.09375 968.867188 223.671875 967.585938 223.28125 966.292969 C 222.886719 965.003906 222.527344 963.703125 222.199219 962.394531 C 221.871094 961.082031 221.578125 959.765625 221.3125 958.441406 C 221.050781 957.117188 220.820312 955.789062 220.621094 954.453125 C 220.421875 953.117188 220.257812 951.777344 220.125 950.4375 C 219.992188 949.09375 219.894531 947.746094 219.828125 946.398438 C 219.761719 945.050781 219.730469 943.699219 219.730469 942.351562 C 219.730469 941 219.761719 939.652344 219.828125 938.304688 C 219.894531 936.953125 219.992188 935.609375 220.125 934.265625 C 220.257812 932.921875 220.421875 931.582031 220.621094 930.246094 C 220.820312 928.914062 221.050781 927.582031 221.3125 926.257812 C 221.578125 924.933594 221.871094 923.617188 222.199219 922.308594 C 222.527344 921 222.886719 919.699219 223.28125 918.40625 C 223.671875 917.113281 224.09375 915.832031 224.550781 914.5625 C 225.003906 913.292969 225.492188 912.03125 226.007812 910.785156 C 226.523438 909.539062 227.070312 908.304688 227.648438 907.082031 C 228.226562 905.863281 228.832031 904.65625 229.46875 903.46875 C 230.105469 902.277344 230.769531 901.101562 231.464844 899.945312 C 232.15625 898.785156 232.878906 897.648438 233.628906 896.523438 C 234.378906 895.402344 235.15625 894.296875 235.960938 893.214844 C 236.765625 892.128906 237.59375 891.066406 238.453125 890.023438 C 239.308594 888.980469 240.191406 887.957031 241.097656 886.957031 C 242.003906 885.957031 242.933594 884.980469 243.886719 884.023438 C 244.84375 883.070312 245.820312 882.140625 246.820312 881.234375 C 247.820312 880.328125 248.84375 879.445312 249.886719 878.589844 C 250.929688 877.734375 251.992188 876.902344 253.078125 876.097656 C 254.160156 875.292969 255.265625 874.515625 256.386719 873.765625 C 257.511719 873.015625 258.648438 872.296875 259.808594 871.601562 C 260.964844 870.90625 262.140625 870.242188 263.332031 869.605469 C 264.519531 868.96875 265.726562 868.363281 266.945312 867.785156 C 268.167969 867.207031 269.402344 866.660156 270.648438 866.144531 C 271.894531 865.628906 273.152344 865.140625 274.425781 864.6875 C 275.695312 864.234375 276.976562 863.808594 278.269531 863.417969 C 279.5625 863.027344 280.863281 862.664062 282.171875 862.335938 C 283.480469 862.011719 284.796875 861.714844 286.121094 861.449219 C 287.445312 861.1875 288.773438 860.957031 290.109375 860.757812 C 291.445312 860.558594 292.785156 860.394531 294.128906 860.261719 C 295.472656 860.128906 296.816406 860.03125 298.167969 859.964844 C 299.515625 859.898438 300.863281 859.867188 302.214844 859.867188 C 303.5625 859.867188 304.914062 859.898438 306.261719 859.964844 C 307.609375 860.03125 308.953125 860.128906 310.296875 860.261719 C 311.640625 860.394531 312.980469 860.558594 314.316406 860.757812 C 315.652344 860.957031 316.980469 861.1875 318.304688 861.449219 C 319.628906 861.714844 320.945312 862.011719 322.253906 862.335938 C 323.566406 862.664062 324.867188 863.027344 326.15625 863.417969 C 327.449219 863.808594 328.730469 864.234375 330 864.6875 C 331.273438 865.140625 332.53125 865.628906 333.777344 866.144531 C 335.027344 866.660156 336.261719 867.207031 337.480469 867.785156 C 338.699219 868.363281 339.90625 868.96875 341.097656 869.605469 C 342.285156 870.242188 343.460938 870.90625 344.621094 871.601562 C 345.777344 872.296875 346.917969 873.015625 348.039062 873.765625 C 349.160156 874.515625 350.265625 875.292969 351.351562 876.097656 C 352.433594 876.902344 353.496094 877.734375 354.542969 878.589844 C 355.585938 879.445312 356.605469 880.328125 357.605469 881.234375 C 358.605469 882.140625 359.585938 883.070312 360.539062 884.023438 C 361.492188 884.980469 362.425781 885.957031 363.332031 886.957031 C 364.238281 887.957031 365.117188 888.980469 365.976562 890.023438 C 366.832031 891.066406 367.660156 892.128906 368.464844 893.214844 C 369.269531 894.296875 370.046875 895.402344 370.796875 896.523438 C 371.546875 897.648438 372.269531 898.785156 372.964844 899.945312 C 373.65625 901.101562 374.320312 902.277344 374.957031 903.46875 C 375.59375 904.65625 376.203125 905.863281 376.777344 907.082031 C 377.355469 908.304688 377.902344 909.539062 378.417969 910.785156 C 378.9375 912.03125 379.421875 913.292969 379.875 914.5625 C 380.332031 915.832031 380.753906 917.113281 381.148438 918.40625 C 381.539062 919.699219 381.898438 921 382.226562 922.308594 C 382.554688 923.617188 382.851562 924.933594 383.113281 926.257812 C 383.375 927.582031 383.609375 928.914062 383.804688 930.246094 C 384.003906 931.582031 384.167969 932.921875 384.300781 934.265625 C 384.433594 935.609375 384.53125 936.953125 384.597656 938.304688 C 384.664062 939.652344 384.699219 941 384.699219 942.351562 Z M 384.699219 942.351562 " clip-rule="nonzero"/></clipPath><linearGradient x1="11.499998" gradientTransform="matrix(0.689096, 0, 0, 0.689096, 211.804029, 851.941222)" y1="131.160004" x2="250.899994" gradientUnits="userSpaceOnUse" y2="131.160004" id="b22f301ab7"><stop stop-opacity="1" stop-color="rgb(27.798462%, 24.699402%, 56.100464%)" offset="0"/><stop stop-opacity="1" stop-color="rgb(27.696228%, 24.819946%, 56.211853%)" offset="0.0078125"/><stop stop-opacity="1" stop-color="rgb(27.493286%, 25.061035%, 56.436157%)" offset="0.015625"/><stop stop-opacity="1" stop-color="rgb(27.290344%, 25.300598%, 56.661987%)" offset="0.0234375"/><stop stop-opacity="1" stop-color="rgb(27.087402%, 25.541687%, 56.886292%)" offset="0.03125"/><stop stop-opacity="1" stop-color="rgb(26.88446%, 25.782776%, 57.112122%)" offset="0.0390625"/><stop stop-opacity="1" stop-color="rgb(26.681519%, 26.022339%, 57.336426%)" offset="0.046875"/><stop stop-opacity="1" stop-color="rgb(26.480103%, 26.263428%, 57.56073%)" offset="0.0546875"/><stop stop-opacity="1" stop-color="rgb(26.277161%, 26.504517%, 57.78656%)" offset="0.0625"/><stop stop-opacity="1" stop-color="rgb(26.074219%, 26.74408%, 58.010864%)" offset="0.0703125"/><stop stop-opacity="1" stop-color="rgb(25.871277%, 26.985168%, 58.235168%)" offset="0.078125"/><stop stop-opacity="1" stop-color="rgb(25.668335%, 27.226257%, 58.460999%)" offset="0.0859375"/><stop stop-opacity="1" stop-color="rgb(25.465393%, 27.46582%, 58.685303%)" offset="0.09375"/><stop stop-opacity="1" stop-color="rgb(25.262451%, 27.706909%, 58.909607%)" offset="0.101562"/><stop stop-opacity="1" stop-color="rgb(25.059509%, 27.947998%, 59.135437%)" offset="0.109375"/><stop stop-opacity="1" stop-color="rgb(24.856567%, 28.187561%, 59.359741%)" offset="0.117188"/><stop stop-opacity="1" stop-color="rgb(24.653625%, 28.42865%, 59.584045%)" offset="0.125"/><stop stop-opacity="1" stop-color="rgb(24.450684%, 28.669739%, 59.809875%)" offset="0.132812"/><stop stop-opacity="1" stop-color="rgb(24.247742%, 28.909302%, 60.03418%)" offset="0.140625"/><stop stop-opacity="1" stop-color="rgb(24.0448%, 29.150391%, 60.26001%)" offset="0.148438"/><stop stop-opacity="1" stop-color="rgb(23.841858%, 29.391479%, 60.484314%)" offset="0.15625"/><stop stop-opacity="1" stop-color="rgb(23.638916%, 29.631042%, 60.708618%)" offset="0.164062"/><stop stop-opacity="1" stop-color="rgb(23.4375%, 29.872131%, 60.934448%)" offset="0.171875"/><stop stop-opacity="1" stop-color="rgb(23.234558%, 30.11322%, 61.158752%)" offset="0.179688"/><stop stop-opacity="1" stop-color="rgb(23.031616%, 30.352783%, 61.383057%)" offset="0.1875"/><stop stop-opacity="1" stop-color="rgb(22.828674%, 30.593872%, 61.608887%)" offset="0.195312"/><stop stop-opacity="1" stop-color="rgb(22.625732%, 30.834961%, 61.833191%)" offset="0.203125"/><stop stop-opacity="1" stop-color="rgb(22.422791%, 31.074524%, 62.057495%)" offset="0.210937"/><stop stop-opacity="1" stop-color="rgb(22.219849%, 31.315613%, 62.283325%)" offset="0.21875"/><stop stop-opacity="1" stop-color="rgb(22.016907%, 31.556702%, 62.507629%)" offset="0.226562"/><stop stop-opacity="1" stop-color="rgb(21.813965%, 31.796265%, 62.731934%)" offset="0.234375"/><stop stop-opacity="1" stop-color="rgb(21.611023%, 32.037354%, 62.957764%)" offset="0.242187"/><stop stop-opacity="1" stop-color="rgb(21.408081%, 32.278442%, 63.182068%)" offset="0.25"/><stop stop-opacity="1" stop-color="rgb(21.205139%, 32.518005%, 63.407898%)" offset="0.257812"/><stop stop-opacity="1" stop-color="rgb(21.002197%, 32.759094%, 63.632202%)" offset="0.265625"/><stop stop-opacity="1" stop-color="rgb(20.799255%, 33.000183%, 63.856506%)" offset="0.273437"/><stop stop-opacity="1" stop-color="rgb(20.597839%, 33.239746%, 64.082336%)" offset="0.28125"/><stop stop-opacity="1" stop-color="rgb(20.394897%, 33.480835%, 64.306641%)" offset="0.289062"/><stop stop-opacity="1" stop-color="rgb(20.191956%, 33.721924%, 64.530945%)" offset="0.296875"/><stop stop-opacity="1" stop-color="rgb(19.989014%, 33.961487%, 64.756775%)" offset="0.304687"/><stop stop-opacity="1" stop-color="rgb(19.786072%, 34.202576%, 64.981079%)" offset="0.3125"/><stop stop-opacity="1" stop-color="rgb(19.58313%, 34.443665%, 65.205383%)" offset="0.320312"/><stop stop-opacity="1" stop-color="rgb(19.380188%, 34.683228%, 65.431213%)" offset="0.328125"/><stop stop-opacity="1" stop-color="rgb(19.177246%, 34.924316%, 65.655518%)" offset="0.335937"/><stop stop-opacity="1" stop-color="rgb(18.974304%, 35.165405%, 65.879822%)" offset="0.34375"/><stop stop-opacity="1" stop-color="rgb(18.771362%, 35.404968%, 66.105652%)" offset="0.351562"/><stop stop-opacity="1" stop-color="rgb(18.56842%, 35.646057%, 66.329956%)" offset="0.359375"/><stop stop-opacity="1" stop-color="rgb(18.365479%, 35.887146%, 66.555786%)" offset="0.367187"/><stop stop-opacity="1" stop-color="rgb(18.162537%, 36.126709%, 66.78009%)" offset="0.375"/><stop stop-opacity="1" stop-color="rgb(17.959595%, 36.367798%, 67.004395%)" offset="0.382812"/><stop stop-opacity="1" stop-color="rgb(17.758179%, 36.608887%, 67.230225%)" offset="0.390625"/><stop stop-opacity="1" stop-color="rgb(17.555237%, 36.84845%, 67.454529%)" offset="0.398437"/><stop stop-opacity="1" stop-color="rgb(17.352295%, 37.089539%, 67.678833%)" offset="0.40625"/><stop stop-opacity="1" stop-color="rgb(17.149353%, 37.330627%, 67.904663%)" offset="0.414062"/><stop stop-opacity="1" stop-color="rgb(16.946411%, 37.57019%, 68.128967%)" offset="0.421875"/><stop stop-opacity="1" stop-color="rgb(16.743469%, 37.811279%, 68.353271%)" offset="0.429687"/><stop stop-opacity="1" stop-color="rgb(16.540527%, 38.052368%, 68.579102%)" offset="0.4375"/><stop stop-opacity="1" stop-color="rgb(16.337585%, 38.291931%, 68.803406%)" offset="0.445312"/><stop stop-opacity="1" stop-color="rgb(16.134644%, 38.53302%, 69.02771%)" offset="0.453125"/><stop stop-opacity="1" stop-color="rgb(15.931702%, 38.772583%, 69.25354%)" offset="0.460937"/><stop stop-opacity="1" stop-color="rgb(15.72876%, 39.013672%, 69.477844%)" offset="0.46875"/><stop stop-opacity="1" stop-color="rgb(15.525818%, 39.254761%, 69.702148%)" offset="0.476562"/><stop stop-opacity="1" stop-color="rgb(15.322876%, 39.494324%, 69.927979%)" offset="0.484375"/><stop stop-opacity="1" stop-color="rgb(15.119934%, 39.735413%, 70.152283%)" offset="0.492187"/><stop stop-opacity="1" stop-color="rgb(14.916992%, 39.976501%, 70.378113%)" offset="0.5"/><stop stop-opacity="1" stop-color="rgb(14.715576%, 40.216064%, 70.602417%)" offset="0.507812"/><stop stop-opacity="1" stop-color="rgb(14.512634%, 40.457153%, 70.826721%)" offset="0.515625"/><stop stop-opacity="1" stop-color="rgb(14.309692%, 40.698242%, 71.052551%)" offset="0.523438"/><stop stop-opacity="1" stop-color="rgb(14.10675%, 40.937805%, 71.276855%)" offset="0.53125"/><stop stop-opacity="1" stop-color="rgb(13.903809%, 41.178894%, 71.50116%)" offset="0.539062"/><stop stop-opacity="1" stop-color="rgb(13.700867%, 41.419983%, 71.72699%)" offset="0.546875"/><stop stop-opacity="1" stop-color="rgb(13.497925%, 41.659546%, 71.951294%)" offset="0.554687"/><stop stop-opacity="1" stop-color="rgb(13.294983%, 41.900635%, 72.175598%)" offset="0.5625"/><stop stop-opacity="1" stop-color="rgb(13.092041%, 42.141724%, 72.401428%)" offset="0.570312"/><stop stop-opacity="1" stop-color="rgb(12.889099%, 42.381287%, 72.625732%)" offset="0.578125"/><stop stop-opacity="1" stop-color="rgb(12.686157%, 42.622375%, 72.850037%)" offset="0.585937"/><stop stop-opacity="1" stop-color="rgb(12.483215%, 42.863464%, 73.075867%)" offset="0.59375"/><stop stop-opacity="1" stop-color="rgb(12.280273%, 43.103027%, 73.300171%)" offset="0.601562"/><stop stop-opacity="1" stop-color="rgb(12.077332%, 43.344116%, 73.526001%)" offset="0.609375"/><stop stop-opacity="1" stop-color="rgb(11.875916%, 43.585205%, 73.750305%)" offset="0.617188"/><stop stop-opacity="1" stop-color="rgb(11.672974%, 43.824768%, 73.974609%)" offset="0.625"/><stop stop-opacity="1" stop-color="rgb(11.470032%, 44.065857%, 74.200439%)" offset="0.632812"/><stop stop-opacity="1" stop-color="rgb(11.26709%, 44.306946%, 74.424744%)" offset="0.640625"/><stop stop-opacity="1" stop-color="rgb(11.064148%, 44.546509%, 74.649048%)" offset="0.648437"/><stop stop-opacity="1" stop-color="rgb(10.861206%, 44.787598%, 74.874878%)" offset="0.65625"/><stop stop-opacity="1" stop-color="rgb(10.658264%, 45.028687%, 75.099182%)" offset="0.664062"/><stop stop-opacity="1" stop-color="rgb(10.455322%, 45.26825%, 75.323486%)" offset="0.671875"/><stop stop-opacity="1" stop-color="rgb(10.25238%, 45.509338%, 75.549316%)" offset="0.679687"/><stop stop-opacity="1" stop-color="rgb(10.049438%, 45.750427%, 75.773621%)" offset="0.6875"/><stop stop-opacity="1" stop-color="rgb(9.846497%, 45.98999%, 75.997925%)" offset="0.695312"/><stop stop-opacity="1" stop-color="rgb(9.643555%, 46.231079%, 76.223755%)" offset="0.703125"/><stop stop-opacity="1" stop-color="rgb(9.440613%, 46.472168%, 76.448059%)" offset="0.710937"/><stop stop-opacity="1" stop-color="rgb(9.237671%, 46.711731%, 76.673889%)" offset="0.71875"/><stop stop-opacity="1" stop-color="rgb(9.036255%, 46.95282%, 76.898193%)" offset="0.726562"/><stop stop-opacity="1" stop-color="rgb(8.833313%, 47.193909%, 77.122498%)" offset="0.734375"/><stop stop-opacity="1" stop-color="rgb(8.630371%, 47.433472%, 77.348328%)" offset="0.742187"/><stop stop-opacity="1" stop-color="rgb(8.427429%, 47.674561%, 77.572632%)" offset="0.75"/><stop stop-opacity="1" stop-color="rgb(8.224487%, 47.915649%, 77.796936%)" offset="0.757812"/><stop stop-opacity="1" stop-color="rgb(8.021545%, 48.155212%, 78.022766%)" offset="0.765625"/><stop stop-opacity="1" stop-color="rgb(7.818604%, 48.396301%, 78.24707%)" offset="0.773438"/><stop stop-opacity="1" stop-color="rgb(7.615662%, 48.63739%, 78.471375%)" offset="0.78125"/><stop stop-opacity="1" stop-color="rgb(7.41272%, 48.876953%, 78.697205%)" offset="0.789062"/><stop stop-opacity="1" stop-color="rgb(7.209778%, 49.118042%, 78.921509%)" offset="0.796875"/><stop stop-opacity="1" stop-color="rgb(7.006836%, 49.359131%, 79.145813%)" offset="0.804687"/><stop stop-opacity="1" stop-color="rgb(6.803894%, 49.598694%, 79.371643%)" offset="0.8125"/><stop stop-opacity="1" stop-color="rgb(6.600952%, 49.839783%, 79.595947%)" offset="0.820312"/><stop stop-opacity="1" stop-color="rgb(6.39801%, 50.080872%, 79.821777%)" offset="0.828125"/><stop stop-opacity="1" stop-color="rgb(6.196594%, 50.320435%, 80.046082%)" offset="0.835937"/><stop stop-opacity="1" stop-color="rgb(5.993652%, 50.561523%, 80.270386%)" offset="0.84375"/><stop stop-opacity="1" stop-color="rgb(5.79071%, 50.802612%, 80.496216%)" offset="0.851562"/><stop stop-opacity="1" stop-color="rgb(5.587769%, 51.042175%, 80.72052%)" offset="0.859375"/><stop stop-opacity="1" stop-color="rgb(5.384827%, 51.283264%, 80.944824%)" offset="0.867188"/><stop stop-opacity="1" stop-color="rgb(5.181885%, 51.524353%, 81.170654%)" offset="0.875"/><stop stop-opacity="1" stop-color="rgb(4.978943%, 51.763916%, 81.394958%)" offset="0.882812"/><stop stop-opacity="1" stop-color="rgb(4.776001%, 52.005005%, 81.619263%)" offset="0.890625"/><stop stop-opacity="1" stop-color="rgb(4.573059%, 52.246094%, 81.845093%)" offset="0.898437"/><stop stop-opacity="1" stop-color="rgb(4.370117%, 52.485657%, 82.069397%)" offset="0.90625"/><stop stop-opacity="1" stop-color="rgb(4.167175%, 52.726746%, 82.293701%)" offset="0.914062"/><stop stop-opacity="1" stop-color="rgb(3.964233%, 52.966309%, 82.519531%)" offset="0.921875"/><stop stop-opacity="1" stop-color="rgb(3.761292%, 53.207397%, 82.743835%)" offset="0.929687"/><stop stop-opacity="1" stop-color="rgb(3.55835%, 53.448486%, 82.969666%)" offset="0.9375"/><stop stop-opacity="1" stop-color="rgb(3.355408%, 53.688049%, 83.19397%)" offset="0.945312"/><stop stop-opacity="1" stop-color="rgb(3.153992%, 53.929138%, 83.418274%)" offset="0.953125"/><stop stop-opacity="1" stop-color="rgb(2.95105%, 54.170227%, 83.644104%)" offset="0.960937"/><stop stop-opacity="1" stop-color="rgb(2.748108%, 54.40979%, 83.868408%)" offset="0.96875"/><stop stop-opacity="1" stop-color="rgb(2.545166%, 54.650879%, 84.092712%)" offset="0.976562"/><stop stop-opacity="1" stop-color="rgb(2.342224%, 54.891968%, 84.318542%)" offset="0.984375"/><stop stop-opacity="1" stop-color="rgb(2.119446%, 55.155945%, 84.564209%)" offset="1"/></linearGradient><clipPath id="cefa103cb6"><path d="M 223 863 L 382 863 L 382 1022 L 223 1022 Z M 223 863 " clip-rule="nonzero"/></clipPath><clipPath id="5687c3815b"><path d="M 381.046875 942.351562 C 381.046875 943.640625 381.015625 944.929688 380.949219 946.21875 C 380.886719 947.507812 380.792969 948.792969 380.667969 950.078125 C 380.539062 951.363281 380.382812 952.640625 380.191406 953.917969 C 380.003906 955.195312 379.78125 956.464844 379.53125 957.730469 C 379.28125 958.996094 378.996094 960.253906 378.683594 961.503906 C 378.371094 962.757812 378.027344 964 377.652344 965.234375 C 377.277344 966.46875 376.871094 967.695312 376.4375 968.910156 C 376.003906 970.125 375.539062 971.328125 375.046875 972.519531 C 374.550781 973.710938 374.027344 974.890625 373.476562 976.054688 C 372.925781 977.222656 372.347656 978.375 371.738281 979.511719 C 371.128906 980.648438 370.492188 981.773438 369.832031 982.878906 C 369.167969 983.984375 368.476562 985.074219 367.761719 986.148438 C 367.042969 987.21875 366.300781 988.273438 365.53125 989.3125 C 364.765625 990.347656 363.96875 991.363281 363.152344 992.363281 C 362.332031 993.359375 361.492188 994.335938 360.625 995.292969 C 359.757812 996.246094 358.867188 997.179688 357.957031 998.09375 C 357.042969 999.007812 356.109375 999.894531 355.152344 1000.761719 C 354.199219 1001.628906 353.222656 1002.46875 352.222656 1003.289062 C 351.226562 1004.109375 350.210938 1004.902344 349.175781 1005.667969 C 348.136719 1006.4375 347.082031 1007.179688 346.011719 1007.898438 C 344.9375 1008.613281 343.847656 1009.304688 342.742188 1009.96875 C 341.636719 1010.632812 340.511719 1011.265625 339.375 1011.875 C 338.238281 1012.484375 337.085938 1013.0625 335.917969 1013.613281 C 334.753906 1014.167969 333.574219 1014.6875 332.382812 1015.183594 C 331.191406 1015.675781 329.984375 1016.140625 328.769531 1016.574219 C 327.558594 1017.007812 326.332031 1017.414062 325.097656 1017.789062 C 323.863281 1018.164062 322.621094 1018.507812 321.367188 1018.820312 C 320.117188 1019.132812 318.859375 1019.417969 317.59375 1019.667969 C 316.328125 1019.921875 315.058594 1020.140625 313.78125 1020.328125 C 312.503906 1020.519531 311.222656 1020.675781 309.941406 1020.804688 C 308.65625 1020.929688 307.371094 1021.023438 306.082031 1021.089844 C 304.792969 1021.152344 303.503906 1021.183594 302.214844 1021.183594 C 300.921875 1021.183594 299.632812 1021.152344 298.34375 1021.089844 C 297.058594 1021.023438 295.769531 1020.929688 294.488281 1020.804688 C 293.203125 1020.675781 291.921875 1020.519531 290.644531 1020.328125 C 289.371094 1020.140625 288.097656 1019.921875 286.835938 1019.667969 C 285.570312 1019.417969 284.308594 1019.132812 283.058594 1018.820312 C 281.808594 1018.507812 280.5625 1018.164062 279.328125 1017.789062 C 278.09375 1017.414062 276.871094 1017.007812 275.65625 1016.574219 C 274.441406 1016.140625 273.238281 1015.675781 272.046875 1015.183594 C 270.855469 1014.6875 269.675781 1014.167969 268.507812 1013.613281 C 267.34375 1013.0625 266.191406 1012.484375 265.050781 1011.875 C 263.914062 1011.265625 262.792969 1010.632812 261.683594 1009.96875 C 260.578125 1009.304688 259.488281 1008.613281 258.417969 1007.898438 C 257.34375 1007.179688 256.289062 1006.4375 255.253906 1005.667969 C 254.214844 1004.902344 253.199219 1004.109375 252.203125 1003.289062 C 251.207031 1002.46875 250.230469 1001.628906 249.273438 1000.761719 C 248.316406 999.894531 247.382812 999.007812 246.46875 998.09375 C 245.558594 997.179688 244.667969 996.246094 243.800781 995.292969 C 242.9375 994.335938 242.09375 993.359375 241.273438 992.363281 C 240.457031 991.363281 239.664062 990.347656 238.894531 989.3125 C 238.125 988.273438 237.382812 987.21875 236.667969 986.148438 C 235.949219 985.074219 235.257812 983.984375 234.597656 982.878906 C 233.933594 981.773438 233.296875 980.648438 232.6875 979.511719 C 232.082031 978.375 231.5 977.222656 230.949219 976.054688 C 230.398438 974.890625 229.875 973.710938 229.382812 972.519531 C 228.886719 971.328125 228.421875 970.125 227.988281 968.910156 C 227.554688 967.695312 227.148438 966.46875 226.773438 965.234375 C 226.402344 964 226.058594 962.757812 225.742188 961.503906 C 225.429688 960.253906 225.148438 958.996094 224.894531 957.730469 C 224.644531 956.464844 224.421875 955.195312 224.234375 953.917969 C 224.042969 952.640625 223.886719 951.363281 223.761719 950.078125 C 223.632812 948.792969 223.539062 947.507812 223.476562 946.21875 C 223.414062 944.929688 223.378906 943.640625 223.378906 942.351562 C 223.378906 941.058594 223.414062 939.769531 223.476562 938.484375 C 223.539062 937.195312 223.632812 935.90625 223.761719 934.625 C 223.886719 933.339844 224.042969 932.058594 224.234375 930.785156 C 224.421875 929.507812 224.644531 928.238281 224.894531 926.972656 C 225.148438 925.707031 225.429688 924.449219 225.742188 923.195312 C 226.058594 921.945312 226.402344 920.703125 226.773438 919.464844 C 227.148438 918.230469 227.554688 917.007812 227.988281 915.792969 C 228.421875 914.578125 228.886719 913.375 229.382812 912.183594 C 229.875 910.992188 230.398438 909.8125 230.949219 908.644531 C 231.5 907.480469 232.082031 906.328125 232.6875 905.1875 C 233.296875 904.050781 233.933594 902.929688 234.597656 901.824219 C 235.257812 900.714844 235.949219 899.625 236.667969 898.554688 C 237.382812 897.480469 238.125 896.425781 238.894531 895.390625 C 239.664062 894.355469 240.457031 893.335938 241.273438 892.339844 C 242.09375 891.34375 242.9375 890.367188 243.800781 889.410156 C 244.667969 888.453125 245.558594 887.519531 246.46875 886.609375 C 247.382812 885.695312 248.316406 884.804688 249.273438 883.941406 C 250.230469 883.074219 251.207031 882.230469 252.203125 881.414062 C 253.199219 880.59375 254.214844 879.800781 255.253906 879.03125 C 256.289062 878.261719 257.34375 877.519531 258.417969 876.804688 C 259.488281 876.085938 260.578125 875.398438 261.683594 874.734375 C 262.792969 874.070312 263.914062 873.433594 265.050781 872.828125 C 266.191406 872.21875 267.34375 871.636719 268.507812 871.085938 C 269.675781 870.535156 270.855469 870.011719 272.046875 869.519531 C 273.238281 869.023438 274.441406 868.5625 275.65625 868.125 C 276.871094 867.691406 278.09375 867.285156 279.328125 866.914062 C 280.5625 866.539062 281.808594 866.195312 283.058594 865.878906 C 284.308594 865.566406 285.570312 865.285156 286.835938 865.03125 C 288.097656 864.78125 289.371094 864.5625 290.644531 864.371094 C 291.921875 864.183594 293.203125 864.023438 294.488281 863.898438 C 295.769531 863.769531 297.058594 863.675781 298.34375 863.613281 C 299.632812 863.550781 300.921875 863.519531 302.214844 863.519531 C 303.503906 863.519531 304.792969 863.550781 306.082031 863.613281 C 307.371094 863.675781 308.65625 863.769531 309.941406 863.898438 C 311.222656 864.023438 312.503906 864.183594 313.78125 864.371094 C 315.058594 864.5625 316.328125 864.78125 317.59375 865.03125 C 318.859375 865.285156 320.117188 865.566406 321.367188 865.878906 C 322.621094 866.195312 323.863281 866.539062 325.097656 866.914062 C 326.332031 867.285156 327.558594 867.691406 328.769531 868.125 C 329.984375 868.5625 331.191406 869.023438 332.382812 869.519531 C 333.574219 870.011719 334.753906 870.535156 335.917969 871.085938 C 337.085938 871.636719 338.238281 872.21875 339.375 872.828125 C 340.511719 873.433594 341.636719 874.070312 342.742188 874.734375 C 343.847656 875.398438 344.9375 876.085938 346.011719 876.804688 C 347.082031 877.519531 348.136719 878.261719 349.175781 879.03125 C 350.210938 879.800781 351.226562 880.59375 352.222656 881.414062 C 353.222656 882.230469 354.199219 883.074219 355.152344 883.941406 C 356.109375 884.804688 357.042969 885.695312 357.957031 886.609375 C 358.867188 887.519531 359.757812 888.453125 360.625 889.410156 C 361.492188 890.367188 362.332031 891.34375 363.152344 892.339844 C 363.96875 893.335938 364.765625 894.355469 365.53125 895.390625 C 366.300781 896.425781 367.042969 897.480469 367.761719 898.554688 C 368.476562 899.625 369.167969 900.714844 369.832031 901.824219 C 370.492188 902.929688 371.128906 904.050781 371.738281 905.1875 C 372.347656 906.328125 372.925781 907.480469 373.476562 908.644531 C 374.027344 909.8125 374.550781 910.992188 375.046875 912.183594 C 375.539062 913.375 376.003906 914.578125 376.4375 915.792969 C 376.871094 917.007812 377.277344 918.230469 377.652344 919.464844 C 378.027344 920.703125 378.371094 921.945312 378.683594 923.195312 C 378.996094 924.449219 379.28125 925.707031 379.53125 926.972656 C 379.78125 928.238281 380.003906 929.507812 380.191406 930.785156 C 380.382812 932.058594 380.539062 933.339844 380.667969 934.625 C 380.792969 935.90625 380.886719 937.195312 380.949219 938.484375 C 381.015625 939.769531 381.046875 941.058594 381.046875 942.351562 Z M 381.046875 942.351562 " clip-rule="nonzero"/></clipPath><linearGradient x1="-756.689954" gradientTransform="matrix(0.000000000000000042, 0.689096, -0.689096, 0.000000000000000042, -1039.174735, 1542.615631)" y1="-1946.55" x2="-985.489975" gradientUnits="userSpaceOnUse" y2="-1946.55" id="2ee488a230"><stop stop-opacity="1" stop-color="rgb(8.599854%, 17.599487%, 23.498535%)" offset="0"/><stop stop-opacity="1" stop-color="rgb(8.538818%, 17.478943%, 23.33374%)" offset="0.03125"/><stop stop-opacity="1" stop-color="rgb(8.416748%, 17.236328%, 23.00415%)" offset="0.0625"/><stop stop-opacity="1" stop-color="rgb(8.296204%, 16.992188%, 22.673035%)" offset="0.09375"/><stop stop-opacity="1" stop-color="rgb(8.174133%, 16.748047%, 22.341919%)" offset="0.125"/><stop stop-opacity="1" stop-color="rgb(8.052063%, 16.503906%, 22.010803%)" offset="0.15625"/><stop stop-opacity="1" stop-color="rgb(7.929993%, 16.259766%, 21.679688%)" offset="0.1875"/><stop stop-opacity="1" stop-color="rgb(7.807922%, 16.017151%, 21.348572%)" offset="0.21875"/><stop stop-opacity="1" stop-color="rgb(7.685852%, 15.77301%, 21.017456%)" offset="0.25"/><stop stop-opacity="1" stop-color="rgb(7.563782%, 15.52887%, 20.684814%)" offset="0.28125"/><stop stop-opacity="1" stop-color="rgb(7.441711%, 15.284729%, 20.353699%)" offset="0.3125"/><stop stop-opacity="1" stop-color="rgb(7.319641%, 15.042114%, 20.022583%)" offset="0.34375"/><stop stop-opacity="1" stop-color="rgb(7.199097%, 14.797974%, 19.691467%)" offset="0.375"/><stop stop-opacity="1" stop-color="rgb(7.077026%, 14.553833%, 19.360352%)" offset="0.40625"/><stop stop-opacity="1" stop-color="rgb(6.954956%, 14.309692%, 19.029236%)" offset="0.4375"/><stop stop-opacity="1" stop-color="rgb(6.832886%, 14.065552%, 18.69812%)" offset="0.46875"/><stop stop-opacity="1" stop-color="rgb(6.710815%, 13.822937%, 18.365479%)" offset="0.5"/><stop stop-opacity="1" stop-color="rgb(6.588745%, 13.578796%, 18.034363%)" offset="0.53125"/><stop stop-opacity="1" stop-color="rgb(6.466675%, 13.334656%, 17.703247%)" offset="0.5625"/><stop stop-opacity="1" stop-color="rgb(6.344604%, 13.090515%, 17.372131%)" offset="0.59375"/><stop stop-opacity="1" stop-color="rgb(6.222534%, 12.846375%, 17.041016%)" offset="0.625"/><stop stop-opacity="1" stop-color="rgb(6.10199%, 12.60376%, 16.7099%)" offset="0.65625"/><stop stop-opacity="1" stop-color="rgb(5.979919%, 12.359619%, 16.378784%)" offset="0.6875"/><stop stop-opacity="1" stop-color="rgb(5.857849%, 12.115479%, 16.046143%)" offset="0.71875"/><stop stop-opacity="1" stop-color="rgb(5.735779%, 11.871338%, 15.715027%)" offset="0.75"/><stop stop-opacity="1" stop-color="rgb(5.613708%, 11.628723%, 15.383911%)" offset="0.78125"/><stop stop-opacity="1" stop-color="rgb(5.491638%, 11.384583%, 15.052795%)" offset="0.8125"/><stop stop-opacity="1" stop-color="rgb(5.369568%, 11.140442%, 14.72168%)" offset="0.84375"/><stop stop-opacity="1" stop-color="rgb(5.247498%, 10.896301%, 14.390564%)" offset="0.875"/><stop stop-opacity="1" stop-color="rgb(5.125427%, 10.652161%, 14.059448%)" offset="0.90625"/><stop stop-opacity="1" stop-color="rgb(5.003357%, 10.409546%, 13.726807%)" offset="0.9375"/><stop stop-opacity="1" stop-color="rgb(4.882812%, 10.165405%, 13.395691%)" offset="0.96875"/><stop stop-opacity="1" stop-color="rgb(4.760742%, 9.921265%, 13.064575%)" offset="1"/></linearGradient></defs><g clip-path="url(#1281830a77)"><g clip-path="url(#06e8f91254)"><path fill="url(#da8dd58521)" d="M 211.804688 851.941406 L 211.804688 1032.691406 L 392.554688 1032.691406 L 392.554688 851.941406 Z M 211.804688 851.941406 " fill-rule="nonzero"/></g></g><g clip-path="url(#948a30f284)"><g clip-path="url(#13d3492f6b)"><path fill="url(#b22f301ab7)" d="M 219.730469 859.867188 L 219.730469 1024.835938 L 384.699219 1024.835938 L 384.699219 859.867188 Z M 219.730469 859.867188 " fill-rule="nonzero"/></g></g><g clip-path="url(#cefa103cb6)"><g clip-path="url(#5687c3815b)"><path fill="url(#2ee488a230)" d="M 381.046875 863.519531 L 223.378906 863.519531 L 223.378906 1021.183594 L 381.046875 1021.183594 Z M 381.046875 863.519531 " fill-rule="nonzero"/></g></g></svg>