<svg xmlns="http://www.w3.org/2000/svg" xmlns:xlink="http://www.w3.org/1999/xlink" width="80" zoomAndPan="magnify" viewBox="0 0 810 1439.999935" height="80" preserveAspectRatio="xMidYMid meet" version="1.0"><defs><clipPath id="84b37c2772"><path d="M 72.988281 527.46875 L 253.738281 527.46875 L 253.738281 708.21875 L 72.988281 708.21875 Z M 72.988281 527.46875 " clip-rule="nonzero"/></clipPath><clipPath id="34e00ab3f1"><path d="M 253.808594 617.878906 C 253.808594 619.359375 253.769531 620.835938 253.699219 622.316406 C 253.625 623.792969 253.515625 625.269531 253.371094 626.742188 C 253.226562 628.214844 253.046875 629.679688 252.828125 631.144531 C 252.609375 632.609375 252.359375 634.066406 252.070312 635.515625 C 251.78125 636.96875 251.457031 638.410156 251.097656 639.847656 C 250.738281 641.28125 250.34375 642.707031 249.914062 644.125 C 249.484375 645.539062 249.019531 646.945312 248.523438 648.335938 C 248.023438 649.730469 247.492188 651.109375 246.925781 652.476562 C 246.359375 653.84375 245.757812 655.195312 245.125 656.535156 C 244.492188 657.871094 243.828125 659.191406 243.132812 660.496094 C 242.433594 661.800781 241.703125 663.089844 240.945312 664.359375 C 240.183594 665.628906 239.390625 666.878906 238.570312 668.109375 C 237.75 669.339844 236.894531 670.546875 236.015625 671.734375 C 235.132812 672.925781 234.222656 674.089844 233.285156 675.234375 C 232.347656 676.378906 231.378906 677.496094 230.386719 678.59375 C 229.394531 679.691406 228.371094 680.761719 227.328125 681.808594 C 226.28125 682.855469 225.210938 683.875 224.113281 684.867188 C 223.015625 685.863281 221.894531 686.828125 220.753906 687.765625 C 219.609375 688.703125 218.441406 689.613281 217.253906 690.496094 C 216.066406 691.378906 214.855469 692.230469 213.625 693.050781 C 212.394531 693.875 211.144531 694.664062 209.878906 695.425781 C 208.609375 696.1875 207.320312 696.914062 206.015625 697.613281 C 204.710938 698.308594 203.390625 698.976562 202.050781 699.609375 C 200.714844 700.242188 199.363281 700.839844 197.996094 701.40625 C 196.628906 701.972656 195.25 702.503906 193.855469 703.003906 C 192.460938 703.5 191.058594 703.964844 189.640625 704.394531 C 188.226562 704.824219 186.800781 705.21875 185.363281 705.578125 C 183.929688 705.9375 182.488281 706.261719 181.035156 706.550781 C 179.585938 706.839844 178.125 707.09375 176.664062 707.308594 C 175.199219 707.527344 173.730469 707.707031 172.257812 707.851562 C 170.785156 708 169.3125 708.105469 167.832031 708.179688 C 166.355469 708.253906 164.878906 708.289062 163.398438 708.289062 C 161.917969 708.289062 160.4375 708.253906 158.960938 708.179688 C 157.484375 708.105469 156.007812 708 154.535156 707.851562 C 153.0625 707.707031 151.59375 707.527344 150.132812 707.308594 C 148.667969 707.09375 147.210938 706.839844 145.757812 706.550781 C 144.308594 706.261719 142.863281 705.9375 141.429688 705.578125 C 139.996094 705.21875 138.570312 704.824219 137.152344 704.394531 C 135.738281 703.964844 134.332031 703.5 132.9375 703.003906 C 131.546875 702.503906 130.167969 701.972656 128.800781 701.40625 C 127.433594 700.839844 126.078125 700.242188 124.742188 699.609375 C 123.40625 698.976562 122.082031 698.308594 120.777344 697.613281 C 119.472656 696.914062 118.1875 696.1875 116.917969 695.425781 C 115.648438 694.664062 114.398438 693.875 113.167969 693.050781 C 111.9375 692.230469 110.730469 691.378906 109.539062 690.496094 C 108.351562 689.613281 107.1875 688.707031 106.042969 687.765625 C 104.898438 686.828125 103.777344 685.863281 102.683594 684.867188 C 101.585938 683.875 100.515625 682.855469 99.46875 681.808594 C 98.421875 680.761719 97.402344 679.691406 96.410156 678.59375 C 95.414062 677.496094 94.449219 676.378906 93.511719 675.234375 C 92.570312 674.089844 91.660156 672.925781 90.78125 671.734375 C 89.898438 670.546875 89.046875 669.339844 88.226562 668.109375 C 87.402344 666.878906 86.609375 665.628906 85.851562 664.359375 C 85.089844 663.089844 84.359375 661.800781 83.664062 660.496094 C 82.964844 659.191406 82.300781 657.871094 81.667969 656.535156 C 81.035156 655.195312 80.4375 653.84375 79.871094 652.476562 C 79.304688 651.109375 78.769531 649.730469 78.273438 648.335938 C 77.773438 646.945312 77.308594 645.539062 76.882812 644.125 C 76.453125 642.707031 76.058594 641.28125 75.699219 639.847656 C 75.335938 638.410156 75.015625 636.96875 74.726562 635.515625 C 74.4375 634.066406 74.183594 632.609375 73.964844 631.144531 C 73.75 629.679688 73.566406 628.214844 73.421875 626.742188 C 73.277344 625.269531 73.167969 623.792969 73.097656 622.316406 C 73.023438 620.835938 72.988281 619.359375 72.988281 617.878906 C 72.988281 616.398438 73.023438 614.921875 73.097656 613.441406 C 73.167969 611.964844 73.277344 610.488281 73.421875 609.015625 C 73.566406 607.542969 73.75 606.078125 73.964844 604.613281 C 74.183594 603.148438 74.4375 601.691406 74.726562 600.242188 C 75.015625 598.789062 75.335938 597.347656 75.699219 595.910156 C 76.058594 594.476562 76.453125 593.050781 76.882812 591.632812 C 77.308594 590.21875 77.773438 588.8125 78.273438 587.421875 C 78.769531 586.027344 79.304688 584.648438 79.871094 583.28125 C 80.4375 581.914062 81.035156 580.5625 81.667969 579.222656 C 82.300781 577.886719 82.964844 576.566406 83.664062 575.261719 C 84.359375 573.957031 85.089844 572.667969 85.851562 571.398438 C 86.609375 570.128906 87.402344 568.878906 88.226562 567.648438 C 89.046875 566.417969 89.898438 565.210938 90.78125 564.023438 C 91.660156 562.832031 92.570312 561.667969 93.511719 560.523438 C 94.449219 559.378906 95.414062 558.261719 96.410156 557.164062 C 97.402344 556.066406 98.421875 554.996094 99.46875 553.949219 C 100.515625 552.902344 101.585938 551.882812 102.683594 550.890625 C 103.777344 549.894531 104.898438 548.929688 106.042969 547.992188 C 107.1875 547.054688 108.351562 546.144531 109.539062 545.261719 C 110.730469 544.378906 111.9375 543.527344 113.167969 542.707031 C 114.398438 541.882812 115.648438 541.09375 116.917969 540.332031 C 118.1875 539.570312 119.472656 538.84375 120.777344 538.144531 C 122.082031 537.449219 123.40625 536.78125 124.742188 536.148438 C 126.078125 535.515625 127.433594 534.917969 128.800781 534.351562 C 130.167969 533.785156 131.546875 533.253906 132.9375 532.753906 C 134.332031 532.257812 135.738281 531.792969 137.152344 531.363281 C 138.570312 530.933594 139.996094 530.539062 141.429688 530.179688 C 142.863281 529.820312 144.308594 529.496094 145.757812 529.207031 C 147.210938 528.917969 148.667969 528.664062 150.132812 528.449219 C 151.59375 528.230469 153.0625 528.050781 154.535156 527.90625 C 156.007812 527.761719 157.484375 527.652344 158.960938 527.578125 C 160.4375 527.503906 161.917969 527.46875 163.398438 527.46875 C 164.878906 527.46875 166.355469 527.503906 167.832031 527.578125 C 169.3125 527.652344 170.785156 527.761719 172.257812 527.90625 C 173.730469 528.050781 175.199219 528.230469 176.664062 528.449219 C 178.125 528.664062 179.585938 528.917969 181.035156 529.207031 C 182.488281 529.496094 183.929688 529.820312 185.363281 530.179688 C 186.800781 530.539062 188.226562 530.933594 189.640625 531.363281 C 191.058594 531.792969 192.460938 532.257812 193.855469 532.753906 C 195.25 533.253906 196.628906 533.785156 197.996094 534.351562 C 199.363281 534.917969 200.714844 535.515625 202.050781 536.148438 C 203.390625 536.78125 204.710938 537.449219 206.015625 538.144531 C 207.320312 538.84375 208.609375 539.570312 209.878906 540.332031 C 211.144531 541.09375 212.394531 541.882812 213.625 542.707031 C 214.855469 543.527344 216.066406 544.378906 217.253906 545.261719 C 218.441406 546.144531 219.609375 547.054688 220.753906 547.992188 C 221.894531 548.929688 223.015625 549.894531 224.113281 550.890625 C 225.210938 551.882812 226.28125 552.902344 227.328125 553.949219 C 228.371094 554.996094 229.394531 556.066406 230.386719 557.164062 C 231.378906 558.261719 232.347656 559.378906 233.285156 560.523438 C 234.222656 561.667969 235.132812 562.832031 236.015625 564.023438 C 236.894531 565.210938 237.75 566.417969 238.570312 567.648438 C 239.390625 568.878906 240.183594 570.128906 240.945312 571.398438 C 241.703125 572.667969 242.433594 573.957031 243.132812 575.261719 C 243.828125 576.566406 244.492188 577.886719 245.125 579.222656 C 245.757812 580.5625 246.359375 581.914062 246.925781 583.28125 C 247.492188 584.648438 248.023438 586.027344 248.523438 587.421875 C 249.019531 588.8125 249.484375 590.21875 249.914062 591.632812 C 250.34375 593.050781 250.738281 594.476562 251.097656 595.910156 C 251.457031 597.347656 251.78125 598.789062 252.070312 600.242188 C 252.359375 601.691406 252.609375 603.148438 252.828125 604.613281 C 253.046875 606.078125 253.226562 607.542969 253.371094 609.015625 C 253.515625 610.488281 253.625 611.964844 253.699219 613.441406 C 253.769531 614.921875 253.808594 616.398438 253.808594 617.878906 Z M 253.808594 617.878906 " clip-rule="nonzero"/></clipPath><linearGradient x1="87.103824" gradientTransform="matrix(0.689096, 0, 0, 0.689096, 72.987945, 527.469556)" y1="-24.631671" x2="175.208224" gradientUnits="userSpaceOnUse" y2="286.928194" id="c701ada37f"><stop stop-opacity="1" stop-color="rgb(1.998901%, 55.299377%, 84.698486%)" offset="0"/><stop stop-opacity="1" stop-color="rgb(1.998901%, 55.299377%, 84.698486%)" offset="0.125"/><stop stop-opacity="1" stop-color="rgb(1.998901%, 55.299377%, 84.698486%)" offset="0.140625"/><stop stop-opacity="1" stop-color="rgb(2.046204%, 55.322266%, 84.614563%)" offset="0.148438"/><stop stop-opacity="1" stop-color="rgb(2.339172%, 55.459595%, 84.106445%)" offset="0.152344"/><stop stop-opacity="1" stop-color="rgb(2.583313%, 55.575562%, 83.680725%)" offset="0.15625"/><stop stop-opacity="1" stop-color="rgb(2.827454%, 55.691528%, 83.253479%)" offset="0.160156"/><stop stop-opacity="1" stop-color="rgb(3.07312%, 55.807495%, 82.827759%)" offset="0.164063"/><stop stop-opacity="1" stop-color="rgb(3.317261%, 55.921936%, 82.402039%)" offset="0.167969"/><stop stop-opacity="1" stop-color="rgb(3.562927%, 56.037903%, 81.976318%)" offset="0.171875"/><stop stop-opacity="1" stop-color="rgb(3.807068%, 56.15387%, 81.549072%)" offset="0.175781"/><stop stop-opacity="1" stop-color="rgb(4.051208%, 56.269836%, 81.123352%)" offset="0.179688"/><stop stop-opacity="1" stop-color="rgb(4.295349%, 56.384277%, 80.696106%)" offset="0.183594"/><stop stop-opacity="1" stop-color="rgb(4.541016%, 56.500244%, 80.270386%)" offset="0.1875"/><stop stop-opacity="1" stop-color="rgb(4.785156%, 56.616211%, 79.844666%)" offset="0.191406"/><stop stop-opacity="1" stop-color="rgb(5.030823%, 56.732178%, 79.418945%)" offset="0.195312"/><stop stop-opacity="1" stop-color="rgb(5.274963%, 56.848145%, 78.991699%)" offset="0.199219"/><stop stop-opacity="1" stop-color="rgb(5.519104%, 56.964111%, 78.565979%)" offset="0.203125"/><stop stop-opacity="1" stop-color="rgb(5.763245%, 57.078552%, 78.140259%)" offset="0.207031"/><stop stop-opacity="1" stop-color="rgb(6.008911%, 57.194519%, 77.714539%)" offset="0.210938"/><stop stop-opacity="1" stop-color="rgb(6.253052%, 57.310486%, 77.287292%)" offset="0.214844"/><stop stop-opacity="1" stop-color="rgb(6.498718%, 57.426453%, 76.861572%)" offset="0.21875"/><stop stop-opacity="1" stop-color="rgb(6.742859%, 57.540894%, 76.434326%)" offset="0.222656"/><stop stop-opacity="1" stop-color="rgb(6.987%, 57.65686%, 76.008606%)" offset="0.226562"/><stop stop-opacity="1" stop-color="rgb(7.23114%, 57.772827%, 75.582886%)" offset="0.230469"/><stop stop-opacity="1" stop-color="rgb(7.476807%, 57.888794%, 75.157166%)" offset="0.234375"/><stop stop-opacity="1" stop-color="rgb(7.720947%, 58.004761%, 74.729919%)" offset="0.238281"/><stop stop-opacity="1" stop-color="rgb(7.966614%, 58.120728%, 74.304199%)" offset="0.242188"/><stop stop-opacity="1" stop-color="rgb(8.210754%, 58.235168%, 73.878479%)" offset="0.246094"/><stop stop-opacity="1" stop-color="rgb(8.454895%, 58.351135%, 73.452759%)" offset="0.25"/><stop stop-opacity="1" stop-color="rgb(8.699036%, 58.467102%, 73.025513%)" offset="0.253906"/><stop stop-opacity="1" stop-color="rgb(8.944702%, 58.583069%, 72.599792%)" offset="0.257812"/><stop stop-opacity="1" stop-color="rgb(9.188843%, 58.69751%, 72.174072%)" offset="0.261719"/><stop stop-opacity="1" stop-color="rgb(9.432983%, 58.813477%, 71.748352%)" offset="0.265625"/><stop stop-opacity="1" stop-color="rgb(9.677124%, 58.929443%, 71.321106%)" offset="0.269531"/><stop stop-opacity="1" stop-color="rgb(9.922791%, 59.04541%, 70.895386%)" offset="0.273438"/><stop stop-opacity="1" stop-color="rgb(10.166931%, 59.161377%, 70.46814%)" offset="0.277344"/><stop stop-opacity="1" stop-color="rgb(10.412598%, 59.277344%, 70.042419%)" offset="0.28125"/><stop stop-opacity="1" stop-color="rgb(10.656738%, 59.391785%, 69.616699%)" offset="0.285156"/><stop stop-opacity="1" stop-color="rgb(10.900879%, 59.507751%, 69.190979%)" offset="0.289062"/><stop stop-opacity="1" stop-color="rgb(11.14502%, 59.623718%, 68.763733%)" offset="0.292969"/><stop stop-opacity="1" stop-color="rgb(11.390686%, 59.739685%, 68.338013%)" offset="0.296875"/><stop stop-opacity="1" stop-color="rgb(11.634827%, 59.854126%, 67.912292%)" offset="0.300781"/><stop stop-opacity="1" stop-color="rgb(11.880493%, 59.970093%, 67.486572%)" offset="0.304688"/><stop stop-opacity="1" stop-color="rgb(12.124634%, 60.08606%, 67.059326%)" offset="0.308594"/><stop stop-opacity="1" stop-color="rgb(12.368774%, 60.202026%, 66.633606%)" offset="0.3125"/><stop stop-opacity="1" stop-color="rgb(12.612915%, 60.317993%, 66.20636%)" offset="0.316406"/><stop stop-opacity="1" stop-color="rgb(12.858582%, 60.43396%, 65.78064%)" offset="0.320312"/><stop stop-opacity="1" stop-color="rgb(13.102722%, 60.548401%, 65.354919%)" offset="0.324219"/><stop stop-opacity="1" stop-color="rgb(13.348389%, 60.664368%, 64.929199%)" offset="0.328125"/><stop stop-opacity="1" stop-color="rgb(13.592529%, 60.780334%, 64.501953%)" offset="0.332031"/><stop stop-opacity="1" stop-color="rgb(13.83667%, 60.896301%, 64.076233%)" offset="0.335938"/><stop stop-opacity="1" stop-color="rgb(14.080811%, 61.010742%, 63.650513%)" offset="0.339844"/><stop stop-opacity="1" stop-color="rgb(14.326477%, 61.126709%, 63.224792%)" offset="0.34375"/><stop stop-opacity="1" stop-color="rgb(14.570618%, 61.242676%, 62.797546%)" offset="0.347656"/><stop stop-opacity="1" stop-color="rgb(14.814758%, 61.358643%, 62.371826%)" offset="0.351563"/><stop stop-opacity="1" stop-color="rgb(15.058899%, 61.473083%, 61.94458%)" offset="0.355469"/><stop stop-opacity="1" stop-color="rgb(15.304565%, 61.58905%, 61.51886%)" offset="0.359375"/><stop stop-opacity="1" stop-color="rgb(15.548706%, 61.705017%, 61.09314%)" offset="0.363281"/><stop stop-opacity="1" stop-color="rgb(15.794373%, 61.820984%, 60.667419%)" offset="0.367188"/><stop stop-opacity="1" stop-color="rgb(16.038513%, 61.936951%, 60.240173%)" offset="0.371094"/><stop stop-opacity="1" stop-color="rgb(16.282654%, 62.052917%, 59.814453%)" offset="0.375"/><stop stop-opacity="1" stop-color="rgb(16.526794%, 62.167358%, 59.388733%)" offset="0.378906"/><stop stop-opacity="1" stop-color="rgb(16.772461%, 62.283325%, 58.963013%)" offset="0.382813"/><stop stop-opacity="1" stop-color="rgb(17.016602%, 62.399292%, 58.535767%)" offset="0.386719"/><stop stop-opacity="1" stop-color="rgb(17.262268%, 62.515259%, 58.110046%)" offset="0.390625"/><stop stop-opacity="1" stop-color="rgb(17.506409%, 62.6297%, 57.684326%)" offset="0.394531"/><stop stop-opacity="1" stop-color="rgb(17.750549%, 62.745667%, 57.258606%)" offset="0.398438"/><stop stop-opacity="1" stop-color="rgb(17.99469%, 62.861633%, 56.83136%)" offset="0.402344"/><stop stop-opacity="1" stop-color="rgb(18.240356%, 62.9776%, 56.40564%)" offset="0.40625"/><stop stop-opacity="1" stop-color="rgb(18.484497%, 63.093567%, 55.978394%)" offset="0.410156"/><stop stop-opacity="1" stop-color="rgb(18.730164%, 63.209534%, 55.552673%)" offset="0.414062"/><stop stop-opacity="1" stop-color="rgb(18.974304%, 63.323975%, 55.126953%)" offset="0.417969"/><stop stop-opacity="1" stop-color="rgb(19.218445%, 63.439941%, 54.701233%)" offset="0.421875"/><stop stop-opacity="1" stop-color="rgb(19.462585%, 63.555908%, 54.273987%)" offset="0.425781"/><stop stop-opacity="1" stop-color="rgb(19.708252%, 63.671875%, 53.848267%)" offset="0.429688"/><stop stop-opacity="1" stop-color="rgb(19.952393%, 63.786316%, 53.422546%)" offset="0.433594"/><stop stop-opacity="1" stop-color="rgb(20.196533%, 63.902283%, 52.996826%)" offset="0.4375"/><stop stop-opacity="1" stop-color="rgb(20.440674%, 64.01825%, 52.56958%)" offset="0.441406"/><stop stop-opacity="1" stop-color="rgb(20.68634%, 64.134216%, 52.14386%)" offset="0.445313"/><stop stop-opacity="1" stop-color="rgb(20.930481%, 64.250183%, 51.716614%)" offset="0.449219"/><stop stop-opacity="1" stop-color="rgb(21.176147%, 64.36615%, 51.290894%)" offset="0.453125"/><stop stop-opacity="1" stop-color="rgb(21.420288%, 64.480591%, 50.865173%)" offset="0.457031"/><stop stop-opacity="1" stop-color="rgb(21.664429%, 64.596558%, 50.439453%)" offset="0.460938"/><stop stop-opacity="1" stop-color="rgb(21.908569%, 64.712524%, 50.012207%)" offset="0.464844"/><stop stop-opacity="1" stop-color="rgb(22.154236%, 64.828491%, 49.586487%)" offset="0.46875"/><stop stop-opacity="1" stop-color="rgb(22.398376%, 64.942932%, 49.160767%)" offset="0.472656"/><stop stop-opacity="1" stop-color="rgb(22.644043%, 65.058899%, 48.735046%)" offset="0.476562"/><stop stop-opacity="1" stop-color="rgb(22.888184%, 65.174866%, 48.3078%)" offset="0.480469"/><stop stop-opacity="1" stop-color="rgb(23.132324%, 65.290833%, 47.88208%)" offset="0.484375"/><stop stop-opacity="1" stop-color="rgb(23.376465%, 65.406799%, 47.454834%)" offset="0.488281"/><stop stop-opacity="1" stop-color="rgb(23.622131%, 65.522766%, 47.029114%)" offset="0.492188"/><stop stop-opacity="1" stop-color="rgb(23.866272%, 65.637207%, 46.603394%)" offset="0.496094"/><stop stop-opacity="1" stop-color="rgb(24.111938%, 65.753174%, 46.177673%)" offset="0.5"/><stop stop-opacity="1" stop-color="rgb(24.356079%, 65.869141%, 45.750427%)" offset="0.503906"/><stop stop-opacity="1" stop-color="rgb(24.60022%, 65.985107%, 45.324707%)" offset="0.507812"/><stop stop-opacity="1" stop-color="rgb(24.84436%, 66.099548%, 44.898987%)" offset="0.511719"/><stop stop-opacity="1" stop-color="rgb(25.090027%, 66.215515%, 44.473267%)" offset="0.515625"/><stop stop-opacity="1" stop-color="rgb(25.334167%, 66.331482%, 44.046021%)" offset="0.519531"/><stop stop-opacity="1" stop-color="rgb(25.578308%, 66.447449%, 43.6203%)" offset="0.523438"/><stop stop-opacity="1" stop-color="rgb(25.822449%, 66.56189%, 43.193054%)" offset="0.527344"/><stop stop-opacity="1" stop-color="rgb(26.068115%, 66.677856%, 42.767334%)" offset="0.53125"/><stop stop-opacity="1" stop-color="rgb(26.312256%, 66.793823%, 42.341614%)" offset="0.535156"/><stop stop-opacity="1" stop-color="rgb(26.557922%, 66.90979%, 41.915894%)" offset="0.539062"/><stop stop-opacity="1" stop-color="rgb(26.802063%, 67.025757%, 41.488647%)" offset="0.542969"/><stop stop-opacity="1" stop-color="rgb(27.046204%, 67.141724%, 41.062927%)" offset="0.546875"/><stop stop-opacity="1" stop-color="rgb(27.290344%, 67.256165%, 40.637207%)" offset="0.550781"/><stop stop-opacity="1" stop-color="rgb(27.536011%, 67.372131%, 40.211487%)" offset="0.554688"/><stop stop-opacity="1" stop-color="rgb(27.780151%, 67.488098%, 39.784241%)" offset="0.558594"/><stop stop-opacity="1" stop-color="rgb(28.025818%, 67.604065%, 39.358521%)" offset="0.5625"/><stop stop-opacity="1" stop-color="rgb(28.269958%, 67.718506%, 38.9328%)" offset="0.566406"/><stop stop-opacity="1" stop-color="rgb(28.514099%, 67.834473%, 38.50708%)" offset="0.570312"/><stop stop-opacity="1" stop-color="rgb(28.75824%, 67.950439%, 38.079834%)" offset="0.574219"/><stop stop-opacity="1" stop-color="rgb(29.003906%, 68.066406%, 37.654114%)" offset="0.578125"/><stop stop-opacity="1" stop-color="rgb(29.248047%, 68.182373%, 37.226868%)" offset="0.582031"/><stop stop-opacity="1" stop-color="rgb(29.493713%, 68.29834%, 36.801147%)" offset="0.585938"/><stop stop-opacity="1" stop-color="rgb(29.737854%, 68.412781%, 36.375427%)" offset="0.589844"/><stop stop-opacity="1" stop-color="rgb(29.981995%, 68.528748%, 35.949707%)" offset="0.59375"/><stop stop-opacity="1" stop-color="rgb(30.226135%, 68.644714%, 35.522461%)" offset="0.597656"/><stop stop-opacity="1" stop-color="rgb(30.471802%, 68.760681%, 35.096741%)" offset="0.601563"/><stop stop-opacity="1" stop-color="rgb(30.715942%, 68.875122%, 34.671021%)" offset="0.605469"/><stop stop-opacity="1" stop-color="rgb(30.960083%, 68.991089%, 34.2453%)" offset="0.609375"/><stop stop-opacity="1" stop-color="rgb(31.204224%, 69.107056%, 33.818054%)" offset="0.613281"/><stop stop-opacity="1" stop-color="rgb(31.44989%, 69.223022%, 33.392334%)" offset="0.617188"/><stop stop-opacity="1" stop-color="rgb(31.694031%, 69.338989%, 32.965088%)" offset="0.621094"/><stop stop-opacity="1" stop-color="rgb(31.939697%, 69.454956%, 32.539368%)" offset="0.625"/><stop stop-opacity="1" stop-color="rgb(32.183838%, 69.569397%, 32.113647%)" offset="0.628906"/><stop stop-opacity="1" stop-color="rgb(32.427979%, 69.685364%, 31.687927%)" offset="0.632812"/><stop stop-opacity="1" stop-color="rgb(32.672119%, 69.801331%, 31.260681%)" offset="0.636719"/><stop stop-opacity="1" stop-color="rgb(32.917786%, 69.917297%, 30.834961%)" offset="0.640625"/><stop stop-opacity="1" stop-color="rgb(33.161926%, 70.031738%, 30.409241%)" offset="0.644531"/><stop stop-opacity="1" stop-color="rgb(33.407593%, 70.147705%, 29.983521%)" offset="0.648438"/><stop stop-opacity="1" stop-color="rgb(33.651733%, 70.263672%, 29.556274%)" offset="0.652344"/><stop stop-opacity="1" stop-color="rgb(33.895874%, 70.379639%, 29.130554%)" offset="0.65625"/><stop stop-opacity="1" stop-color="rgb(34.140015%, 70.495605%, 28.703308%)" offset="0.660156"/><stop stop-opacity="1" stop-color="rgb(34.385681%, 70.611572%, 28.277588%)" offset="0.664062"/><stop stop-opacity="1" stop-color="rgb(34.629822%, 70.726013%, 27.851868%)" offset="0.667969"/><stop stop-opacity="1" stop-color="rgb(34.875488%, 70.84198%, 27.426147%)" offset="0.671875"/><stop stop-opacity="1" stop-color="rgb(35.119629%, 70.957947%, 26.998901%)" offset="0.675781"/><stop stop-opacity="1" stop-color="rgb(35.36377%, 71.073914%, 26.573181%)" offset="0.679688"/><stop stop-opacity="1" stop-color="rgb(35.60791%, 71.188354%, 26.147461%)" offset="0.683594"/><stop stop-opacity="1" stop-color="rgb(35.853577%, 71.304321%, 25.721741%)" offset="0.6875"/><stop stop-opacity="1" stop-color="rgb(36.097717%, 71.420288%, 25.294495%)" offset="0.691406"/><stop stop-opacity="1" stop-color="rgb(36.341858%, 71.536255%, 24.868774%)" offset="0.695313"/><stop stop-opacity="1" stop-color="rgb(36.585999%, 71.650696%, 24.443054%)" offset="0.699219"/><stop stop-opacity="1" stop-color="rgb(36.831665%, 71.766663%, 24.017334%)" offset="0.703125"/><stop stop-opacity="1" stop-color="rgb(36.865234%, 71.781921%, 23.957825%)" offset="0.71875"/><stop stop-opacity="1" stop-color="rgb(36.898804%, 71.798706%, 23.899841%)" offset="0.75"/><stop stop-opacity="1" stop-color="rgb(36.898804%, 71.798706%, 23.899841%)" offset="0.779554"/><stop stop-opacity="1" stop-color="rgb(36.898804%, 71.798706%, 23.899841%)" offset="1"/></linearGradient><clipPath id="f4568ae084"><path d="M 80 535 L 246 535 L 246 701 L 80 701 Z M 80 535 " clip-rule="nonzero"/></clipPath><clipPath id="cddd215613"><path d="M 245.882812 617.878906 C 245.882812 619.230469 245.847656 620.578125 245.78125 621.925781 C 245.714844 623.273438 245.617188 624.621094 245.484375 625.964844 C 245.351562 627.308594 245.1875 628.648438 244.988281 629.980469 C 244.792969 631.316406 244.5625 632.648438 244.296875 633.972656 C 244.035156 635.296875 243.738281 636.613281 243.410156 637.921875 C 243.082031 639.230469 242.722656 640.53125 242.332031 641.824219 C 241.9375 643.113281 241.515625 644.394531 241.058594 645.667969 C 240.605469 646.9375 240.121094 648.199219 239.601562 649.445312 C 239.085938 650.691406 238.539062 651.925781 237.960938 653.144531 C 237.386719 654.367188 236.777344 655.570312 236.140625 656.761719 C 235.507812 657.953125 234.839844 659.125 234.148438 660.285156 C 233.453125 661.441406 232.730469 662.582031 231.980469 663.707031 C 231.230469 664.828125 230.453125 665.929688 229.648438 667.015625 C 228.84375 668.097656 228.015625 669.164062 227.160156 670.207031 C 226.300781 671.25 225.421875 672.273438 224.515625 673.273438 C 223.609375 674.273438 222.675781 675.25 221.722656 676.203125 C 220.769531 677.160156 219.792969 678.089844 218.789062 678.996094 C 217.789062 679.902344 216.769531 680.785156 215.726562 681.640625 C 214.683594 682.496094 213.617188 683.328125 212.535156 684.132812 C 211.449219 684.9375 210.347656 685.710938 209.222656 686.460938 C 208.101562 687.210938 206.960938 687.933594 205.804688 688.628906 C 204.644531 689.324219 203.472656 689.988281 202.28125 690.625 C 201.089844 691.261719 199.882812 691.867188 198.664062 692.445312 C 197.445312 693.023438 196.210938 693.570312 194.964844 694.085938 C 193.714844 694.601562 192.457031 695.085938 191.1875 695.542969 C 189.914062 695.996094 188.632812 696.421875 187.339844 696.8125 C 186.050781 697.203125 184.75 697.5625 183.441406 697.890625 C 182.128906 698.21875 180.8125 698.515625 179.488281 698.777344 C 178.164062 699.042969 176.835938 699.273438 175.5 699.472656 C 174.164062 699.667969 172.824219 699.835938 171.480469 699.964844 C 170.140625 700.097656 168.792969 700.199219 167.445312 700.265625 C 166.097656 700.332031 164.746094 700.363281 163.398438 700.363281 C 162.046875 700.363281 160.699219 700.332031 159.351562 700.265625 C 158 700.199219 156.65625 700.097656 155.3125 699.964844 C 153.96875 699.835938 152.628906 699.667969 151.292969 699.472656 C 149.960938 699.273438 148.628906 699.042969 147.304688 698.777344 C 145.980469 698.515625 144.664062 698.21875 143.355469 697.890625 C 142.046875 697.5625 140.746094 697.203125 139.453125 696.8125 C 138.160156 696.421875 136.878906 695.996094 135.609375 695.542969 C 134.339844 695.085938 133.078125 694.601562 131.832031 694.085938 C 130.585938 693.570312 129.351562 693.023438 128.128906 692.445312 C 126.910156 691.867188 125.703125 691.261719 124.515625 690.625 C 123.324219 689.988281 122.148438 689.324219 120.992188 688.628906 C 119.832031 687.933594 118.695312 687.210938 117.570312 686.460938 C 116.449219 685.710938 115.34375 684.9375 114.261719 684.132812 C 113.175781 683.328125 112.113281 682.496094 111.070312 681.640625 C 110.027344 680.785156 109.003906 679.902344 108.003906 678.996094 C 107.003906 678.089844 106.027344 677.160156 105.070312 676.203125 C 104.117188 675.25 103.1875 674.273438 102.28125 673.273438 C 101.375 672.273438 100.492188 671.25 99.636719 670.207031 C 98.78125 669.164062 97.949219 668.097656 97.144531 667.015625 C 96.339844 665.929688 95.5625 664.828125 94.8125 663.707031 C 94.0625 662.582031 93.339844 661.441406 92.648438 660.285156 C 91.953125 659.125 91.289062 657.953125 90.652344 656.761719 C 90.015625 655.570312 89.410156 654.367188 88.832031 653.144531 C 88.253906 651.925781 87.707031 650.691406 87.191406 649.445312 C 86.675781 648.199219 86.1875 646.9375 85.734375 645.667969 C 85.28125 644.394531 84.855469 643.113281 84.464844 641.824219 C 84.074219 640.53125 83.710938 639.230469 83.382812 637.921875 C 83.054688 636.613281 82.761719 635.296875 82.496094 633.972656 C 82.234375 632.648438 82.003906 631.316406 81.804688 629.980469 C 81.605469 628.648438 81.441406 627.308594 81.308594 625.964844 C 81.175781 624.621094 81.078125 623.273438 81.011719 621.925781 C 80.945312 620.578125 80.914062 619.230469 80.914062 617.878906 C 80.914062 616.527344 80.945312 615.179688 81.011719 613.832031 C 81.078125 612.484375 81.175781 611.136719 81.308594 609.792969 C 81.441406 608.449219 81.605469 607.109375 81.804688 605.777344 C 82.003906 604.441406 82.234375 603.109375 82.496094 601.785156 C 82.761719 600.464844 83.054688 599.144531 83.382812 597.835938 C 83.710938 596.527344 84.074219 595.226562 84.464844 593.933594 C 84.855469 592.644531 85.28125 591.363281 85.734375 590.089844 C 86.1875 588.820312 86.675781 587.5625 87.191406 586.3125 C 87.707031 585.066406 88.253906 583.832031 88.832031 582.613281 C 89.410156 581.390625 90.015625 580.1875 90.652344 578.996094 C 91.289062 577.804688 91.953125 576.632812 92.648438 575.472656 C 93.339844 574.316406 94.0625 573.175781 94.8125 572.054688 C 95.5625 570.929688 96.339844 569.828125 97.144531 568.742188 C 97.949219 567.660156 98.78125 566.59375 99.636719 565.550781 C 100.492188 564.507812 101.375 563.484375 102.28125 562.484375 C 103.1875 561.484375 104.117188 560.507812 105.070312 559.554688 C 106.027344 558.597656 107.003906 557.667969 108.003906 556.761719 C 109.003906 555.855469 110.027344 554.972656 111.070312 554.117188 C 112.113281 553.261719 113.175781 552.429688 114.261719 551.625 C 115.34375 550.824219 116.449219 550.046875 117.570312 549.296875 C 118.695312 548.546875 119.832031 547.824219 120.992188 547.128906 C 122.148438 546.433594 123.324219 545.769531 124.515625 545.132812 C 125.703125 544.496094 126.910156 543.890625 128.128906 543.3125 C 129.351562 542.738281 130.585938 542.191406 131.832031 541.671875 C 133.078125 541.15625 134.339844 540.671875 135.609375 540.214844 C 136.878906 539.761719 138.160156 539.335938 139.453125 538.945312 C 140.746094 538.554688 142.046875 538.195312 143.355469 537.867188 C 144.664062 537.539062 145.980469 537.242188 147.304688 536.980469 C 148.628906 536.714844 149.960938 536.484375 151.292969 536.285156 C 152.628906 536.089844 153.96875 535.921875 155.3125 535.792969 C 156.65625 535.660156 158 535.558594 159.351562 535.492188 C 160.699219 535.425781 162.046875 535.394531 163.398438 535.394531 C 164.746094 535.394531 166.097656 535.425781 167.445312 535.492188 C 168.792969 535.558594 170.140625 535.660156 171.480469 535.792969 C 172.824219 535.921875 174.164062 536.089844 175.5 536.285156 C 176.835938 536.484375 178.164062 536.714844 179.488281 536.980469 C 180.8125 537.242188 182.128906 537.539062 183.441406 537.867188 C 184.75 538.195312 186.050781 538.554688 187.339844 538.945312 C 188.632812 539.335938 189.914062 539.761719 191.1875 540.214844 C 192.457031 540.671875 193.714844 541.15625 194.964844 541.671875 C 196.210938 542.191406 197.445312 542.738281 198.664062 543.3125 C 199.882812 543.890625 201.089844 544.496094 202.28125 545.132812 C 203.472656 545.769531 204.644531 546.433594 205.804688 547.128906 C 206.960938 547.824219 208.101562 548.546875 209.222656 549.296875 C 210.347656 550.046875 211.449219 550.824219 212.535156 551.625 C 213.617188 552.429688 214.683594 553.261719 215.726562 554.117188 C 216.769531 554.972656 217.789062 555.855469 218.789062 556.761719 C 219.792969 557.667969 220.769531 558.597656 221.722656 559.554688 C 222.675781 560.507812 223.609375 561.484375 224.515625 562.484375 C 225.421875 563.484375 226.300781 564.507812 227.160156 565.550781 C 228.015625 566.59375 228.84375 567.660156 229.648438 568.742188 C 230.453125 569.828125 231.230469 570.929688 231.980469 572.054688 C 232.730469 573.175781 233.453125 574.316406 234.148438 575.472656 C 234.839844 576.632812 235.507812 577.804688 236.140625 578.996094 C 236.777344 580.1875 237.386719 581.390625 237.960938 582.613281 C 238.539062 583.832031 239.085938 585.066406 239.601562 586.3125 C 240.121094 587.5625 240.605469 588.820312 241.058594 590.089844 C 241.515625 591.363281 241.9375 592.644531 242.332031 593.933594 C 242.722656 595.226562 243.082031 596.527344 243.410156 597.835938 C 243.738281 599.144531 244.035156 600.464844 244.296875 601.785156 C 244.5625 603.109375 244.792969 604.441406 244.988281 605.777344 C 245.1875 607.109375 245.351562 608.449219 245.484375 609.792969 C 245.617188 611.136719 245.714844 612.484375 245.78125 613.832031 C 245.847656 615.179688 245.882812 616.527344 245.882812 617.878906 Z M 245.882812 617.878906 " clip-rule="nonzero"/></clipPath><linearGradient x1="175.507982" gradientTransform="matrix(0.689096, 0, 0, 0.689096, 72.987945, 527.469556)" y1="274.264209" x2="86.840707" gradientUnits="userSpaceOnUse" y2="-11.848376" id="88ca57aa2a"><stop stop-opacity="1" stop-color="rgb(1.998901%, 55.299377%, 84.698486%)" offset="0"/><stop stop-opacity="1" stop-color="rgb(1.998901%, 55.299377%, 84.698486%)" offset="0.0625"/><stop stop-opacity="1" stop-color="rgb(1.998901%, 55.299377%, 84.698486%)" offset="0.09375"/><stop stop-opacity="1" stop-color="rgb(2.090454%, 55.342102%, 84.538269%)" offset="0.109375"/><stop stop-opacity="1" stop-color="rgb(2.359009%, 55.46875%, 84.072876%)" offset="0.113281"/><stop stop-opacity="1" stop-color="rgb(2.534485%, 55.552673%, 83.7677%)" offset="0.117188"/><stop stop-opacity="1" stop-color="rgb(2.708435%, 55.635071%, 83.462524%)" offset="0.121094"/><stop stop-opacity="1" stop-color="rgb(2.883911%, 55.717468%, 83.157349%)" offset="0.125"/><stop stop-opacity="1" stop-color="rgb(3.059387%, 55.799866%, 82.852173%)" offset="0.128906"/><stop stop-opacity="1" stop-color="rgb(3.234863%, 55.883789%, 82.546997%)" offset="0.132813"/><stop stop-opacity="1" stop-color="rgb(3.408813%, 55.966187%, 82.241821%)" offset="0.136719"/><stop stop-opacity="1" stop-color="rgb(3.58429%, 56.048584%, 81.936646%)" offset="0.140625"/><stop stop-opacity="1" stop-color="rgb(3.759766%, 56.130981%, 81.63147%)" offset="0.144531"/><stop stop-opacity="1" stop-color="rgb(3.935242%, 56.214905%, 81.326294%)" offset="0.148438"/><stop stop-opacity="1" stop-color="rgb(4.110718%, 56.297302%, 81.021118%)" offset="0.152344"/><stop stop-opacity="1" stop-color="rgb(4.286194%, 56.3797%, 80.715942%)" offset="0.15625"/><stop stop-opacity="1" stop-color="rgb(4.460144%, 56.462097%, 80.410767%)" offset="0.160156"/><stop stop-opacity="1" stop-color="rgb(4.63562%, 56.546021%, 80.105591%)" offset="0.164063"/><stop stop-opacity="1" stop-color="rgb(4.811096%, 56.628418%, 79.800415%)" offset="0.167969"/><stop stop-opacity="1" stop-color="rgb(4.986572%, 56.710815%, 79.496765%)" offset="0.171875"/><stop stop-opacity="1" stop-color="rgb(5.160522%, 56.793213%, 79.191589%)" offset="0.175781"/><stop stop-opacity="1" stop-color="rgb(5.335999%, 56.877136%, 78.886414%)" offset="0.179688"/><stop stop-opacity="1" stop-color="rgb(5.511475%, 56.959534%, 78.581238%)" offset="0.183594"/><stop stop-opacity="1" stop-color="rgb(5.686951%, 57.041931%, 78.276062%)" offset="0.1875"/><stop stop-opacity="1" stop-color="rgb(5.860901%, 57.124329%, 77.970886%)" offset="0.191406"/><stop stop-opacity="1" stop-color="rgb(6.036377%, 57.208252%, 77.66571%)" offset="0.195313"/><stop stop-opacity="1" stop-color="rgb(6.211853%, 57.290649%, 77.360535%)" offset="0.199219"/><stop stop-opacity="1" stop-color="rgb(6.387329%, 57.373047%, 77.055359%)" offset="0.203125"/><stop stop-opacity="1" stop-color="rgb(6.561279%, 57.455444%, 76.750183%)" offset="0.207031"/><stop stop-opacity="1" stop-color="rgb(6.736755%, 57.539368%, 76.445007%)" offset="0.210938"/><stop stop-opacity="1" stop-color="rgb(6.912231%, 57.621765%, 76.139832%)" offset="0.214844"/><stop stop-opacity="1" stop-color="rgb(7.087708%, 57.704163%, 75.834656%)" offset="0.21875"/><stop stop-opacity="1" stop-color="rgb(7.261658%, 57.78656%, 75.52948%)" offset="0.222656"/><stop stop-opacity="1" stop-color="rgb(7.437134%, 57.870483%, 75.224304%)" offset="0.226563"/><stop stop-opacity="1" stop-color="rgb(7.61261%, 57.952881%, 74.919128%)" offset="0.230469"/><stop stop-opacity="1" stop-color="rgb(7.788086%, 58.035278%, 74.613953%)" offset="0.234375"/><stop stop-opacity="1" stop-color="rgb(7.962036%, 58.117676%, 74.308777%)" offset="0.238281"/><stop stop-opacity="1" stop-color="rgb(8.137512%, 58.201599%, 74.005127%)" offset="0.242188"/><stop stop-opacity="1" stop-color="rgb(8.312988%, 58.283997%, 73.699951%)" offset="0.246094"/><stop stop-opacity="1" stop-color="rgb(8.488464%, 58.36792%, 73.394775%)" offset="0.25"/><stop stop-opacity="1" stop-color="rgb(8.66394%, 58.450317%, 73.0896%)" offset="0.253906"/><stop stop-opacity="1" stop-color="rgb(8.839417%, 58.532715%, 72.784424%)" offset="0.257812"/><stop stop-opacity="1" stop-color="rgb(9.013367%, 58.615112%, 72.479248%)" offset="0.261719"/><stop stop-opacity="1" stop-color="rgb(9.188843%, 58.699036%, 72.174072%)" offset="0.265625"/><stop stop-opacity="1" stop-color="rgb(9.364319%, 58.781433%, 71.868896%)" offset="0.269531"/><stop stop-opacity="1" stop-color="rgb(9.539795%, 58.863831%, 71.563721%)" offset="0.273438"/><stop stop-opacity="1" stop-color="rgb(9.713745%, 58.946228%, 71.258545%)" offset="0.277344"/><stop stop-opacity="1" stop-color="rgb(9.889221%, 59.030151%, 70.953369%)" offset="0.28125"/><stop stop-opacity="1" stop-color="rgb(10.064697%, 59.112549%, 70.648193%)" offset="0.285156"/><stop stop-opacity="1" stop-color="rgb(10.240173%, 59.194946%, 70.343018%)" offset="0.289062"/><stop stop-opacity="1" stop-color="rgb(10.414124%, 59.277344%, 70.037842%)" offset="0.292969"/><stop stop-opacity="1" stop-color="rgb(10.5896%, 59.361267%, 69.732666%)" offset="0.296875"/><stop stop-opacity="1" stop-color="rgb(10.765076%, 59.443665%, 69.42749%)" offset="0.300781"/><stop stop-opacity="1" stop-color="rgb(10.940552%, 59.526062%, 69.122314%)" offset="0.304688"/><stop stop-opacity="1" stop-color="rgb(11.114502%, 59.608459%, 68.817139%)" offset="0.308594"/><stop stop-opacity="1" stop-color="rgb(11.289978%, 59.692383%, 68.513489%)" offset="0.3125"/><stop stop-opacity="1" stop-color="rgb(11.465454%, 59.77478%, 68.208313%)" offset="0.316406"/><stop stop-opacity="1" stop-color="rgb(11.64093%, 59.857178%, 67.903137%)" offset="0.320312"/><stop stop-opacity="1" stop-color="rgb(11.81488%, 59.939575%, 67.597961%)" offset="0.324219"/><stop stop-opacity="1" stop-color="rgb(11.990356%, 60.023499%, 67.292786%)" offset="0.328125"/><stop stop-opacity="1" stop-color="rgb(12.165833%, 60.105896%, 66.98761%)" offset="0.332031"/><stop stop-opacity="1" stop-color="rgb(12.341309%, 60.188293%, 66.682434%)" offset="0.335938"/><stop stop-opacity="1" stop-color="rgb(12.515259%, 60.270691%, 66.377258%)" offset="0.339844"/><stop stop-opacity="1" stop-color="rgb(12.690735%, 60.354614%, 66.072083%)" offset="0.34375"/><stop stop-opacity="1" stop-color="rgb(12.866211%, 60.437012%, 65.766907%)" offset="0.347656"/><stop stop-opacity="1" stop-color="rgb(13.041687%, 60.519409%, 65.461731%)" offset="0.351563"/><stop stop-opacity="1" stop-color="rgb(13.217163%, 60.601807%, 65.156555%)" offset="0.355469"/><stop stop-opacity="1" stop-color="rgb(13.392639%, 60.68573%, 64.851379%)" offset="0.359375"/><stop stop-opacity="1" stop-color="rgb(13.566589%, 60.768127%, 64.546204%)" offset="0.363281"/><stop stop-opacity="1" stop-color="rgb(13.742065%, 60.850525%, 64.241028%)" offset="0.367188"/><stop stop-opacity="1" stop-color="rgb(13.917542%, 60.932922%, 63.935852%)" offset="0.371094"/><stop stop-opacity="1" stop-color="rgb(14.093018%, 61.016846%, 63.632202%)" offset="0.375"/><stop stop-opacity="1" stop-color="rgb(14.266968%, 61.099243%, 63.327026%)" offset="0.378906"/><stop stop-opacity="1" stop-color="rgb(14.442444%, 61.181641%, 63.021851%)" offset="0.382813"/><stop stop-opacity="1" stop-color="rgb(14.61792%, 61.264038%, 62.716675%)" offset="0.386719"/><stop stop-opacity="1" stop-color="rgb(14.793396%, 61.347961%, 62.411499%)" offset="0.390625"/><stop stop-opacity="1" stop-color="rgb(14.967346%, 61.430359%, 62.106323%)" offset="0.394531"/><stop stop-opacity="1" stop-color="rgb(15.142822%, 61.512756%, 61.801147%)" offset="0.398438"/><stop stop-opacity="1" stop-color="rgb(15.318298%, 61.595154%, 61.495972%)" offset="0.402344"/><stop stop-opacity="1" stop-color="rgb(15.493774%, 61.679077%, 61.190796%)" offset="0.40625"/><stop stop-opacity="1" stop-color="rgb(15.667725%, 61.761475%, 60.88562%)" offset="0.410156"/><stop stop-opacity="1" stop-color="rgb(15.843201%, 61.843872%, 60.580444%)" offset="0.414063"/><stop stop-opacity="1" stop-color="rgb(16.018677%, 61.92627%, 60.275269%)" offset="0.417969"/><stop stop-opacity="1" stop-color="rgb(16.194153%, 62.010193%, 59.970093%)" offset="0.421875"/><stop stop-opacity="1" stop-color="rgb(16.368103%, 62.09259%, 59.664917%)" offset="0.425781"/><stop stop-opacity="1" stop-color="rgb(16.543579%, 62.176514%, 59.359741%)" offset="0.429688"/><stop stop-opacity="1" stop-color="rgb(16.719055%, 62.258911%, 59.054565%)" offset="0.433594"/><stop stop-opacity="1" stop-color="rgb(16.894531%, 62.341309%, 58.74939%)" offset="0.4375"/><stop stop-opacity="1" stop-color="rgb(17.068481%, 62.423706%, 58.444214%)" offset="0.441406"/><stop stop-opacity="1" stop-color="rgb(17.243958%, 62.507629%, 58.140564%)" offset="0.445313"/><stop stop-opacity="1" stop-color="rgb(17.419434%, 62.590027%, 57.835388%)" offset="0.449219"/><stop stop-opacity="1" stop-color="rgb(17.59491%, 62.672424%, 57.530212%)" offset="0.453125"/><stop stop-opacity="1" stop-color="rgb(17.770386%, 62.754822%, 57.225037%)" offset="0.457031"/><stop stop-opacity="1" stop-color="rgb(17.945862%, 62.838745%, 56.919861%)" offset="0.460938"/><stop stop-opacity="1" stop-color="rgb(18.119812%, 62.921143%, 56.614685%)" offset="0.464844"/><stop stop-opacity="1" stop-color="rgb(18.295288%, 63.00354%, 56.309509%)" offset="0.46875"/><stop stop-opacity="1" stop-color="rgb(18.470764%, 63.085938%, 56.004333%)" offset="0.472656"/><stop stop-opacity="1" stop-color="rgb(18.64624%, 63.169861%, 55.699158%)" offset="0.476563"/><stop stop-opacity="1" stop-color="rgb(18.82019%, 63.252258%, 55.393982%)" offset="0.480469"/><stop stop-opacity="1" stop-color="rgb(18.995667%, 63.334656%, 55.088806%)" offset="0.484375"/><stop stop-opacity="1" stop-color="rgb(19.171143%, 63.417053%, 54.78363%)" offset="0.488281"/><stop stop-opacity="1" stop-color="rgb(19.346619%, 63.500977%, 54.478455%)" offset="0.492188"/><stop stop-opacity="1" stop-color="rgb(19.520569%, 63.583374%, 54.173279%)" offset="0.496094"/><stop stop-opacity="1" stop-color="rgb(19.696045%, 63.665771%, 53.868103%)" offset="0.5"/><stop stop-opacity="1" stop-color="rgb(19.871521%, 63.748169%, 53.562927%)" offset="0.503906"/><stop stop-opacity="1" stop-color="rgb(20.046997%, 63.832092%, 53.257751%)" offset="0.507813"/><stop stop-opacity="1" stop-color="rgb(20.220947%, 63.91449%, 52.952576%)" offset="0.511719"/><stop stop-opacity="1" stop-color="rgb(20.396423%, 63.996887%, 52.648926%)" offset="0.515625"/><stop stop-opacity="1" stop-color="rgb(20.571899%, 64.079285%, 52.34375%)" offset="0.519531"/><stop stop-opacity="1" stop-color="rgb(20.747375%, 64.163208%, 52.038574%)" offset="0.523438"/><stop stop-opacity="1" stop-color="rgb(20.921326%, 64.245605%, 51.733398%)" offset="0.527344"/><stop stop-opacity="1" stop-color="rgb(21.096802%, 64.328003%, 51.428223%)" offset="0.53125"/><stop stop-opacity="1" stop-color="rgb(21.272278%, 64.4104%, 51.123047%)" offset="0.535156"/><stop stop-opacity="1" stop-color="rgb(21.447754%, 64.494324%, 50.817871%)" offset="0.539063"/><stop stop-opacity="1" stop-color="rgb(21.621704%, 64.576721%, 50.512695%)" offset="0.542969"/><stop stop-opacity="1" stop-color="rgb(21.79718%, 64.659119%, 50.20752%)" offset="0.546875"/><stop stop-opacity="1" stop-color="rgb(21.972656%, 64.741516%, 49.902344%)" offset="0.550781"/><stop stop-opacity="1" stop-color="rgb(22.148132%, 64.825439%, 49.597168%)" offset="0.554688"/><stop stop-opacity="1" stop-color="rgb(22.323608%, 64.907837%, 49.291992%)" offset="0.558594"/><stop stop-opacity="1" stop-color="rgb(22.499084%, 64.990234%, 48.986816%)" offset="0.5625"/><stop stop-opacity="1" stop-color="rgb(22.673035%, 65.072632%, 48.681641%)" offset="0.566406"/><stop stop-opacity="1" stop-color="rgb(22.848511%, 65.156555%, 48.376465%)" offset="0.570313"/><stop stop-opacity="1" stop-color="rgb(23.023987%, 65.238953%, 48.071289%)" offset="0.574219"/><stop stop-opacity="1" stop-color="rgb(23.199463%, 65.32135%, 47.767639%)" offset="0.578125"/><stop stop-opacity="1" stop-color="rgb(23.373413%, 65.403748%, 47.462463%)" offset="0.582031"/><stop stop-opacity="1" stop-color="rgb(23.548889%, 65.487671%, 47.157288%)" offset="0.585938"/><stop stop-opacity="1" stop-color="rgb(23.724365%, 65.570068%, 46.852112%)" offset="0.589844"/><stop stop-opacity="1" stop-color="rgb(23.899841%, 65.652466%, 46.546936%)" offset="0.59375"/><stop stop-opacity="1" stop-color="rgb(24.073792%, 65.734863%, 46.24176%)" offset="0.597656"/><stop stop-opacity="1" stop-color="rgb(24.249268%, 65.818787%, 45.936584%)" offset="0.601562"/><stop stop-opacity="1" stop-color="rgb(24.424744%, 65.901184%, 45.631409%)" offset="0.605469"/><stop stop-opacity="1" stop-color="rgb(24.60022%, 65.985107%, 45.326233%)" offset="0.609375"/><stop stop-opacity="1" stop-color="rgb(24.77417%, 66.067505%, 45.021057%)" offset="0.613281"/><stop stop-opacity="1" stop-color="rgb(24.949646%, 66.149902%, 44.715881%)" offset="0.617188"/><stop stop-opacity="1" stop-color="rgb(25.125122%, 66.2323%, 44.410706%)" offset="0.621094"/><stop stop-opacity="1" stop-color="rgb(25.300598%, 66.316223%, 44.10553%)" offset="0.625"/><stop stop-opacity="1" stop-color="rgb(25.474548%, 66.398621%, 43.800354%)" offset="0.628906"/><stop stop-opacity="1" stop-color="rgb(25.650024%, 66.481018%, 43.495178%)" offset="0.632813"/><stop stop-opacity="1" stop-color="rgb(25.8255%, 66.563416%, 43.190002%)" offset="0.636719"/><stop stop-opacity="1" stop-color="rgb(26.000977%, 66.647339%, 42.884827%)" offset="0.640625"/><stop stop-opacity="1" stop-color="rgb(26.174927%, 66.729736%, 42.579651%)" offset="0.644531"/><stop stop-opacity="1" stop-color="rgb(26.350403%, 66.812134%, 42.276001%)" offset="0.648438"/><stop stop-opacity="1" stop-color="rgb(26.525879%, 66.894531%, 41.970825%)" offset="0.652344"/><stop stop-opacity="1" stop-color="rgb(26.701355%, 66.978455%, 41.665649%)" offset="0.65625"/><stop stop-opacity="1" stop-color="rgb(26.876831%, 67.060852%, 41.360474%)" offset="0.660156"/><stop stop-opacity="1" stop-color="rgb(27.052307%, 67.14325%, 41.055298%)" offset="0.664063"/><stop stop-opacity="1" stop-color="rgb(27.226257%, 67.225647%, 40.750122%)" offset="0.667969"/><stop stop-opacity="1" stop-color="rgb(27.401733%, 67.30957%, 40.444946%)" offset="0.671875"/><stop stop-opacity="1" stop-color="rgb(27.577209%, 67.391968%, 40.139771%)" offset="0.675781"/><stop stop-opacity="1" stop-color="rgb(27.752686%, 67.474365%, 39.834595%)" offset="0.679688"/><stop stop-opacity="1" stop-color="rgb(27.926636%, 67.556763%, 39.529419%)" offset="0.683594"/><stop stop-opacity="1" stop-color="rgb(28.102112%, 67.640686%, 39.224243%)" offset="0.6875"/><stop stop-opacity="1" stop-color="rgb(28.277588%, 67.723083%, 38.919067%)" offset="0.691406"/><stop stop-opacity="1" stop-color="rgb(28.453064%, 67.805481%, 38.613892%)" offset="0.695312"/><stop stop-opacity="1" stop-color="rgb(28.627014%, 67.887878%, 38.308716%)" offset="0.699219"/><stop stop-opacity="1" stop-color="rgb(28.80249%, 67.971802%, 38.00354%)" offset="0.703125"/><stop stop-opacity="1" stop-color="rgb(28.977966%, 68.054199%, 37.698364%)" offset="0.707031"/><stop stop-opacity="1" stop-color="rgb(29.153442%, 68.136597%, 37.393188%)" offset="0.710938"/><stop stop-opacity="1" stop-color="rgb(29.327393%, 68.218994%, 37.088013%)" offset="0.714844"/><stop stop-opacity="1" stop-color="rgb(29.502869%, 68.302917%, 36.784363%)" offset="0.71875"/><stop stop-opacity="1" stop-color="rgb(29.678345%, 68.385315%, 36.479187%)" offset="0.722656"/><stop stop-opacity="1" stop-color="rgb(29.853821%, 68.467712%, 36.174011%)" offset="0.726563"/><stop stop-opacity="1" stop-color="rgb(30.027771%, 68.55011%, 35.868835%)" offset="0.730469"/><stop stop-opacity="1" stop-color="rgb(30.203247%, 68.634033%, 35.56366%)" offset="0.734375"/><stop stop-opacity="1" stop-color="rgb(30.378723%, 68.716431%, 35.258484%)" offset="0.738281"/><stop stop-opacity="1" stop-color="rgb(30.554199%, 68.798828%, 34.953308%)" offset="0.742188"/><stop stop-opacity="1" stop-color="rgb(30.728149%, 68.881226%, 34.648132%)" offset="0.746094"/><stop stop-opacity="1" stop-color="rgb(30.903625%, 68.965149%, 34.342957%)" offset="0.75"/><stop stop-opacity="1" stop-color="rgb(31.079102%, 69.047546%, 34.037781%)" offset="0.753906"/><stop stop-opacity="1" stop-color="rgb(31.254578%, 69.129944%, 33.732605%)" offset="0.757813"/><stop stop-opacity="1" stop-color="rgb(31.430054%, 69.212341%, 33.427429%)" offset="0.761719"/><stop stop-opacity="1" stop-color="rgb(31.60553%, 69.296265%, 33.122253%)" offset="0.765625"/><stop stop-opacity="1" stop-color="rgb(31.77948%, 69.378662%, 32.817078%)" offset="0.769531"/><stop stop-opacity="1" stop-color="rgb(31.954956%, 69.46106%, 32.511902%)" offset="0.773438"/><stop stop-opacity="1" stop-color="rgb(32.130432%, 69.543457%, 32.206726%)" offset="0.777344"/><stop stop-opacity="1" stop-color="rgb(32.305908%, 69.62738%, 31.903076%)" offset="0.78125"/><stop stop-opacity="1" stop-color="rgb(32.479858%, 69.709778%, 31.5979%)" offset="0.785156"/><stop stop-opacity="1" stop-color="rgb(32.655334%, 69.792175%, 31.292725%)" offset="0.789063"/><stop stop-opacity="1" stop-color="rgb(32.830811%, 69.874573%, 30.987549%)" offset="0.792969"/><stop stop-opacity="1" stop-color="rgb(33.006287%, 69.958496%, 30.682373%)" offset="0.796875"/><stop stop-opacity="1" stop-color="rgb(33.180237%, 70.040894%, 30.377197%)" offset="0.800781"/><stop stop-opacity="1" stop-color="rgb(33.355713%, 70.124817%, 30.072021%)" offset="0.804688"/><stop stop-opacity="1" stop-color="rgb(33.531189%, 70.207214%, 29.766846%)" offset="0.808594"/><stop stop-opacity="1" stop-color="rgb(33.706665%, 70.289612%, 29.46167%)" offset="0.8125"/><stop stop-opacity="1" stop-color="rgb(33.880615%, 70.372009%, 29.156494%)" offset="0.816406"/><stop stop-opacity="1" stop-color="rgb(34.056091%, 70.455933%, 28.851318%)" offset="0.820312"/><stop stop-opacity="1" stop-color="rgb(34.231567%, 70.53833%, 28.546143%)" offset="0.824219"/><stop stop-opacity="1" stop-color="rgb(34.407043%, 70.620728%, 28.240967%)" offset="0.828125"/><stop stop-opacity="1" stop-color="rgb(34.580994%, 70.703125%, 27.935791%)" offset="0.832031"/><stop stop-opacity="1" stop-color="rgb(34.75647%, 70.787048%, 27.630615%)" offset="0.835938"/><stop stop-opacity="1" stop-color="rgb(34.931946%, 70.869446%, 27.325439%)" offset="0.839844"/><stop stop-opacity="1" stop-color="rgb(35.107422%, 70.951843%, 27.020264%)" offset="0.84375"/><stop stop-opacity="1" stop-color="rgb(35.281372%, 71.034241%, 26.715088%)" offset="0.847656"/><stop stop-opacity="1" stop-color="rgb(35.456848%, 71.118164%, 26.411438%)" offset="0.851562"/><stop stop-opacity="1" stop-color="rgb(35.632324%, 71.200562%, 26.106262%)" offset="0.855469"/><stop stop-opacity="1" stop-color="rgb(35.8078%, 71.282959%, 25.801086%)" offset="0.859375"/><stop stop-opacity="1" stop-color="rgb(35.983276%, 71.365356%, 25.495911%)" offset="0.863281"/><stop stop-opacity="1" stop-color="rgb(36.158752%, 71.44928%, 25.190735%)" offset="0.867187"/><stop stop-opacity="1" stop-color="rgb(36.332703%, 71.531677%, 24.885559%)" offset="0.871094"/><stop stop-opacity="1" stop-color="rgb(36.508179%, 71.614075%, 24.580383%)" offset="0.875"/><stop stop-opacity="1" stop-color="rgb(36.683655%, 71.696472%, 24.275208%)" offset="0.878906"/><stop stop-opacity="1" stop-color="rgb(36.859131%, 71.780396%, 23.970032%)" offset="0.882813"/><stop stop-opacity="1" stop-color="rgb(36.878967%, 71.789551%, 23.934937%)" offset="0.890625"/><stop stop-opacity="1" stop-color="rgb(36.898804%, 71.798706%, 23.899841%)" offset="0.90625"/><stop stop-opacity="1" stop-color="rgb(36.898804%, 71.798706%, 23.899841%)" offset="0.9375"/><stop stop-opacity="1" stop-color="rgb(36.898804%, 71.798706%, 23.899841%)" offset="1"/></linearGradient><clipPath id="9b34eb15b7"><path d="M 84 539 L 243 539 L 243 697 L 84 697 Z M 84 539 " clip-rule="nonzero"/></clipPath><clipPath id="c751218547"><path d="M 242.230469 617.878906 C 242.230469 619.167969 242.199219 620.457031 242.136719 621.746094 C 242.070312 623.035156 241.976562 624.320312 241.851562 625.605469 C 241.722656 626.890625 241.566406 628.171875 241.375 629.445312 C 241.1875 630.722656 240.96875 631.992188 240.714844 633.257812 C 240.464844 634.523438 240.179688 635.78125 239.867188 637.035156 C 239.554688 638.285156 239.210938 639.527344 238.835938 640.761719 C 238.460938 641.996094 238.054688 643.222656 237.621094 644.4375 C 237.1875 645.652344 236.722656 646.855469 236.230469 648.046875 C 235.734375 649.238281 235.210938 650.417969 234.660156 651.585938 C 234.109375 652.75 233.53125 653.902344 232.921875 655.039062 C 232.3125 656.179688 231.675781 657.300781 231.015625 658.40625 C 230.351562 659.511719 229.660156 660.601562 228.945312 661.675781 C 228.226562 662.75 227.484375 663.804688 226.714844 664.839844 C 225.949219 665.875 225.15625 666.890625 224.335938 667.890625 C 223.515625 668.886719 222.675781 669.863281 221.808594 670.820312 C 220.941406 671.777344 220.054688 672.710938 219.140625 673.621094 C 218.226562 674.535156 217.292969 675.421875 216.339844 676.289062 C 215.382812 677.15625 214.40625 678 213.410156 678.816406 C 212.410156 679.636719 211.394531 680.429688 210.359375 681.199219 C 209.320312 681.964844 208.265625 682.710938 207.195312 683.425781 C 206.121094 684.144531 205.03125 684.832031 203.925781 685.496094 C 202.820312 686.160156 201.695312 686.796875 200.558594 687.402344 C 199.421875 688.011719 198.269531 688.589844 197.101562 689.144531 C 195.9375 689.695312 194.757812 690.21875 193.566406 690.710938 C 192.375 691.203125 191.171875 691.667969 189.957031 692.101562 C 188.742188 692.539062 187.515625 692.941406 186.28125 693.316406 C 185.046875 693.691406 183.804688 694.035156 182.550781 694.347656 C 181.300781 694.664062 180.042969 694.945312 178.777344 695.195312 C 177.511719 695.449219 176.242188 695.667969 174.964844 695.859375 C 173.6875 696.046875 172.410156 696.207031 171.125 696.332031 C 169.839844 696.457031 168.554688 696.554688 167.265625 696.617188 C 165.976562 696.679688 164.6875 696.710938 163.398438 696.710938 C 162.105469 696.710938 160.816406 696.679688 159.527344 696.617188 C 158.242188 696.554688 156.953125 696.457031 155.671875 696.332031 C 154.386719 696.207031 153.105469 696.046875 151.832031 695.859375 C 150.554688 695.667969 149.285156 695.449219 148.019531 695.195312 C 146.753906 694.945312 145.492188 694.664062 144.242188 694.347656 C 142.992188 694.035156 141.75 693.691406 140.511719 693.316406 C 139.277344 692.941406 138.054688 692.539062 136.839844 692.101562 C 135.625 691.667969 134.421875 691.203125 133.230469 690.710938 C 132.039062 690.21875 130.859375 689.695312 129.691406 689.144531 C 128.527344 688.589844 127.375 688.011719 126.234375 687.402344 C 125.097656 686.796875 123.976562 686.160156 122.871094 685.496094 C 121.761719 684.832031 120.671875 684.144531 119.601562 683.425781 C 118.527344 682.710938 117.472656 681.964844 116.4375 681.199219 C 115.402344 680.429688 114.382812 679.636719 113.386719 678.816406 C 112.390625 678 111.414062 677.15625 110.457031 676.289062 C 109.5 675.421875 108.566406 674.535156 107.65625 673.621094 C 106.742188 672.710938 105.851562 671.777344 104.984375 670.820312 C 104.121094 669.863281 103.277344 668.886719 102.457031 667.890625 C 101.640625 666.890625 100.847656 665.875 100.078125 664.839844 C 99.308594 663.804688 98.566406 662.75 97.851562 661.675781 C 97.132812 660.601562 96.445312 659.511719 95.78125 658.40625 C 95.117188 657.300781 94.480469 656.179688 93.875 655.039062 C 93.265625 653.902344 92.683594 652.75 92.132812 651.585938 C 91.582031 650.417969 91.058594 649.238281 90.566406 648.046875 C 90.070312 646.855469 89.609375 645.652344 89.171875 644.4375 C 88.738281 643.222656 88.332031 641.996094 87.960938 640.761719 C 87.585938 639.527344 87.242188 638.285156 86.925781 637.035156 C 86.613281 635.78125 86.332031 634.523438 86.078125 633.257812 C 85.828125 631.992188 85.605469 630.722656 85.417969 629.445312 C 85.230469 628.171875 85.070312 626.890625 84.945312 625.605469 C 84.816406 624.320312 84.722656 623.035156 84.660156 621.746094 C 84.597656 620.457031 84.566406 619.167969 84.566406 617.878906 C 84.566406 616.589844 84.597656 615.300781 84.660156 614.011719 C 84.722656 612.722656 84.816406 611.4375 84.945312 610.152344 C 85.070312 608.867188 85.230469 607.589844 85.417969 606.3125 C 85.605469 605.035156 85.828125 603.765625 86.078125 602.5 C 86.332031 601.234375 86.613281 599.976562 86.925781 598.722656 C 87.242188 597.472656 87.585938 596.230469 87.960938 594.996094 C 88.332031 593.761719 88.738281 592.535156 89.171875 591.320312 C 89.609375 590.105469 90.070312 588.902344 90.566406 587.710938 C 91.058594 586.519531 91.582031 585.339844 92.132812 584.171875 C 92.683594 583.007812 93.265625 581.855469 93.875 580.71875 C 94.480469 579.578125 95.117188 578.457031 95.78125 577.351562 C 96.445312 576.246094 97.132812 575.15625 97.851562 574.082031 C 98.566406 573.007812 99.308594 571.953125 100.078125 570.917969 C 100.847656 569.882812 101.640625 568.867188 102.457031 567.867188 C 103.277344 566.871094 104.121094 565.894531 104.984375 564.9375 C 105.851562 563.980469 106.742188 563.046875 107.65625 562.136719 C 108.566406 561.222656 109.5 560.335938 110.457031 559.46875 C 111.414062 558.601562 112.390625 557.757812 113.386719 556.941406 C 114.382812 556.121094 115.402344 555.328125 116.4375 554.558594 C 117.472656 553.792969 118.527344 553.046875 119.601562 552.332031 C 120.671875 551.617188 121.761719 550.925781 122.871094 550.261719 C 123.976562 549.597656 125.097656 548.964844 126.234375 548.355469 C 127.375 547.746094 128.527344 547.167969 129.691406 546.613281 C 130.859375 546.0625 132.039062 545.539062 133.230469 545.046875 C 134.421875 544.554688 135.625 544.089844 136.839844 543.65625 C 138.054688 543.21875 139.277344 542.816406 140.511719 542.441406 C 141.75 542.066406 142.992188 541.722656 144.242188 541.410156 C 145.492188 541.09375 146.753906 540.8125 148.019531 540.5625 C 149.285156 540.308594 150.554688 540.089844 151.832031 539.898438 C 153.105469 539.710938 154.386719 539.550781 155.671875 539.425781 C 156.953125 539.300781 158.242188 539.203125 159.527344 539.140625 C 160.816406 539.078125 162.105469 539.046875 163.398438 539.046875 C 164.6875 539.046875 165.976562 539.078125 167.265625 539.140625 C 168.554688 539.203125 169.839844 539.300781 171.125 539.425781 C 172.410156 539.550781 173.6875 539.710938 174.964844 539.898438 C 176.242188 540.089844 177.511719 540.308594 178.777344 540.5625 C 180.042969 540.8125 181.300781 541.09375 182.550781 541.410156 C 183.804688 541.722656 185.046875 542.066406 186.28125 542.441406 C 187.515625 542.816406 188.742188 543.21875 189.957031 543.65625 C 191.171875 544.089844 192.375 544.554688 193.566406 545.046875 C 194.757812 545.539062 195.9375 546.0625 197.101562 546.613281 C 198.269531 547.167969 199.421875 547.746094 200.558594 548.355469 C 201.695312 548.964844 202.820312 549.597656 203.925781 550.261719 C 205.03125 550.925781 206.121094 551.617188 207.195312 552.332031 C 208.265625 553.046875 209.320312 553.792969 210.359375 554.558594 C 211.394531 555.328125 212.410156 556.121094 213.410156 556.941406 C 214.40625 557.757812 215.382812 558.601562 216.339844 559.46875 C 217.292969 560.335938 218.226562 561.222656 219.140625 562.136719 C 220.054688 563.046875 220.941406 563.980469 221.808594 564.9375 C 222.675781 565.894531 223.515625 566.871094 224.335938 567.867188 C 225.15625 568.867188 225.949219 569.882812 226.714844 570.917969 C 227.484375 571.953125 228.226562 573.007812 228.945312 574.082031 C 229.660156 575.15625 230.351562 576.246094 231.015625 577.351562 C 231.675781 578.457031 232.3125 579.578125 232.921875 580.71875 C 233.53125 581.855469 234.109375 583.007812 234.660156 584.171875 C 235.210938 585.339844 235.734375 586.519531 236.230469 587.710938 C 236.722656 588.902344 237.1875 590.105469 237.621094 591.320312 C 238.054688 592.535156 238.460938 593.761719 238.835938 594.996094 C 239.210938 596.230469 239.554688 597.472656 239.867188 598.722656 C 240.179688 599.976562 240.464844 601.234375 240.714844 602.5 C 240.96875 603.765625 241.1875 605.035156 241.375 606.3125 C 241.566406 607.589844 241.722656 608.867188 241.851562 610.152344 C 241.976562 611.4375 242.070312 612.722656 242.136719 614.011719 C 242.199219 615.300781 242.230469 616.589844 242.230469 617.878906 Z M 242.230469 617.878906 " clip-rule="nonzero"/></clipPath><linearGradient x1="-756.689956" gradientTransform="matrix(0.000000000000000042, 0.689096, -0.689096, 0.000000000000000042, -1177.990769, 1218.143965)" y1="-1946.55" x2="-985.489977" gradientUnits="userSpaceOnUse" y2="-1946.55" id="3188c924c8"><stop stop-opacity="1" stop-color="rgb(8.599854%, 17.599487%, 23.498535%)" offset="0"/><stop stop-opacity="1" stop-color="rgb(8.538818%, 17.478943%, 23.33374%)" offset="0.03125"/><stop stop-opacity="1" stop-color="rgb(8.416748%, 17.236328%, 23.00415%)" offset="0.0625"/><stop stop-opacity="1" stop-color="rgb(8.296204%, 16.992188%, 22.673035%)" offset="0.09375"/><stop stop-opacity="1" stop-color="rgb(8.174133%, 16.748047%, 22.341919%)" offset="0.125"/><stop stop-opacity="1" stop-color="rgb(8.052063%, 16.503906%, 22.010803%)" offset="0.15625"/><stop stop-opacity="1" stop-color="rgb(7.929993%, 16.259766%, 21.679688%)" offset="0.1875"/><stop stop-opacity="1" stop-color="rgb(7.807922%, 16.017151%, 21.348572%)" offset="0.21875"/><stop stop-opacity="1" stop-color="rgb(7.685852%, 15.77301%, 21.017456%)" offset="0.25"/><stop stop-opacity="1" stop-color="rgb(7.563782%, 15.52887%, 20.684814%)" offset="0.28125"/><stop stop-opacity="1" stop-color="rgb(7.441711%, 15.284729%, 20.353699%)" offset="0.3125"/><stop stop-opacity="1" stop-color="rgb(7.319641%, 15.042114%, 20.022583%)" offset="0.34375"/><stop stop-opacity="1" stop-color="rgb(7.199097%, 14.797974%, 19.691467%)" offset="0.375"/><stop stop-opacity="1" stop-color="rgb(7.077026%, 14.553833%, 19.360352%)" offset="0.40625"/><stop stop-opacity="1" stop-color="rgb(6.954956%, 14.309692%, 19.029236%)" offset="0.4375"/><stop stop-opacity="1" stop-color="rgb(6.832886%, 14.065552%, 18.69812%)" offset="0.46875"/><stop stop-opacity="1" stop-color="rgb(6.710815%, 13.822937%, 18.365479%)" offset="0.5"/><stop stop-opacity="1" stop-color="rgb(6.588745%, 13.578796%, 18.034363%)" offset="0.53125"/><stop stop-opacity="1" stop-color="rgb(6.466675%, 13.334656%, 17.703247%)" offset="0.5625"/><stop stop-opacity="1" stop-color="rgb(6.344604%, 13.090515%, 17.372131%)" offset="0.59375"/><stop stop-opacity="1" stop-color="rgb(6.222534%, 12.846375%, 17.041016%)" offset="0.625"/><stop stop-opacity="1" stop-color="rgb(6.10199%, 12.60376%, 16.7099%)" offset="0.65625"/><stop stop-opacity="1" stop-color="rgb(5.979919%, 12.359619%, 16.378784%)" offset="0.6875"/><stop stop-opacity="1" stop-color="rgb(5.857849%, 12.115479%, 16.046143%)" offset="0.71875"/><stop stop-opacity="1" stop-color="rgb(5.735779%, 11.871338%, 15.715027%)" offset="0.75"/><stop stop-opacity="1" stop-color="rgb(5.613708%, 11.628723%, 15.383911%)" offset="0.78125"/><stop stop-opacity="1" stop-color="rgb(5.491638%, 11.384583%, 15.052795%)" offset="0.8125"/><stop stop-opacity="1" stop-color="rgb(5.369568%, 11.140442%, 14.72168%)" offset="0.84375"/><stop stop-opacity="1" stop-color="rgb(5.247498%, 10.896301%, 14.390564%)" offset="0.875"/><stop stop-opacity="1" stop-color="rgb(5.125427%, 10.652161%, 14.059448%)" offset="0.90625"/><stop stop-opacity="1" stop-color="rgb(5.003357%, 10.409546%, 13.726807%)" offset="0.9375"/><stop stop-opacity="1" stop-color="rgb(4.882812%, 10.165405%, 13.395691%)" offset="0.96875"/><stop stop-opacity="1" stop-color="rgb(4.760742%, 9.921265%, 13.064575%)" offset="1"/></linearGradient></defs><g clip-path="url(#84b37c2772)"><g clip-path="url(#34e00ab3f1)"><path fill="url(#c701ada37f)" d="M 72.988281 527.46875 L 72.988281 708.21875 L 253.738281 708.21875 L 253.738281 527.46875 Z M 72.988281 527.46875 " fill-rule="nonzero"/></g></g><g clip-path="url(#f4568ae084)"><g clip-path="url(#cddd215613)"><path fill="url(#88ca57aa2a)" d="M 80.914062 535.394531 L 80.914062 700.363281 L 245.882812 700.363281 L 245.882812 535.394531 Z M 80.914062 535.394531 " fill-rule="nonzero"/></g></g><g clip-path="url(#9b34eb15b7)"><g clip-path="url(#c751218547)"><path fill="url(#3188c924c8)" d="M 242.230469 539.046875 L 84.566406 539.046875 L 84.566406 696.710938 L 242.230469 696.710938 Z M 242.230469 539.046875 " fill-rule="nonzero"/></g></g></svg>