<svg width="47" height="47" viewBox="0 0 47 47" fill="none" xmlns="http://www.w3.org/2000/svg">
<path d="M43.3281 38.1875C43.3281 38.7718 43.096 39.3322 42.6828 39.7453C42.2697 40.1585 41.7093 40.3906 41.125 40.3906H5.875C5.29069 40.3906 4.73032 40.1585 4.31716 39.7453C3.90399 39.3322 3.67188 38.7718 3.67188 38.1875V8.8125C3.67188 8.22819 3.90399 7.66782 4.31716 7.25466C4.73032 6.84149 5.29069 6.60938 5.875 6.60938C6.45931 6.60938 7.01968 6.84149 7.43284 7.25466C7.84601 7.66782 8.07812 8.22819 8.07812 8.8125V26.9883L16.0663 18.9983C16.271 18.7929 16.5142 18.6299 16.782 18.5187C17.0498 18.4075 17.3369 18.3503 17.6268 18.3503C17.9168 18.3503 18.2039 18.4075 18.4717 18.5187C18.7395 18.6299 18.9827 18.7929 19.1874 18.9983L23.5 23.3164L31.3945 15.4219H29.375C28.7907 15.4219 28.2303 15.1898 27.8172 14.7766C27.404 14.3634 27.1719 13.8031 27.1719 13.2188C27.1719 12.6344 27.404 12.0741 27.8172 11.6609C28.2303 11.2477 28.7907 11.0156 29.375 11.0156H36.7188C37.3031 11.0156 37.8634 11.2477 38.2766 11.6609C38.6898 12.0741 38.9219 12.6344 38.9219 13.2188V20.5625C38.9219 21.1468 38.6898 21.7072 38.2766 22.1203C37.8634 22.5335 37.3031 22.7656 36.7188 22.7656C36.1344 22.7656 35.5741 22.5335 35.1609 22.1203C34.7477 21.7072 34.5156 21.1468 34.5156 20.5625V18.543L25.0587 28.0017C24.854 28.2071 24.6108 28.3701 24.343 28.4813C24.0752 28.5925 23.7881 28.6497 23.4982 28.6497C23.2082 28.6497 22.9211 28.5925 22.6533 28.4813C22.3855 28.3701 22.1423 28.2071 21.9376 28.0017L17.625 23.6836L8.07812 33.2305V35.9844H41.125C41.7093 35.9844 42.2697 36.2165 42.6828 36.6297C43.096 37.0428 43.3281 37.6032 43.3281 38.1875Z" fill="#222157"/>
</svg>
