<svg width="26" height="26" viewBox="0 0 26 26" fill="none" xmlns="http://www.w3.org/2000/svg">
<path d="M2.925 21.2312C2.10167 20.273 1.44083 19.206 0.9425 18.0302C0.444167 16.8543 0.13 15.6131 0 14.3065H2.665C2.795 15.2647 3.03333 16.1736 3.38 17.0333C3.72667 17.8938 4.18167 18.6834 4.745 19.402L2.925 21.2312ZM0 11.6935C0.173333 10.3869 0.498333 9.14573 0.975 7.96985C1.45167 6.79397 2.10167 5.72697 2.925 4.76884L4.745 6.59799C4.18167 7.31658 3.72667 8.10573 3.38 8.96543C3.03333 9.826 2.795 10.7353 2.665 11.6935H0ZM11.635 26C10.335 25.8693 9.10563 25.5536 7.9469 25.0528C6.7873 24.5519 5.72 23.9095 4.745 23.1256L6.565 21.2312C7.32333 21.7973 8.1198 22.2655 8.9544 22.6357C9.78813 23.0059 10.6817 23.2563 11.635 23.3869V26ZM6.63 4.76884L4.745 2.87437C5.72 2.09045 6.7873 1.44807 7.9469 0.947236C9.10563 0.446399 10.3567 0.130653 11.7 0V2.61307C10.725 2.74372 9.815 2.99414 8.97 3.36432C8.125 3.73451 7.345 4.20268 6.63 4.76884ZM9.75 18.8794V7.1206L18.85 13L9.75 18.8794ZM14.3 26V23.3869C16.9217 23.0168 19.094 21.8518 20.8169 19.892C22.539 17.9322 23.4 15.6348 23.4 13C23.4 10.3652 22.539 8.06784 20.8169 6.10804C19.094 4.14824 16.9217 2.98325 14.3 2.61307V0C17.6367 0.370184 20.4208 1.7856 22.6525 4.24623C24.8842 6.70687 26 9.62479 26 13C26 16.3752 24.8842 19.2931 22.6525 21.7538C20.4208 24.2144 17.6367 25.6298 14.3 26Z" fill="white"/>
</svg>
