<svg width="27" height="22" viewBox="0 0 27 22" fill="none" xmlns="http://www.w3.org/2000/svg">
<path d="M5.33333 14.6667H7.33333V12H10V14.6667H12V6.66667H10V10H7.33333V6.66667H5.33333V14.6667ZM14.6667 14.6667H20C20.3778 14.6667 20.6942 14.5387 20.9493 14.2827C21.2053 14.0276 21.3333 13.7111 21.3333 13.3333V8C21.3333 7.62222 21.2053 7.30533 20.9493 7.04933C20.6942 6.79422 20.3778 6.66667 20 6.66667H14.6667V14.6667ZM16.6667 12.6667V8.66667H19.3333V12.6667H16.6667ZM0 21.3333V0H26.6667V21.3333H0ZM2.66667 18.6667H24V2.66667H2.66667V18.6667Z" fill="white"/>
</svg>
