<svg width="50" height="50" viewBox="0 0 50 50" fill="none" xmlns="http://www.w3.org/2000/svg">
<path d="M5.57071 40.2051C4.0131 38.3925 2.76292 36.3739 1.82016 34.1493C0.877396 31.9248 0.283047 29.5766 0.0371094 27.1049H5.07883C5.32477 28.9175 5.77566 30.637 6.43149 32.2634C7.08732 33.8914 7.94811 35.3852 9.01384 36.7446L5.57071 40.2051ZM0.0371094 22.1614C0.365026 19.6897 0.979871 17.3415 1.88164 15.117C2.78341 12.8924 4.0131 10.8738 5.57071 9.0612L9.01384 12.5216C7.94811 13.8811 7.08732 15.374 6.43149 17.0004C5.77566 18.6285 5.32477 20.3488 5.07883 22.1614H0.0371094ZM22.0485 49.2269C19.5892 48.9797 17.2634 48.3824 15.0713 47.4349C12.8775 46.4874 10.8584 45.2721 9.01384 43.7891L12.457 40.2051C13.8916 41.2762 15.3984 42.1619 16.9773 42.8622C18.5546 43.5625 20.245 44.0363 22.0485 44.2835V49.2269ZM12.5799 9.0612L9.01384 5.47719C10.8584 3.99415 12.8775 2.77888 15.0713 1.83138C17.2634 0.883878 19.6302 0.286541 22.1715 0.0393677V4.98284C20.327 5.23001 18.6054 5.70376 17.0068 6.40409C15.4082 7.10441 13.9326 7.99012 12.5799 9.0612ZM18.4824 35.756V13.5103L35.6981 24.6331L18.4824 35.756ZM27.0903 49.2269V44.2835C32.05 43.5831 36.1596 41.3792 39.4191 37.6716C42.677 33.9639 44.3059 29.6178 44.3059 24.6331C44.3059 19.6485 42.677 15.3023 39.4191 11.5947C36.1596 7.88713 32.05 5.68317 27.0903 4.98284V0.0393677C33.4027 0.739693 38.6698 3.41741 42.8918 8.07251C47.1137 12.7276 49.2247 18.2478 49.2247 24.6331C49.2247 31.0185 47.1137 36.5387 42.8918 41.1938C38.6698 45.8489 33.4027 48.5266 27.0903 49.2269Z" fill="#222157"/>
</svg>
