<svg width="442" height="326" viewBox="0 0 442 326" fill="none" xmlns="http://www.w3.org/2000/svg">
<path fill-rule="evenodd" clip-rule="evenodd" d="M28.9994 -223.518L44.2028 -231.944L150.289 -168.498L167.059 -158.381L174.43 -153.923L183.394 -148.49C192.678 -142.842 202.5 -136.758 212.075 -130.232C213.421 -129.315 214.763 -128.388 216.101 -127.451C221.573 -123.582 226.831 -119.492 231.84 -115.208C236.843 -110.929 241.602 -106.454 246.08 -101.812C254.966 -92.5706 263.551 -82.0284 272.324 -69.5819C277.704 -61.9497 283.047 -54.0037 288.271 -46.1646L292.164 -40.312C293.645 -38.084 295.126 -35.8551 296.61 -33.63L298.039 -31.4991C306.581 -18.8373 314.545 -8.38971 322.344 0.384338C331.541 10.7332 341.537 19.2489 352.074 25.7159L353.183 26.3883C364.13 32.9339 376.773 37.9372 390.762 41.2587C403.022 44.1711 416.485 46.2707 433.13 47.8654L447.667 49.2466C457.298 50.1686 467.084 51.1504 476.607 52.3314C491.827 54.2179 505.281 56.8655 517.736 60.4223C530.229 64.0063 542.71 68.9311 554.829 75.0554C565.451 80.4646 575.843 86.3817 585.618 92.1009L589.315 94.2707C599.548 100.304 609.755 106.355 619.947 112.4L726.51 176.115L726.205 193.455L615.318 127.136C610.458 124.251 605.592 121.366 600.722 118.482L589.27 111.707L581.532 107.137L578.947 105.62C567.429 98.8816 557.398 93.2656 546.824 88.1398C534.532 82.2191 521.672 77.6642 508.604 74.6012C495.976 71.6428 482.077 69.5595 466.109 68.2332C458.874 67.6317 451.493 67.1185 444.214 66.6358L430.416 65.7294L421.753 65.1451C419.71 65.0023 417.706 64.8468 415.737 64.6811C401.94 63.5155 389.935 61.7761 379.189 59.3911C365.658 56.3885 353.444 51.7338 342.87 45.5503L341.831 44.9343C331.142 38.5118 321.05 29.8394 311.833 19.1562C303.643 9.66342 295.44 -1.6507 286.751 -15.4332C284.838 -18.4664 282.934 -21.5113 281.032 -24.5593L274.508 -35.0254C270.807 -40.9507 267.038 -46.9471 263.266 -52.7804C254.638 -66.1254 246.338 -77.3178 237.893 -86.9977C229.133 -97.0377 219.196 -106.182 208.359 -114.176C197.636 -122.029 186.323 -129.099 175.695 -135.57C167.582 -140.501 159.471 -145.401 151.374 -150.286L142.533 -155.618L28.9994 -223.518ZM61.4223 -241.497L159.022 -183.126C167.286 -178.146 175.568 -173.156 183.857 -168.142L192.148 -163.119C202.081 -157.088 213.755 -149.901 225.015 -142.323C236.177 -134.77 246.525 -126.556 255.772 -117.908C265.168 -109.089 274.428 -98.9593 283.297 -87.7994C290.702 -78.4825 297.996 -68.6149 305.099 -58.9099L308.78 -53.8718C318.505 -40.5598 326.944 -30.1927 335.338 -21.2456C344.701 -11.2649 354.76 -2.95087 365.258 3.48712L366.463 4.2171C377.404 10.7547 389.934 15.9304 403.704 19.5995C415.567 22.7597 428.759 25.2999 445.222 27.5959L451.202 28.4315C463.211 30.1165 475.478 31.9015 487.461 34.0939C501.593 36.681 515.003 40.1208 527.313 44.3173C539.567 48.5167 551.471 53.7057 563.703 60.1837C575.739 66.5793 587.302 73.2984 598.006 79.6055L607.031 84.9417C611.84 87.7858 616.647 90.6311 621.446 93.4784L630.652 98.9408L665.084 119.529L726.836 156.461L726.532 173.799L635.414 119.303L634.409 118.704C630.977 116.651 627.553 114.603 624.117 112.546C616.619 108.098 609.119 103.648 601.607 99.2048L590.262 92.5078L586.617 90.3686C576.818 84.6353 566.397 78.7011 555.726 73.2671C543.497 67.0871 530.899 62.1179 518.279 58.4948C505.725 54.9096 492.172 52.2423 476.846 50.3427C466.111 49.0111 455.055 47.9337 444.263 46.9095L433.314 45.8715C416.764 44.2851 403.389 42.2003 391.217 39.3087C377.812 36.1208 365.668 31.3776 355.106 25.2012L354.016 24.555C343.315 18.1252 333.163 9.54782 323.846 -0.939911C315.657 -10.1559 307.295 -21.2105 298.281 -34.7353L296.057 -38.0742L293.836 -41.4154C287.381 -51.1263 280.706 -61.1682 273.966 -70.7302C265.133 -83.2568 256.485 -93.8756 247.527 -103.196C243.253 -107.626 238.716 -111.9 233.961 -116.009C228.651 -120.599 223.071 -124.975 217.246 -129.091C215.886 -130.044 214.521 -130.988 213.15 -131.921C203.5 -138.497 193.694 -144.568 184.44 -150.195L183.105 -151.003C178.096 -154.044 173.086 -157.077 168.081 -160.1L151.269 -170.244L46.2184 -233.069L61.4223 -241.497ZM78.6544 -251.049L167.766 -197.756C176.035 -192.777 184.32 -187.789 192.613 -182.778L203.966 -175.904C212.632 -170.636 223.327 -164.054 233.926 -157.183C240.346 -152.993 246.349 -148.792 252.046 -144.514L254.317 -142.801L254.868 -142.372C258.487 -139.585 261.99 -136.762 265.388 -133.879C275.158 -125.58 284.869 -116.186 294.248 -105.958C296.437 -103.567 298.603 -101.154 300.773 -98.6941L302.401 -96.8392C307.293 -91.2451 312.246 -85.3757 317.599 -78.9315L321.988 -73.6312L322.74 -72.7261C332.512 -60.9701 340.864 -51.7423 348.9 -43.8143C350.463 -42.2702 352.045 -40.7775 353.637 -39.3169L354.834 -38.2271C355.385 -37.729 355.931 -37.2175 356.485 -36.7281L357.397 -35.9461C364.43 -29.8181 371.694 -24.4357 379.105 -19.894L380.428 -19.0932C391.349 -12.5661 403.72 -7.15335 417.2 -3.00381C419.321 -2.34991 421.497 -1.70972 423.739 -1.07703L425.521 -0.579132C434.503 1.90088 444.533 4.2446 456.374 6.63882L457.564 6.87842C470.674 9.50739 484.682 12.4199 498.276 15.8947C499.967 16.33 501.65 16.7762 503.323 17.2321C515.034 20.4294 526.282 24.1524 536.826 28.3227C548.549 32.9854 560.242 38.5456 572.572 45.3197C579.014 48.8818 585.476 52.5574 591.844 56.2104L600.702 61.304L606.832 64.8332L727.195 136.82L726.893 154.156L632.894 97.9364L622.469 91.76C617.667 88.9106 612.857 86.0638 608.043 83.2166C605.036 81.4376 602.041 79.6547 599.028 77.878L595.422 75.7574C585.725 70.0671 575.379 64.1146 564.647 58.4112C552.322 51.8851 540.324 46.6533 527.967 42.4213C515.562 38.1915 502.058 34.7273 487.828 32.1223C474.808 29.7397 461.473 27.8403 448.494 26.0276L445.506 25.6106C429.123 23.3267 416.007 20.7996 404.226 17.6606C390.636 14.0413 378.279 8.93768 367.498 2.49506L367.244 2.34259C356.561 -4.07632 346.321 -12.4727 336.803 -22.618C328.874 -31.071 320.896 -40.8096 311.81 -53.1388L310.334 -55.1504L306.783 -60.0088C299.649 -69.7595 292.321 -79.6744 284.871 -89.0486C275.933 -100.292 266.605 -110.493 257.146 -119.372C247.821 -128.093 237.39 -136.374 226.142 -143.986C214.952 -151.52 203.693 -158.458 193.192 -164.834C185.092 -169.75 176.995 -174.637 168.911 -179.511L160.023 -184.868L63.4519 -242.622L78.6544 -251.049ZM80.6777 -252.17L95.8816 -260.597L209.719 -192.512L214.495 -189.559L225.108 -183.009C230.976 -179.384 236.932 -175.69 242.798 -171.996C254.815 -164.373 265.309 -157.067 274.881 -149.661C284.9 -141.906 295.022 -133.183 304.966 -123.737L306.646 -122.131C315.864 -113.284 324.652 -104.25 331.671 -96.9237L336.075 -92.3249C343.484 -84.6218 352.766 -75.2229 362.519 -66.4557C364.417 -64.7484 366.333 -63.1034 368.258 -61.4873C376.366 -54.6638 384.664 -48.6336 393.019 -43.526L394.523 -42.6127C405.379 -36.1203 417.563 -30.4255 430.738 -25.6861C443.153 -21.2183 455.875 -17.4703 466.204 -14.5753L472.886 -12.7166C487.306 -8.69315 498.505 -5.32605 508.859 -1.90723C521.917 2.41406 534.491 7.26889 546.23 12.5223C557.359 17.5323 568.87 23.4153 581.423 30.5077C587.341 33.8736 593.31 37.3175 599.179 40.7165L612.061 48.1809C613.235 48.8602 614.408 49.5386 615.579 50.2154L727.533 117.172L727.231 134.507L607.851 63.1072L601.442 59.4223L595.326 55.9007C588.147 51.7733 580.831 47.5986 573.537 43.5685C561.111 36.7408 549.344 31.1461 537.563 26.4622C536.047 25.8629 534.517 25.2723 532.973 24.6924C522.164 20.6253 510.683 17.0207 498.773 13.9577C489.679 11.6331 480.414 9.56482 471.352 7.66162C468.33 7.02689 465.33 6.4093 462.368 5.80798L456.718 4.66693L454.31 4.17462C442.795 1.79858 433.034 -0.531036 424.295 -2.99762C422.066 -3.62671 419.902 -4.26553 417.789 -4.91702C404.449 -9.02515 392.224 -14.3723 381.454 -20.8096L381.194 -20.9657C370.521 -27.379 360.129 -35.5435 350.304 -45.2372L349.132 -46.4016C341.299 -54.2287 333.099 -63.3602 323.495 -74.9469L320.878 -78.1105C311.809 -89.0608 303.945 -98.3325 295.722 -107.31C286.29 -117.596 276.52 -127.048 266.682 -135.403C265.003 -136.828 263.297 -138.237 261.566 -139.635L259.334 -141.426C257.671 -142.744 255.97 -144.051 254.253 -145.352C248.222 -149.92 241.856 -154.396 235.016 -158.86L233.128 -160.081C221.8 -167.381 210.579 -174.238 201.944 -179.47C190.881 -186.174 179.824 -192.83 168.766 -199.488L80.6777 -252.17ZM113.109 -270.143L218.465 -207.131L225.397 -202.873L232.34 -198.619C238.773 -194.68 245.211 -190.736 251.639 -186.76L253.863 -185.373C265.598 -178.034 275.298 -171.598 284.234 -165.224C294.6 -157.824 305.075 -149.676 315.369 -141.006L317.121 -139.526C327.026 -131.126 336.546 -122.584 344.058 -115.767L347.942 -112.243C355.695 -105.226 365.424 -96.5955 375.648 -88.2869C385.982 -79.8915 396.064 -72.724 406.41 -66.4221L407.928 -65.5052L408.151 -65.3714C419.107 -58.8201 430.761 -52.9946 443.777 -47.5619L445.904 -46.6797C457.607 -41.8583 469.381 -37.5485 478.897 -34.1584L485.727 -31.7288C495.508 -28.2336 507.414 -23.8842 519.141 -19.2113C531.757 -14.1815 543.988 -8.74188 555.491 -3.04205L557.358 -2.11115C567.342 2.89645 577.85 8.60379 590.236 15.7429C594.628 18.2848 599.011 20.8367 603.39 23.3918L609.957 27.2259C614.747 30.0237 619.534 32.8207 624.315 35.599L727.88 97.5389L727.578 114.868L616.597 48.4925L611.454 45.5166L597.425 37.3866C592.446 34.5068 587.413 31.6094 582.413 28.7646C569.806 21.6421 558.24 15.7324 547.055 10.696C535.254 5.41495 522.616 0.535034 509.493 -3.80756L507.319 -4.52026C495.001 -8.53052 482.728 -12.0526 472.843 -14.8079L466.645 -16.5333C456.34 -19.4249 443.686 -23.1568 431.42 -27.5687C418.821 -32.1019 407.138 -37.5155 396.671 -43.6689L395.189 -44.5496C384.575 -50.9268 374.037 -58.7963 363.862 -67.9435C354.111 -76.7162 344.874 -86.0683 337.511 -93.7253L331.909 -99.5722C324.661 -107.12 315.698 -116.29 306.35 -125.188C296.353 -134.684 286.178 -143.451 276.111 -151.245C266.52 -158.668 255.976 -166.01 243.872 -173.689C237.025 -178.001 230.061 -182.308 223.257 -186.507L220.352 -188.299C217.158 -190.27 213.965 -192.24 210.765 -194.221L97.9096 -261.72L113.109 -270.143ZM130.332 -279.692L260.603 -201.782C263.29 -200.038 265.985 -198.304 268.684 -196.573L272.733 -193.977C279.542 -189.617 286.583 -185.107 293.438 -180.542C303.309 -173.966 313.391 -166.812 323.435 -159.253L325.443 -157.736C335.008 -150.484 344.44 -142.995 352.25 -136.718L360.09 -130.401C368.077 -123.981 377.892 -116.211 387.949 -108.737C399.157 -100.399 409.955 -93.1385 420.879 -86.6156C431.832 -80.0645 443.322 -73.9903 456.001 -68.0464L458.07 -67.0804C468.419 -62.2705 478.797 -57.7731 487.528 -54.0654L497.476 -49.8604C509.932 -44.5794 519.846 -40.2302 529.122 -35.9834C541.466 -30.3094 553.414 -24.3867 564.634 -18.3778C570.083 -15.458 575.557 -12.4315 580.935 -9.43521L592.747 -2.84558C594.902 -1.64685 597.054 -0.453827 599.203 0.728577L728.212 77.887L727.909 95.2172L625.342 33.8731L618.29 29.7664L611.241 25.6515C606.803 23.0597 602.364 20.4667 597.919 17.8811L591.242 14.0083L588.933 12.6816C576.731 5.69366 566.335 0.100403 556.387 -4.83502C544.878 -10.5402 532.598 -16.002 519.887 -21.0706L517.784 -21.9045C506.569 -26.3299 495.453 -30.3845 486.267 -33.6644L476.938 -36.9861C467.361 -40.4214 455.863 -44.6852 444.553 -49.4081C432.339 -54.5061 420.882 -60.1927 410.479 -66.3209L408.741 -67.3541C398.45 -73.5375 388.439 -80.5677 378.196 -88.8055L376.915 -89.8416C368.835 -96.4056 360.385 -103.702 349.856 -113.215L342.525 -119.859C334.989 -126.665 325.89 -134.765 316.663 -142.536C306.293 -151.267 295.777 -159.448 285.401 -166.854L283.712 -168.053C274.653 -174.454 264.74 -180.976 252.698 -188.461C248.409 -191.114 244.117 -193.752 239.825 -196.383L233.391 -200.326C228.761 -203.161 224.135 -205.994 219.508 -208.842L115.133 -271.268L130.332 -279.692ZM725.843 213.075L606.672 141.801L598.643 137.046C592.903 133.644 587.161 130.242 581.412 126.844L572.783 121.751L570.562 120.448C560.825 114.745 549.653 108.395 537.927 102.97C525.683 97.3637 512.59 93.1868 499.013 90.5531C486.302 88.087 472.16 86.4177 455.777 85.4499C450.641 85.1464 445.425 84.8735 440.273 84.6133L427.57 83.9788C422.067 83.7008 416.496 83.407 411.016 83.0758C394.733 82.0933 380.764 80.2868 368.311 77.5559C354.385 74.5013 341.869 69.69 331.11 63.258L330.894 63.1282C320.217 56.7124 310.144 48.0308 300.959 37.3222C292.658 27.6486 284.502 16.2614 276.022 2.51163C272.437 -3.29401 268.844 -9.2457 265.336 -15.0742L260.084 -23.8007C257.728 -27.7095 255.34 -31.6531 252.965 -35.5263C244.453 -49.4104 236.402 -61.0074 228.352 -70.9801C219.701 -81.6988 209.99 -91.2248 199.486 -99.2981C188.862 -107.417 177.575 -114.508 166.96 -120.963C159.498 -125.494 152.038 -130 144.589 -134.494L133.793 -141.003L11.7768 -213.977L26.968 -222.397L141.494 -153.905L142.24 -153.455C153.021 -146.953 163.833 -140.434 174.647 -133.862L178.008 -131.809C187.589 -125.936 197.609 -119.568 207.165 -112.565C217.868 -104.671 227.696 -95.6263 236.377 -85.6831C244.75 -76.094 252.993 -64.9763 261.578 -51.6962C265.37 -45.8304 269.163 -39.7971 272.886 -33.8346L276.583 -27.9045C279.4 -23.3853 282.217 -18.8638 285.052 -14.3674L286.465 -12.1402C294.686 0.726685 302.502 11.4104 310.311 20.4628C319.41 31.0155 329.36 39.6377 339.903 46.1085L340.981 46.7613C351.934 53.3066 364.641 58.213 378.748 61.3435C389.581 63.7474 401.673 65.4994 415.56 66.6725C417.544 66.8402 419.564 66.996 421.623 67.14L430.309 67.7267L444.116 68.6343C451.373 69.1156 458.729 69.6269 465.935 70.2252C481.803 71.5438 495.609 73.6117 508.139 76.5478C521.083 79.585 533.803 84.0909 545.944 89.9407C556.811 95.2032 567.163 101.029 579.211 108.098L584.103 110.979L592.367 115.861L601.305 121.156C605.74 123.785 610.11 126.38 614.36 128.906L726.145 195.763L725.843 213.075ZM725.718 222.039L716.337 227.239L597.926 156.421L593.218 153.626C586.75 149.787 580.277 145.945 573.795 142.108L564.064 136.358C553.791 130.304 541.767 123.377 529.067 117.77C517.011 112.485 503.741 108.6 489.625 106.221C476.951 104.083 462.677 102.641 445.99 101.809C442.864 101.654 439.734 101.507 436.603 101.362L424.269 100.793C416.587 100.433 408.8 100.041 401.171 99.553C385.092 98.524 371.175 96.634 358.624 93.778C345.157 90.7075 332.973 86.0172 322.392 79.8315L321.291 79.1787C310.607 72.7588 300.503 64.133 291.257 53.54C282.831 43.8876 274.623 32.5861 266.163 18.9908C260.658 10.144 255.184 0.964569 249.89 -7.91437C247.655 -11.6641 245.419 -15.4106 243.178 -19.1434C234.641 -33.3501 226.726 -45.1631 218.978 -55.2572C210.319 -66.5314 200.785 -76.3559 190.639 -84.4615C180.228 -92.7163 168.908 -99.8602 158.225 -106.35C150.46 -111.061 142.697 -115.747 134.946 -120.419L125.053 -126.38L5.46271 -197.902L5.68254 -210.597L9.74351 -212.849L132.751 -139.283L133.65 -138.741C144.38 -132.27 155.141 -125.781 165.907 -119.248C176.503 -112.802 187.755 -105.731 198.256 -97.7051C208.632 -89.7297 218.231 -80.3128 226.782 -69.7163C234.772 -59.8168 242.776 -48.2903 251.248 -34.4757C253.617 -30.6108 256 -26.6745 258.352 -22.7725L265.364 -11.1234C268.314 -6.23038 271.312 -1.28162 274.306 3.56818C282.862 17.4363 291.079 28.9045 299.427 38.6312C308.516 49.2203 318.466 57.8642 329.02 64.3428L330.071 64.9797C341.025 71.5264 353.742 76.4165 367.869 79.5141C380.416 82.2676 394.488 84.0878 410.883 85.0795C417.454 85.4754 424.153 85.8182 430.708 86.1457L440.123 86.6151C445.282 86.8752 450.507 87.1488 455.648 87.4521C471.946 88.4161 486.003 90.0746 498.62 92.5227C512.062 95.1316 525.003 99.2604 537.078 104.794C548.426 110.043 559.148 116.061 571.757 123.481C583.039 130.13 594.29 136.806 605.521 143.471L725.836 215.428L725.718 222.039ZM699.085 236.784L589.157 171.041C577.895 164.344 566.616 157.642 555.304 150.961L552.791 149.48C542.679 143.542 531.872 137.457 520.22 132.501C508.261 127.452 494.886 123.741 480.466 121.474C467.769 119.477 453.877 118.128 436.747 117.226L422.08 116.463C412.131 115.938 402.019 115.364 392.164 114.596C376.337 113.365 362.542 111.276 349.988 108.209C336.303 104.868 323.878 99.8936 313.051 93.4259L312.814 93.2832C302.085 86.8365 291.918 78.3176 282.592 67.961C273.987 58.4014 265.66 47.3024 257.137 34.028C250.975 24.4276 244.892 14.4173 238.978 4.63275L233.936 -3.71295L232.649 -5.83337C224.757 -18.7761 217.768 -29.2781 210.838 -38.6089L209.826 -39.9671C201.125 -51.5589 191.697 -61.5568 181.801 -69.6834C172.169 -77.5719 161.91 -84.2073 149.471 -91.7448C138.395 -98.4513 127.329 -105.115 116.289 -111.757L5.10368 -178.254L5.40603 -195.592L124.008 -124.662L141.032 -114.397C146.408 -111.153 151.789 -107.901 157.171 -104.638L159.955 -102.94C169.745 -96.9435 179.947 -90.3745 189.377 -82.8921C199.399 -74.8916 208.819 -65.1823 217.374 -54.0346L218.66 -52.346C225.958 -42.6857 233.428 -31.4623 241.447 -18.11C242.93 -15.6419 244.409 -13.1671 245.887 -10.6894L248.104 -6.97137C253.42 1.94373 258.916 11.1622 264.448 20.051C272.973 33.741 281.243 45.1266 289.733 54.8581C298.852 65.314 308.817 73.8876 319.365 80.3616L320.472 81.0328C331.433 87.5836 344.113 92.5287 358.162 95.731C370.798 98.6111 384.819 100.515 401.026 101.553C408.657 102.041 416.44 102.433 424.117 102.794L431.749 103.146C436.461 103.363 441.172 103.578 445.874 103.812L448.618 103.954C464.042 104.795 477.367 106.186 489.276 108.196C503.232 110.548 516.344 114.387 528.245 119.606C539.981 124.785 551.157 131.118 560.893 136.828L563.031 138.086C569.317 141.793 575.592 145.509 581.858 149.226L596.876 158.137L714.287 228.358L699.085 236.784ZM681.874 246.347L546.632 165.462L543.203 163.479C533.549 157.909 522.826 151.899 511.45 147.171C499.594 142.245 486.196 138.577 471.628 136.27L469.873 135.998C458.112 134.204 445.13 132.865 429.289 131.811L419.724 131.184C407.828 130.396 395.713 129.538 383.96 128.374C368.433 126.835 354.802 124.472 342.286 121.15C328.801 117.57 316.448 112.458 305.572 105.959L305.314 105.804C294.543 99.3319 284.298 90.9477 274.858 80.8811C266.037 71.4721 257.545 60.6447 248.897 47.779C242.086 37.6423 235.491 27.1819 229.082 16.9071L225.26 10.7686C216.226 -3.74405 208.512 -15.1651 200.982 -25.1729C192.204 -36.8393 182.803 -46.8791 173.041 -55.0105C162.525 -63.7705 150.856 -71.0271 140.743 -77.1421C129.667 -83.8396 118.6 -90.4937 107.551 -97.137L4.76558 -158.609L5.06775 -175.94L115.266 -110.035C126.302 -103.395 137.366 -96.7314 148.439 -90.0266L150.806 -88.5872C162.116 -81.6789 171.611 -75.44 180.537 -68.1308C190.32 -60.0897 199.637 -50.2084 208.232 -38.7585L208.771 -38.0356L209.312 -37.308C216.562 -27.5305 223.874 -16.4774 232.219 -2.68439L235.302 2.41437C237.324 5.76312 239.374 9.14859 241.435 12.5416C244.369 17.3719 247.333 22.2201 250.331 27.0162C251.073 28.2028 251.822 29.3688 252.567 30.548L254.489 33.5943L255.458 35.1142C264.034 48.4767 272.425 59.6601 281.112 69.3067C290.302 79.513 300.303 87.9624 310.857 94.4393L312.031 95.1509C323.026 101.72 335.639 106.77 349.517 110.16C362.182 113.253 376.082 115.359 392.014 116.598C401.882 117.366 411.998 117.941 421.949 118.466L436.648 119.232C453.668 120.123 467.494 121.466 480.16 123.457C494.418 125.7 507.637 129.365 519.445 134.35C531.939 139.664 543.511 146.324 554.293 152.69C565.603 159.371 576.882 166.072 588.14 172.768L697.07 237.915L681.874 246.347ZM664.633 255.884L537.888 180.082L534.463 178.089C524.818 172.491 514.106 166.45 502.747 161.711C490.959 156.791 477.611 153.046 463.074 150.581L461.442 150.308C450.221 148.459 437.656 146.948 422.222 145.588L419.942 145.39C414.813 144.951 409.728 144.509 404.687 144.048L402.005 143.801C399.768 143.592 397.543 143.377 395.324 143.157C393.393 142.965 391.468 142.768 389.549 142.565C388.151 142.418 386.755 142.267 385.364 142.113C383.733 141.931 382.105 141.745 380.483 141.553L376.396 141.061C361.158 139.153 347.714 136.478 335.295 132.883C322.009 129.037 309.737 123.778 298.818 117.255C287.899 110.719 277.469 102.43 267.83 92.5919C258.812 83.3887 250.134 72.8712 241.301 60.4388C240.091 58.7356 238.888 57.0199 237.69 55.2969C231.784 46.8007 225.975 38.0248 220.401 29.4973L215.737 22.3495C209.493 12.8134 203.922 4.69327 198.665 -2.52167L198.103 -3.29126C196.171 -5.93152 194.281 -8.44965 192.414 -10.8722C183.494 -22.4478 174.047 -32.4069 164.338 -40.4687C154.361 -48.7522 143.819 -55.4037 132.057 -62.6313L4.4225 -138.964L4.72639 -156.293L106.534 -95.4061C117.567 -88.7715 128.632 -82.1198 139.708 -75.4214L141.808 -74.148C151.35 -68.3439 162.067 -61.539 171.76 -53.4655C181.396 -45.4394 190.689 -35.5128 199.384 -23.961L200.427 -22.567C207.569 -12.974 214.954 -1.98984 223.56 11.8344L227.401 18.0006C233.838 28.3204 240.454 38.8149 247.238 48.9032C255.948 61.8633 264.505 72.773 273.398 82.2567C282.674 92.1516 292.724 100.443 303.29 106.924L304.546 107.685C315.579 114.279 328.104 119.462 341.772 123.091C354.39 126.443 368.124 128.824 383.761 130.372C396.764 131.661 410.192 132.574 423.282 133.432L427.965 133.737L431.499 133.975C446.994 135.054 459.723 136.424 471.314 138.255C485.711 140.531 498.956 144.155 510.681 149.027C523.301 154.271 535.166 161.143 545.621 167.197L679.832 247.466L664.633 255.884ZM647.426 265.443L529.147 194.704L524.561 192.025C515.227 186.594 504.936 180.809 494.12 176.166C482.281 171.085 469.417 167.262 454.792 164.477L453.242 164.186C441.831 162.065 429.398 160.286 413.331 158.474L407.617 157.832C395.636 156.476 382.261 154.877 369.369 152.886C354.422 150.578 341.172 147.577 328.86 143.71C315.786 139.607 303.593 134.204 292.622 127.647L292.348 127.482L290.996 126.643C290.161 126.13 289.327 125.619 288.497 125.088C280.759 120.114 273.253 114.337 266.109 107.851C265.748 107.523 265.383 107.207 265.023 106.876L264.779 106.644C263.63 105.579 262.488 104.499 261.359 103.396C252.146 94.4122 243.271 84.2195 234.226 72.2327L232.718 70.2259C225.447 60.5041 218.364 50.4235 210.182 38.5611L208.087 35.5242C198.83 22.1465 191.389 12.0515 184.107 2.98581C174.866 -8.51559 165.572 -18.0079 155.693 -26.0331C145.588 -34.2414 134.613 -41.1109 123.313 -48.01L4.08543 -119.315L4.38846 -136.651L131.025 -60.9135L134.877 -58.5379C145.033 -52.2438 154.287 -46.2116 163.066 -38.922C172.663 -30.9519 182.005 -21.101 190.835 -9.6427C193.342 -6.38898 195.891 -2.96313 198.527 0.697662L199.409 1.9267C204.141 8.54675 209.166 15.9427 214.733 24.4695L218.296 29.9359C224.129 38.8687 230.242 48.1157 236.531 57.1354C237.577 58.6353 238.625 60.1259 239.675 61.6042C248.566 74.1213 257.31 84.7171 266.406 93.9985C275.782 103.566 285.893 111.695 296.481 118.181L297.798 118.979C308.863 125.591 321.292 130.917 334.743 134.811C347.262 138.436 360.808 141.131 376.153 143.052L377.801 143.244C380.245 143.542 382.701 143.828 385.172 144.103C386.535 144.254 387.904 144.402 389.273 144.547C391.23 144.754 393.194 144.955 395.165 145.15L398.436 145.47L403.16 145.917L404.604 146.049C408.371 146.393 412.151 146.73 415.959 147.062L422.047 147.588C438.169 149.007 451.151 150.595 462.743 152.561C477.132 155.001 490.332 158.702 501.982 163.563C514.611 168.833 526.447 175.735 536.88 181.82L662.621 257.021L647.426 265.443ZM612.965 284.53L511.673 223.951L508.204 221.901C505.911 220.549 503.656 219.224 501.423 217.923L498.732 216.357L497.156 215.448L494.485 213.916C488.748 210.643 483.081 207.518 477.261 204.503L477.195 204.471C464.644 199.054 451.728 194.633 438.804 191.331L436.57 190.768C426.329 188.217 415.12 185.867 400.904 183.291L391.449 181.596C389.911 181.319 388.397 181.045 386.902 180.772L383.169 180.085L380.654 179.616L377.063 178.939L375.267 178.595L371.992 177.96L370.041 177.575L366.744 176.917L364.956 176.551L361.431 175.823C360.482 175.624 359.537 175.419 358.59 175.215C357.855 175.058 357.117 174.903 356.384 174.742C341.997 171.598 329.131 167.945 317.049 163.579C313.868 162.43 310.73 161.213 307.64 159.933C298.468 156.13 289.714 151.751 281.507 146.866L281.228 146.704C271.308 140.724 261.618 133.724 252.441 125.81L251.297 124.815C250.692 124.285 250.081 123.763 249.479 123.225C239.926 114.674 230.661 105.122 221.154 94.0225C212.682 84.1367 204.299 73.6845 196.433 63.7385L193.403 59.9052C183.571 47.5034 175.702 38.1457 168.048 29.745C159.137 19.9702 149.29 10.7207 138.727 2.21039C128.87 -4.65332 118.593 -11.0273 109.377 -16.6165L105.644 -18.8737L3.39601 -80.0225L3.69836 -97.3614L113.54 -31.67L116.896 -29.6289C126.461 -23.7962 136.46 -17.5315 146.103 -10.5849C156.299 -1.91437 165.846 7.63214 174.483 17.7895L175.962 19.5398C182.883 27.7786 190.112 37.051 199.024 49.1237L200.309 50.8677C208.39 61.8538 217.093 73.5485 225.991 84.6182C235.315 96.2207 244.448 106.158 253.916 114.999C263.816 124.246 274.413 132.285 285.419 138.898L285.779 139.113C296.909 145.763 309.155 151.367 322.181 155.768C334.47 159.922 347.616 163.274 362.371 166.015C375.094 168.377 387.898 170.332 403.053 172.503L404.576 172.721C421.684 175.166 434.551 177.405 446.297 179.978C459.437 182.857 472.458 186.87 485.001 191.907C496.573 197.686 507.871 204.262 519.383 211.05L628.16 276.108L612.965 284.53ZM593.703 295.214L578.507 303.635L494.181 253.204C483.894 247.048 473.785 241.031 463.507 235.227L460.032 233.276C448.27 227.457 435.914 222.136 423.265 217.446C411.562 213.692 399.209 210.129 385.557 206.568L377.297 204.427C366.335 201.58 355.14 198.628 344.095 195.454C330.184 191.455 317.685 187.177 305.883 182.378C293.944 177.52 282.503 171.885 271.85 165.615L269.971 164.498C259.082 157.956 248.41 150.381 238.245 141.979C228.434 133.873 218.792 124.935 208.764 114.654L206.885 112.723C199.082 104.676 191.546 96.5789 182.863 87.1841L180.757 84.9038C170.764 74.0851 161.5 64.5476 152.403 55.7177C142.433 46.848 132.054 38.5167 121.513 30.9264C111.219 24.2563 100.596 17.8238 90.4924 11.7715L2.70266 -40.7316L3.00517 -58.061L98.5844 -0.896851C109.874 5.87762 119.505 11.8072 128.985 18.1461C139.219 25.9135 149.314 34.5741 158.956 43.8543L160.731 45.7548C168.449 54.0489 176.49 63.1164 185.221 73.3686L191.103 80.2781C199.037 89.5701 206.125 97.7124 213.451 105.735C223.287 116.5 232.798 125.802 242.53 134.169C247.629 138.553 252.875 142.696 258.231 146.576C259.109 147.211 259.993 147.829 260.878 148.452L262.182 149.374C263.116 150.022 264.056 150.651 264.996 151.281L266.275 152.146L267.205 152.749L268.136 153.349C268.946 153.873 269.755 154.399 270.568 154.911L271.004 155.179C272.118 155.877 273.233 156.57 274.355 157.244L274.808 157.515C285.98 164.185 298.064 170.033 310.723 174.896C322.759 179.523 335.518 183.51 349.726 187.084C362.519 190.304 375.763 193.224 387.476 195.752L390.371 196.375C405.225 199.569 418.407 202.729 430.62 206.019C443.531 210.242 456.034 215.155 467.781 220.622C478.868 226.611 489.676 232.995 499.862 239.088L593.703 295.214ZM559.253 314.3L544.054 322.726L466.599 276.406C458.383 271.5 450.587 266.866 442.743 262.263C431.165 255.89 419.231 249.887 407.241 244.408C395.449 239.497 383.183 234.752 369.73 229.898L356.71 225.356C348.381 222.444 339.932 219.469 331.633 216.455C318.062 211.522 305.927 206.621 294.535 201.472C282.327 195.953 270.534 189.806 259.483 183.204C248.4 176.561 237.441 169.137 226.833 161.029C216.9 153.441 206.879 145.113 196.197 135.57C188.147 128.379 180.057 120.974 172.172 113.739L166.522 108.552C156.029 99.1151 146.147 90.612 136.284 82.5342C125.938 74.6262 115.15 66.9925 104.193 59.8337L101.198 58.0015C90.7112 51.5988 80.2077 45.3175 70.846 39.7222L2.02113 -1.43707L2.32399 -18.7768L78.6261 26.8555C86.5369 31.5854 94.3135 36.2534 101.993 40.9668L104.917 42.7713L107.832 44.5815C109.143 45.396 110.461 46.2065 111.766 47.0272C122.38 54.2935 132.926 62.2251 143.082 70.5754C152.657 79.0822 162.484 88.3279 172.287 98.0547L181.493 107.192C187.967 113.609 194.571 120.115 201.171 126.432L202.198 127.409L203.223 128.377C211.865 136.567 220.18 143.89 228.491 150.625L229.738 151.631C230.283 152.068 230.827 152.513 231.372 152.946C241.412 160.928 251.85 168.246 262.503 174.675L264.03 175.59C275.152 182.235 287.086 188.309 299.498 193.643C311.136 198.643 323.51 203.253 337.325 207.737C340.069 208.628 342.831 209.51 345.601 210.386C347.08 210.853 348.564 211.314 350.046 211.776C351.282 212.163 352.518 212.553 353.755 212.937C357.162 213.993 360.566 215.04 363.947 216.076L376.26 219.839C389.577 223.917 402.478 228.257 414.568 232.729C426.799 237.802 438.88 243.454 450.443 249.51C460.439 255.245 470.225 261.059 480.84 267.405L559.253 314.3ZM2.36678 -21.0808L2.66981 -38.4111L87.301 12.2025C97.9273 18.5582 109.24 25.3674 120.378 32.581C130.818 40.1011 141.144 48.3893 151.035 57.1869C160.068 65.9584 169.307 75.4694 179.281 86.265L183.846 91.2048C191.222 99.1749 199.25 107.784 207.325 116.055C217.408 126.39 227.102 135.376 236.962 143.526C247.203 151.989 257.951 159.619 268.919 166.209L269.431 166.515C280.561 173.167 292.57 179.128 305.122 184.237C316.989 189.065 329.554 193.366 343.535 197.38C356.932 201.227 370.959 204.86 383.333 208.065L386.501 208.891C399.601 212.334 411.452 215.765 422.604 219.341C435.15 223.993 447.441 229.286 459.093 235.05C470.533 241.433 481.728 248.092 493.142 254.923L576.48 304.763L561.288 313.182L477.887 263.309C468.934 257.969 460.871 253.2 452.568 248.423L451.4 247.754C439.792 241.669 427.656 235.991 415.295 230.865C403.133 226.367 390.196 222.014 376.842 217.924L364.155 214.047C360.932 213.06 357.688 212.063 354.441 211.055C348.922 209.343 343.395 207.603 337.939 205.832C324.182 201.367 311.866 196.778 300.285 191.802C287.953 186.505 276.101 180.472 265.052 173.871C254.033 167.296 243.094 159.704 232.619 151.382L231.734 150.673L230.849 149.958C222.401 143.16 213.956 135.765 205.173 127.47L203.432 125.823C203.141 125.547 202.849 125.269 202.557 124.989C195.945 118.656 189.322 112.133 182.83 105.698L173.7 96.637C163.865 86.8802 154.012 77.6105 144.385 69.0576C134.152 60.6434 123.559 52.6768 112.867 45.3578L111.52 44.5204C102.211 38.6912 92.7938 33.005 83.1968 27.2589L71.3618 20.1796L2.36678 -21.0808ZM3.35837 -77.7154L104.612 -17.1609L108.335 -14.9094C117.524 -9.33658 127.765 -2.98523 137.524 3.80817C147.95 12.21 157.721 21.3886 166.567 31.0902L167.581 32.2068C174.691 40.0672 182.093 48.8849 191.203 60.3541L196.558 67.1208C203.941 76.4321 211.745 86.1182 219.631 95.3227C229.202 106.491 238.528 116.106 248.141 124.713C248.663 125.181 249.195 125.634 249.721 126.096C250.468 126.751 251.21 127.412 251.963 128.056L252.25 128.295C260.674 135.469 269.503 141.894 278.579 147.441L280.02 148.313L280.484 148.585C288.762 153.515 297.603 157.938 306.873 161.78C309.993 163.074 313.161 164.302 316.372 165.462C328.51 169.854 341.459 173.528 355.96 176.698L357.059 176.935L361.018 177.779L362.723 178.132C363.932 178.383 365.143 178.633 366.362 178.88L369.61 179.529L372.288 180.055L375.467 180.67L378.718 181.287L381.716 181.85L386.695 182.767L391.764 183.686L400.548 185.261C415.763 188.017 427.513 190.512 438.313 193.271C451.093 196.535 463.897 200.916 476.372 206.296L478.276 207.296C479.07 207.714 479.867 208.127 480.657 208.549L481.763 209.148C482.832 209.721 483.9 210.295 484.963 210.877L486.053 211.481C487.109 212.063 488.165 212.645 489.218 213.235L490.828 214.145C491.705 214.638 492.581 215.131 493.456 215.631L496.5 217.379L498.579 218.581C502.592 220.91 506.604 223.279 510.639 225.672L610.937 285.656L595.743 294.079L502.934 238.574C492.068 232.071 480.474 225.191 468.66 218.814C456.814 213.302 444.227 208.355 431.202 204.094C418.905 200.782 405.69 197.614 390.802 194.412L385.877 193.35C374.304 190.845 362.19 188.152 350.224 185.138C336.116 181.586 323.432 177.624 311.449 173.02C298.876 168.191 286.895 162.394 275.842 155.789C264.832 149.234 254.038 141.41 243.842 132.644C234.148 124.308 224.693 115.062 214.936 104.379C206.62 95.2757 198.59 85.9626 190.994 77.0478L185.741 70.8789C176.691 60.2892 168.387 50.9743 160.387 42.4415C150.622 33.0463 140.466 24.3331 130.155 16.509C119.852 9.6221 109.474 3.27164 97.0845 -4.14218L3.05585 -60.3743L3.35837 -77.7154ZM122.284 -46.2907C133.53 -39.424 144.451 -32.5901 154.437 -24.4722C164.21 -16.5279 173.408 -7.13406 182.553 4.24637L183.52 5.45554C190.461 14.1682 197.623 23.9196 206.446 36.6695L211.053 43.3399C218.765 54.4798 225.572 64.0888 232.634 73.4459C241.741 85.5119 250.682 95.7794 259.966 104.835C261.945 106.768 263.964 108.626 266.001 110.443C266.493 110.881 266.98 111.332 267.476 111.764L268.4 112.548C274.506 117.805 280.849 122.558 287.374 126.744C288.385 127.395 289.406 128.019 290.427 128.644L291.599 129.371C302.707 136.009 315.043 141.477 328.266 145.625C340.673 149.522 354.02 152.546 369.068 154.869C380.87 156.693 393.066 158.187 404.231 159.467L414.2 160.592C430.442 162.442 442.923 164.26 454.423 166.45C468.893 169.202 481.622 172.983 493.335 178.011C505.876 183.394 517.704 190.326 528.133 196.439L645.38 266.561L630.185 274.983L520.406 209.327L516.821 207.218C506.156 200.957 496.261 195.289 485.782 190.059C473.124 184.974 459.982 180.923 446.724 178.02L445.205 177.69C434.527 175.395 422.898 173.361 408.082 171.2L399.262 169.932C387.844 168.28 375.16 166.353 362.735 164.044C348.074 161.319 335.016 157.991 322.817 153.868C309.928 149.511 297.811 143.969 286.804 137.391L286.552 137.24C285.959 136.882 285.37 136.507 284.78 136.142L283.347 135.261C283.109 135.113 282.871 134.964 282.634 134.812C276.616 130.971 270.734 126.702 265.033 122.045L262.789 120.199C262.414 119.884 262.047 119.555 261.673 119.235C259.515 117.387 257.378 115.494 255.279 113.533C245.902 104.779 236.831 94.9097 227.549 83.3602C219.3 73.0964 211.168 62.2287 203.545 51.885L201.919 49.6769C191.736 35.83 183.744 25.5949 176.005 16.4888C167.314 6.26041 157.689 -3.36212 147.335 -12.1629C136.434 -20.0193 125.174 -26.9545 114.57 -33.3888L3.73635 -99.673L4.04058 -117.007L122.284 -46.2907ZM3.70334 -211.786L3.48384 -199.073L3.4667 -199.083L3.0834 -177.132L3.08769 -177.129L2.4036 -137.842L2.40788 -137.84L2.10537 -120.499L2.10108 -120.501L1.71693 -98.5508L1.71864 -98.5497L1.37488 -78.9014L1.37831 -78.8993L1.07527 -61.5457L1.0667 -61.5509L0.683747 -39.5986L0.691461 -39.594L0.388436 -22.2637L0.385008 -22.2657L0 -0.315887L80.9464 48.0973C88.1294 52.4052 95.6646 56.9502 103.123 61.523C114.014 68.6399 124.763 76.244 135.044 84.1026C144.855 92.1387 154.716 100.622 165.176 110.031L167.873 112.508C176.686 120.597 185.798 128.962 194.865 137.062C205.585 146.639 215.644 154.998 225.619 162.62C235.518 170.183 245.745 177.189 256.054 183.47L258.456 184.921C269.573 191.562 281.434 197.744 293.711 203.293C305.15 208.464 317.331 213.385 330.95 218.335C339.259 221.352 347.713 224.33 356.047 227.243L369.061 231.784C382.473 236.623 394.711 241.356 406.441 246.241C418.354 251.686 430.243 257.666 441.756 264.001L444.741 265.756C452.206 270.151 459.693 274.609 467.601 279.333L544.016 325.034L561.239 315.487L561.247 315.492L580.495 304.824L580.492 304.823L597.71 295.279L597.706 295.277L614.953 285.718L614.95 285.717L632.168 276.173L632.166 276.172L647.364 267.747L647.379 267.757L666.628 257.087L666.611 257.076L681.817 248.652L681.828 248.659L701.076 237.98L701.065 237.973L716.284 229.538L716.299 229.547L727.697 223.228L727.856 214.279L727.824 214.259L728.125 196.933L728.146 196.945L728.53 174.994L728.512 174.983L728.816 157.636L728.833 157.646L729.216 135.694L729.211 135.691L729.513 118.357L729.517 118.359L729.899 96.4073L729.888 96.4006L730.232 76.7653L600.198 -1.00552C597.316 -2.5921 594.439 -4.19095 591.565 -5.79379L581.905 -11.1847C577.418 -13.6846 572.864 -16.206 568.311 -18.6705L565.578 -20.1423C554.323 -26.1692 542.337 -32.111 529.956 -37.8026L526.346 -39.4456C517.587 -43.4092 508.079 -47.55 496.321 -52.5216L489.943 -55.214C480.337 -59.2814 468.5 -64.3916 456.849 -69.8591C444.232 -75.7723 432.802 -81.8154 421.906 -88.332C411.472 -94.5465 401.227 -101.418 390.594 -109.265L389.141 -110.341C379.151 -117.767 369.394 -125.489 361.439 -131.882L353.501 -138.279C345.681 -144.565 336.235 -152.065 326.651 -159.329C315.911 -167.473 305.109 -175.17 294.547 -182.206C289.394 -185.638 284.141 -189.035 278.961 -192.361L273.812 -195.661C269.764 -198.254 265.72 -200.845 261.662 -203.478L130.37 -282L95.9215 -262.904L95.9198 -262.905L42.2116 -233.134L42.2176 -233.131L27.0105 -224.702L27.0053 -224.705L3.70334 -211.786Z" fill="url(#paint0_linear_0_54)"/>
<defs>
<linearGradient id="paint0_linear_0_54" x1="3.8608" y1="48.1379" x2="311.153" y2="397.031" gradientUnits="userSpaceOnUse">
<stop stop-color="#5D5DFF" stop-opacity="0.01"/>
<stop offset="0.538482" stop-color="#5D5DFF" stop-opacity="0.32"/>
<stop offset="1" stop-color="#5D5DFF" stop-opacity="0.01"/>
</linearGradient>
</defs>
</svg>
