<svg  viewBox="0 0 564 552" fill="none" xmlns="http://www.w3.org/2000/svg">
<path fill-rule="evenodd" clip-rule="evenodd" d="M151.631 22.9544C170.656 8.96743 192.385 2.05243 218.788 2.05243C237.653 2.05243 258.908 5.58643 283.249 12.5944C299.104 17.1598 313.523 21.0416 326.531 24.5017C323.414 23.7717 320.215 23.028 316.927 22.2636C303.138 19.0586 287.508 15.4246 269.986 10.9326C153.37 -18.9628 125.867 40.4555 75.9386 148.322L75.936 148.328C73.428 153.747 70.862 159.29 68.225 164.952C38.751 228.231 24.609 264.711 23.961 300.879C23.302 337.617 36.212 373.19 71.594 432.132C106.985 491.089 131.784 518.324 163.095 532.616C164.057 533.055 165.025 533.481 166 533.895C156.27 531.423 147.439 528.27 139.084 524.262C106.331 508.552 81.2043 480.28 46.3703 419.947C11.5363 359.614 -0.384725 323.717 2.38627 287.498C5.11827 251.785 22.4683 216.285 57.9123 154.895C61.0973 149.378 64.1983 143.976 67.2293 138.695L67.2333 138.688C97.0204 86.7957 120.548 45.8084 151.631 22.9544ZM186.138 537.888C184.393 537.626 182.676 537.349 180.987 537.058C175.023 535.356 169.38 533.286 163.925 530.796C133.027 516.692 108.466 489.672 73.309 431.103C38.142 372.519 25.309 337.235 25.96 300.916C26.602 265.107 40.685 228.815 70.038 165.796C72.551 160.401 74.9986 155.113 77.3939 149.939L77.751 149.168L77.7532 149.163C102.404 95.9072 121.875 53.8429 149.231 29.5296C167.549 13.2476 189.296 5.27063 216.819 5.27063C232.386 5.27063 249.804 7.82363 269.489 12.8706C284.195 16.6402 297.565 19.8049 309.633 22.6195C306.836 22.0619 303.968 21.495 301.024 20.9131L301.021 20.9124L301.018 20.9118L300.965 20.9014L300.964 20.9012C288.141 18.3668 273.61 15.4947 257.3 11.8578C148.495 -12.4044 126.33 48.2707 86.0918 158.42L86.0878 158.431L86.0724 158.473C84.0553 163.994 81.9924 169.64 79.8708 175.409C56.1058 240.013 45.0238 277.118 46.3208 313.253C47.6378 349.957 61.3588 384.852 96.9448 442C132.486 499.077 156.681 525.093 186.138 537.888ZM202.736 539.893C199.951 539.629 197.237 539.34 194.588 539.024C192.044 538.151 189.549 537.184 187.088 536.12C158.351 523.692 133.553 497.006 98.6428 440.944C63.2618 384.124 49.6228 349.497 48.3198 313.182C47.0348 277.38 58.0758 240.453 81.7478 176.099C83.6883 170.823 85.579 165.65 87.4312 160.582L87.4375 160.565L87.4453 160.544L87.9668 159.117C107.829 104.745 123.517 61.7998 147.375 36.2058C172.358 9.40283 206.126 2.49383 256.864 13.8098C270.513 16.853 282.912 19.3608 294.107 21.5829C291.576 21.1719 288.983 20.7553 286.322 20.3279L286.251 20.3165L286.25 20.3164L286.249 20.3163L286.248 20.3161C274.342 18.403 260.851 16.2351 245.688 13.3909C144.349 -5.61757 127.156 56.0607 95.9445 168.03L95.942 168.039C94.375 173.661 92.772 179.412 91.121 185.287C72.671 250.939 64.432 288.521 67.513 324.531C70.603 360.64 85.53 395.996 120.753 450.636C154.235 502.574 177.086 527.624 202.736 539.893ZM218.563 541.093C215.254 540.897 212.039 540.677 208.91 540.429C208.822 540.394 208.734 540.358 208.646 540.322C181.609 529.3 157.437 503.851 122.434 449.552C86.95 394.508 72.605 360.577 69.506 324.362C66.451 288.657 74.663 251.243 93.047 185.828C94.5841 180.356 96.0796 174.993 97.544 169.741L97.869 168.576L97.8706 168.57C113.273 113.315 125.439 69.67 146.018 42.9619C162.141 22.0369 183.365 12.0099 212.819 12.0099C222.688 12.0099 233.486 13.1369 245.319 15.3569C257.955 17.7272 269.425 19.6273 279.786 21.3012C277.509 21.0216 275.178 20.7394 272.789 20.4502L272.788 20.4501L272.787 20.4499L272.786 20.4498C261.732 19.1118 249.202 17.5948 235.098 15.4808C140.894 1.3584 128.323 63.7938 105.504 177.13L105.501 177.144L105.454 177.379L105.452 177.387C104.322 183.002 103.166 188.742 101.973 194.607C88.4603 261.047 82.8583 298.968 87.5733 334.77C92.3003 370.668 107.862 405.25 143.079 458.115C174.464 505.226 196.035 529.195 218.563 541.093ZM234.102 541.812C230.524 541.686 227.047 541.54 223.665 541.371C200.117 530.463 177.432 506.073 144.743 457.005C109.257 403.737 94.3003 370.537 89.5563 334.508C85.8283 306.207 87.0303 278.114 103.933 195.005C105.143 189.055 106.316 183.232 107.462 177.539C118.722 121.612 127.616 77.4368 145.128 49.7708C163.422 20.8698 191.079 10.9078 234.801 17.4578C246.509 19.2132 257.127 20.5569 266.718 21.7275C264.646 21.5608 262.525 21.394 260.352 21.2231L260.35 21.2229L260.332 21.2215C250.111 20.4178 238.528 19.5071 225.468 18.0749C138.08 8.49931 129.798 71.4629 114.763 185.767L114.761 185.781L114.714 186.141C113.974 191.764 113.218 197.513 112.434 203.385C103.497 270.378 100.336 308.51 106.538 344.024C112.759 379.636 128.864 413.415 163.981 464.504C193.525 507.485 213.962 530.302 234.102 541.812ZM288.757 542.468C286.435 542.474 284.077 542.477 281.684 542.477C265.861 542.477 251.605 542.342 238.647 541.958C217.724 531.259 196.327 508.03 165.629 463.371C130.236 411.881 114.755 379.441 108.509 343.68C103.602 315.589 103.235 287.47 114.416 203.65C115.202 197.763 115.96 192 116.702 186.363L116.702 186.362L116.744 186.042C124.162 129.642 130.022 85.0939 144.667 56.6149C157.815 31.0459 178.052 19.1329 209.223 19.1329C214.272 19.1329 219.611 19.4449 225.25 20.0639C238.299 21.4936 249.867 22.4041 260.079 23.2079L260.079 23.2079L260.08 23.2079L260.194 23.2169L260.195 23.217C319.721 27.8989 339.774 29.4762 397.121 112.904C433.124 165.281 451.952 196.216 461.574 230.353C471.339 264.993 471.713 302.283 462.954 367.942C454.314 432.708 444.309 466.352 427.271 487.936C410.306 509.427 386.003 520.04 341.211 534.396C339.55 534.928 337.915 535.448 336.306 535.956C334.704 536.351 333.078 536.748 331.426 537.149C329.609 537.59 327.821 538.02 326.061 538.438C324.281 538.753 322.473 539.068 320.638 539.385C318.631 539.732 316.657 540.069 314.714 540.396C312.769 540.616 310.794 540.836 308.79 541.056C306.568 541.3 304.383 541.536 302.233 541.763C300.129 541.88 297.993 541.995 295.825 542.109C293.43 542.234 291.075 542.354 288.757 542.468ZM315.937 544.177C366.385 543.138 398.155 539.013 425.148 526.065C458.307 510.161 483.67 481.671 518.729 420.947C553.789 360.223 565.78 324.013 562.975 287.344C560.213 251.248 542.785 215.552 507.187 153.895C450.238 55.2554 420.977 47.4914 334.119 24.4474L334.063 24.4326C319.289 20.5122 302.547 16.0696 283.802 10.6724C159.031 -25.2532 125.808 32.6252 65.4972 137.695L65.4953 137.698C62.4643 142.979 59.3643 148.38 56.1793 153.895C20.5813 215.552 3.15427 251.247 0.392275 287.344C-2.41373 324.013 9.57828 360.223 44.6373 420.947C79.6973 481.671 105.06 510.161 138.219 526.065C150.812 532.105 164.443 536.225 180.526 539.008C187.432 540.974 194.756 542.451 202.698 543.516C209.14 545.144 215.939 546.264 223.281 546.945C229.28 548.259 235.578 549.05 242.352 549.378C247.955 550.406 253.807 550.895 260.074 550.895C260.179 550.895 260.283 550.895 260.388 550.894C264.058 551.399 267.804 551.636 271.638 551.636C285.104 551.636 299.665 548.71 315.937 544.177ZM334.133 541.626C376.56 538.108 403.888 532.331 426.837 518.794C456.483 501.307 478.299 471.63 507.332 409.296C536.359 346.978 545.48 310.25 540.985 273.783C536.56 237.882 518.682 203.08 482.755 143.227C442.816 76.6921 417.448 53.3146 378.516 38.9267C432.36 55.7896 460.044 76.2376 505.455 154.895C540.898 216.285 558.248 251.786 560.98 287.498C563.752 323.717 551.831 359.614 516.997 419.947C482.163 480.28 457.035 508.552 424.283 524.262C400.987 535.437 373.983 539.968 334.133 541.626ZM428.016 511.441C407.6 526.093 382.749 533.181 343.863 538.743C380.421 535.172 405.003 529.351 425.82 517.072C455.076 499.815 476.677 470.375 505.52 408.453C534.369 346.513 543.444 310.08 538.999 274.028C534.618 238.485 516.82 203.862 481.04 144.256C435.333 68.1098 408.855 48.9224 358.787 34.6912C395.161 47.2061 419.675 69.3877 459.75 133.747C495.888 191.782 514.132 225.671 520.076 261.3C526.111 297.485 519.655 334.591 496.252 398.209C472.84 461.855 454.346 492.543 428.016 511.441ZM352.919 535.353C388.296 527.93 410.736 519.649 428.72 504.039C451.926 483.896 467.313 452.359 485.49 387.676C503.657 323.032 507.648 285.677 500.212 249.846C492.889 214.561 474.356 181.601 438.12 125.392C398.011 63.173 374.336 42.1532 340.365 31.3818C386.878 43.1793 412.189 61.1506 458.053 134.805C494.048 192.611 512.215 226.333 518.103 261.629C524.075 297.433 517.644 334.263 494.375 397.518C471.415 459.934 452.483 491.418 426.85 509.816C408.417 523.044 386.199 530.033 352.919 535.353ZM428.984 496.611C412.586 513.791 390.345 523.236 362.031 531.302C391.662 524.45 411.39 516.433 427.409 502.529C449.992 482.926 465.736 450.573 483.565 387.135C501.636 322.834 505.617 285.735 498.253 250.253C490.995 215.278 472.537 182.473 436.439 126.476C390.582 55.3398 366.403 38.513 323.293 28.9609C354.956 38.1167 377.801 58.0263 417.811 118.088C454.041 172.473 472.792 204.492 481.364 239.366C490.067 274.777 488.356 312.264 475.051 377.681C461.737 443.144 449.251 475.377 428.984 496.611ZM369.222 527.025C394.773 517.612 414.686 507.108 428.842 489.175C446.348 466.997 456.132 434.211 464.936 368.205C473.735 302.249 473.346 264.74 463.499 229.81C458.652 212.614 451.176 195.402 439.969 175.64C429.397 156.997 415.853 136.625 398.769 111.771C358.915 53.7902 336.881 34.9723 307.361 27.3284C347.307 34.8046 370.392 50.5106 416.147 119.196C452.245 173.384 470.921 205.259 479.422 239.844C488.048 274.936 486.332 312.186 473.092 377.283C460.03 441.499 447.258 474.569 427.537 495.23C413.596 509.837 395.957 518.778 369.222 527.025Z" fill="url(#paint0_linear_0_39)"/>
<defs>
<linearGradient id="paint0_linear_0_39" x1="-3.76635" y1="300.204" x2="284.352" y2="577.921" gradientUnits="userSpaceOnUse">
<stop stop-color="#5D5DFF" stop-opacity="0.01"/>
<stop offset="1" stop-color="#5D5DFF" stop-opacity="0.32"/>
</linearGradient>
</defs>
</svg>
