<svg xmlns="http://www.w3.org/2000/svg" width="424" height="268" fill="none"><path fill="url(#a)" fill-rule="evenodd" d="m29-307.631 15.203-8.842 106.087 66.578 16.769 10.616 7.371 4.678 8.964 5.702c9.284 5.927 19.107 12.311 28.681 19.16q2.019 1.442 4.026 2.917a219 219 0 0 1 15.739 12.848 209 209 0 0 1 14.24 14.057c8.886 9.698 17.471 20.76 26.245 33.821 5.379 8.009 10.722 16.347 15.946 24.573l3.893 6.142q2.22 3.508 4.446 7.012l1.429 2.236c8.542 13.287 16.506 24.25 24.305 33.457 9.197 10.86 19.193 19.796 29.73 26.582l1.11.706c10.946 6.869 23.589 12.119 37.578 15.604 12.26 3.057 25.723 5.26 42.368 6.933l14.537 1.45c9.631.967 19.418 1.997 28.94 3.237 15.22 1.98 28.674 4.758 41.129 8.49 12.493 3.761 24.974 8.929 37.093 15.356 10.623 5.676 21.014 11.885 30.789 17.887l3.697 2.276c10.233 6.331 20.44 12.682 30.632 19.024L726.51 111.73l-.305 18.196-110.887-69.592q-7.29-4.542-14.596-9.082l-11.452-7.11-7.738-4.796-2.585-1.59c-11.518-7.072-21.549-12.965-32.123-18.344-12.292-6.213-25.152-10.993-38.22-14.207-12.628-3.105-26.527-5.29-42.495-6.683-7.235-.63-14.616-1.17-21.895-1.676l-13.798-.95-8.663-.614q-3.064-.226-6.016-.487c-13.797-1.223-25.802-3.048-36.548-5.551-13.531-3.15-25.745-8.035-36.319-14.524l-1.039-.646c-10.689-6.74-20.781-15.84-29.998-27.051-8.189-9.962-16.393-21.834-25.081-36.297a2385 2385 0 0 1-5.72-9.577l-6.524-10.982c-3.701-6.218-7.47-12.511-11.242-18.632-8.628-14.004-16.928-25.749-25.373-35.906a188.7 188.7 0 0 0-29.534-28.521c-10.723-8.24-22.036-15.659-32.664-22.449a8661 8661 0 0 0-24.321-15.443l-8.841-5.595zm32.422-18.866 97.6 61.252c8.264 5.226 16.546 10.462 24.835 15.723l8.291 5.271c9.933 6.33 21.607 13.872 32.867 21.823 11.162 7.926 21.51 16.545 30.757 25.621 9.396 9.254 18.657 19.884 27.526 31.594 7.404 9.777 14.698 20.132 21.801 30.316l3.681 5.287c9.725 13.969 18.164 24.848 26.558 34.237 9.363 10.473 19.422 19.198 29.92 25.953l1.205.766c10.941 6.86 23.471 12.292 37.241 16.142 11.863 3.316 25.055 5.982 41.518 8.391l5.98.877c12.009 1.768 24.276 3.641 36.259 5.942 14.132 2.715 27.542 6.324 39.852 10.728 12.254 4.407 24.158 9.852 36.39 16.65 12.036 6.711 23.599 13.762 34.303 20.38l9.025 5.6q7.215 4.476 14.415 8.958l9.206 5.732 34.432 21.604 61.752 38.756-.304 18.194-91.117-57.186-1.006-.63-10.292-6.46c-7.498-4.669-14.998-9.339-22.51-14l-11.345-7.029-3.645-2.244c-9.799-6.017-20.22-12.244-30.891-17.946-12.229-6.485-24.827-11.7-37.446-15.501-12.555-3.763-26.108-6.562-41.434-8.555-10.735-1.397-21.791-2.528-32.583-3.603l-10.949-1.09c-16.55-1.664-29.925-3.852-42.096-6.886-13.406-3.345-25.55-8.323-36.112-14.804l-1.09-.678c-10.701-6.747-20.853-15.748-30.17-26.753-8.189-9.671-16.551-21.272-25.565-35.464l-2.224-3.504-2.221-3.506c-6.455-10.19-13.13-20.728-19.87-30.762-8.833-13.145-17.481-24.288-26.439-34.068a211 211 0 0 0-13.565-13.445 219 219 0 0 0-16.716-13.729q-2.04-1.5-4.096-2.97c-9.65-6.9-19.456-13.271-28.71-19.175l-1.335-.848a7167 7167 0 0 0-15.024-9.546l-16.811-10.645-105.051-65.927zm17.232-10.024 89.112 55.924c8.269 5.224 16.554 10.459 24.847 15.717l11.353 7.214c8.666 5.528 19.361 12.434 29.96 19.645a335 335 0 0 1 18.12 13.294l2.271 1.798.551.45a286 286 0 0 1 10.52 8.912c9.77 8.709 19.481 18.566 28.86 29.299a542 542 0 0 1 6.525 7.623l1.629 1.946c4.891 5.87 9.844 12.03 15.197 18.792l4.389 5.562.752.95c9.772 12.336 18.124 22.019 26.16 30.339a182 182 0 0 0 4.737 4.719l1.197 1.144c.551.522 1.097 1.059 1.652 1.573l.911.82c7.033 6.431 14.297 12.079 21.709 16.845l1.322.84c10.921 6.85 23.292 12.53 36.772 16.884 2.121.686 4.298 1.358 6.539 2.022l1.782.522c8.982 2.603 19.012 5.062 30.853 7.575l1.19.25c13.11 2.76 27.118 5.816 40.712 9.462q2.537.686 5.047 1.404c11.711 3.355 22.959 7.262 33.503 11.638 11.723 4.893 23.416 10.727 35.746 17.836 6.442 3.738 12.904 7.595 19.272 11.428l8.858 5.345 6.13 3.704 120.363 75.54-.302 18.192-93.999-58.995-10.425-6.481q-7.204-4.485-14.426-8.965c-3.007-1.867-6.002-3.738-9.015-5.603l-3.606-2.225c-9.697-5.971-20.043-12.217-30.775-18.202-12.325-6.849-24.323-12.339-36.68-16.78-12.405-4.438-25.909-8.074-40.139-10.807-13.02-2.5-26.355-4.493-39.334-6.396l-2.988-.437c-16.383-2.397-29.499-5.049-41.28-8.343-13.59-3.798-25.947-9.153-36.728-15.914l-.254-.16c-10.683-6.736-20.923-15.547-30.441-26.193-7.929-8.87-15.907-19.089-24.993-32.027l-1.476-2.111-3.551-5.098c-7.134-10.232-14.462-20.637-21.912-30.474-8.938-11.798-18.266-22.502-27.725-31.82-9.325-9.152-19.756-17.842-31.004-25.829-11.19-7.906-22.449-15.186-32.95-21.877a9464 9464 0 0 0-24.281-15.402l-8.888-5.621-96.571-60.605zm2.024-1.176 15.204-8.843 113.837 71.446 4.776 3.098 10.613 6.874c5.868 3.804 11.824 7.68 17.69 11.556 12.017 7.999 22.511 15.667 32.083 23.437 10.019 8.139 20.141 17.292 30.085 27.204l1.68 1.686c9.218 9.284 18.006 18.764 25.025 26.452l4.404 4.825c7.409 8.084 16.691 17.947 26.444 27.147a227 227 0 0 0 5.739 5.213c8.108 7.161 16.406 13.489 24.761 18.848l1.504.959c10.856 6.813 23.04 12.788 36.215 17.762 12.415 4.688 25.137 8.621 35.466 11.66l6.682 1.95c14.42 4.222 25.619 7.755 35.973 11.343 13.058 4.534 25.632 9.629 37.371 15.141 11.129 5.258 22.64 11.431 35.193 18.874a2609 2609 0 0 1 17.756 10.712l12.882 7.833 3.518 2.135 111.954 70.262-.302 18.19-119.38-74.924-6.409-3.866-6.116-3.696c-7.179-4.33-14.495-8.712-21.789-12.94-12.426-7.166-24.193-13.036-35.974-17.951a279 279 0 0 0-4.59-1.858c-10.809-4.268-22.29-8.05-34.2-11.264-9.094-2.44-18.359-4.61-27.421-6.607-3.022-.666-6.022-1.314-8.984-1.945l-5.65-1.198-2.408-.516c-11.515-2.494-21.276-4.938-30.015-7.527-2.229-.66-4.393-1.33-6.506-2.014-13.34-4.31-25.565-9.922-36.335-16.677l-.26-.164c-10.673-6.73-21.065-15.297-30.89-25.469l-1.172-1.222c-7.833-8.214-16.033-17.796-25.637-29.955l-2.617-3.319c-9.069-11.491-16.933-21.221-25.156-30.642-9.432-10.793-19.202-20.712-29.04-29.48a277 277 0 0 0-5.116-4.44l-2.232-1.879a293 293 0 0 0-5.081-4.12c-6.031-4.794-12.397-9.49-19.237-14.175l-1.888-1.281c-11.328-7.661-22.549-14.857-31.184-20.347-11.063-7.034-22.12-14.019-33.178-21.006zm32.431-18.86 105.356 66.122 6.932 4.468 6.943 4.464a4839 4839 0 0 1 19.299 12.445l2.224 1.455c11.735 7.701 21.435 14.455 30.371 21.144 10.366 7.765 20.841 16.315 31.135 25.413l1.752 1.554c9.905 8.814 19.425 17.778 26.937 24.931l3.884 3.698c7.753 7.363 17.482 16.42 27.706 25.139 10.334 8.81 20.416 16.331 30.762 22.944l1.518.962.223.141c10.956 6.874 22.61 12.987 35.626 18.688l2.127.926c11.703 5.06 23.477 9.582 32.993 13.14l6.83 2.549c9.781 3.668 21.687 8.232 33.414 13.135 12.616 5.279 24.847 10.987 36.35 16.968l1.867.977c9.984 5.255 20.492 11.244 32.878 18.735q6.587 4.002 13.154 8.027l6.567 4.023c4.79 2.936 9.577 5.871 14.358 8.787L727.88 29.275l-.302 18.185-110.981-69.652-5.142-3.123-14.03-8.532a2423 2423 0 0 0-15.012-9.047c-12.607-7.474-24.172-13.676-35.358-18.96-11.801-5.543-24.438-10.663-37.562-15.22l-2.174-.748c-12.318-4.209-24.591-7.904-34.476-10.796l-6.198-1.81c-10.305-3.035-22.959-6.95-35.225-11.58-12.598-4.758-24.282-10.438-34.749-16.895l-1.482-.925c-10.613-6.692-21.152-14.95-31.327-24.548-9.751-9.206-18.988-19.02-26.351-27.055l-5.602-6.135c-7.248-7.921-16.211-17.544-25.559-26.881-9.997-9.965-20.172-19.164-30.239-27.343-9.591-7.789-20.134-15.494-32.238-23.552-6.848-4.525-13.812-9.045-20.616-13.451l-2.905-1.881c-3.194-2.068-6.387-4.134-9.587-6.214L97.91-347.718zm17.223-10.021 130.272 81.756q4.03 2.743 8.08 5.467l4.049 2.723c6.809 4.576 13.85 9.308 20.705 14.099 9.871 6.9 19.953 14.407 29.997 22.339l2.008 1.592c9.565 7.611 18.997 15.469 26.807 22.056l7.841 6.629c7.986 6.737 17.801 14.891 27.858 22.734 11.208 8.749 22.006 16.368 32.93 23.213 10.953 6.874 22.443 13.248 35.122 19.486l2.069 1.013c10.349 5.048 20.727 9.767 29.458 13.658l9.948 4.412c12.456 5.542 22.37 10.106 31.646 14.562 12.344 5.954 24.292 12.17 35.512 18.475 5.449 3.064 10.923 6.24 16.302 9.384l11.811 6.915q3.232 1.888 6.456 3.75L728.212 8.654l-.303 18.186-102.567-64.373-7.052-4.309-7.049-4.318q-6.656-4.081-13.322-8.154l-6.677-4.064-2.309-1.392c-12.202-7.333-22.598-13.202-32.546-18.382-11.509-5.986-23.789-11.718-36.5-17.037l-2.103-.875c-11.215-4.644-22.331-8.898-31.517-12.34l-9.328-3.486c-9.578-3.605-21.076-8.079-32.386-13.035-12.214-5.35-23.671-11.317-34.074-17.748l-1.738-1.084c-10.291-6.489-20.302-13.866-30.545-22.51l-1.281-1.087c-8.08-6.889-16.53-14.546-27.059-24.528l-7.331-6.971c-7.535-7.143-16.635-15.643-25.862-23.797-10.37-9.162-20.886-17.747-31.262-25.518l-1.689-1.259c-9.059-6.717-18.972-13.561-31.014-21.416a3892 3892 0 0 0-12.873-8.312l-6.434-4.138a6784 6784 0 0 1-13.883-8.937l-104.375-65.507zm595.511 517.092L606.672 75.722l-8.029-4.99q-8.609-5.356-17.231-10.705l-8.629-5.344-2.221-1.368c-9.737-5.984-20.909-12.648-32.634-18.34-12.245-5.884-25.338-10.267-38.915-13.03-12.711-2.588-26.853-4.34-43.236-5.356a1739 1739 0 0 0-15.504-.878l-12.703-.665c-5.503-.292-11.074-.6-16.554-.948-16.283-1.031-30.252-2.927-42.705-5.792C354.385 5.1 341.869.05 331.11-6.698l-.216-.136c-10.677-6.733-20.75-15.843-29.935-27.08-8.301-10.151-16.457-22.1-24.937-36.53-3.585-6.092-7.178-12.337-10.686-18.453l-5.252-9.158a1869 1869 0 0 0-7.119-12.304c-8.512-14.569-16.563-26.739-24.613-37.204-8.651-11.248-18.362-21.244-28.866-29.716-10.624-8.52-21.911-15.961-32.526-22.735a9317 9317 0 0 0-22.371-14.198l-10.796-6.831-122.016-76.576 15.191-8.835 114.526 71.873.746.472c10.781 6.823 21.593 13.663 32.407 20.56l3.361 2.154c9.581 6.163 19.601 12.846 29.157 20.195a186.8 186.8 0 0 1 29.212 28.208c8.373 10.063 16.616 21.729 25.201 35.665 3.792 6.155 7.585 12.486 11.308 18.743l3.697 6.223c2.817 4.742 5.634 9.487 8.469 14.205l1.413 2.338c8.221 13.502 16.037 24.713 23.846 34.212 9.099 11.074 19.049 20.122 29.592 26.912l1.078.685c10.953 6.868 23.66 12.017 37.767 15.302 10.833 2.522 22.925 4.36 36.812 5.592q2.975.264 6.063.49l8.686.616 13.807.953c7.257.505 14.613 1.041 21.82 1.669 15.867 1.384 29.673 3.554 42.203 6.635 12.944 3.187 25.664 7.915 37.805 14.054 10.867 5.522 21.219 11.636 33.267 19.053l4.892 3.024 8.264 5.123 8.938 5.556c4.435 2.759 8.805 5.482 13.055 8.132l111.785 70.158zm-.125 9.407-9.381 5.457-118.411-74.314-4.708-2.933q-9.701-6.045-19.423-12.087l-9.732-6.034c-10.272-6.352-22.296-13.621-34.996-19.505-12.056-5.546-25.326-9.623-39.442-12.12-12.675-2.242-26.948-3.756-43.635-4.63q-4.69-.242-9.387-.468l-12.334-.597c-7.682-.378-15.469-.79-23.098-1.301-16.079-1.08-29.996-3.064-42.547-6.06-13.467-3.223-25.651-8.145-36.232-14.635l-1.101-.686c-10.685-6.736-20.788-15.788-30.034-26.904-8.426-10.129-16.634-21.988-25.094-36.255-5.505-9.283-10.979-18.916-16.273-28.233a4371 4371 0 0 0-6.712-11.783c-8.537-14.908-16.452-27.305-24.2-37.897-8.659-11.831-18.193-22.14-28.339-30.646-10.411-8.662-21.731-16.159-32.414-22.969a9055 9055 0 0 0-23.279-14.763l-9.893-6.255-119.59-75.054.22-13.321 4.06-2.364 123.008 77.198.899.569c10.73 6.79 21.49 13.6 32.257 20.456 10.596 6.764 21.848 14.184 32.348 22.606 10.377 8.369 19.976 18.251 28.527 29.37 7.99 10.388 15.994 22.484 24.466 36.98a1980 1980 0 0 1 7.104 12.281l7.012 12.225c2.95 5.134 5.948 10.327 8.942 15.416 8.556 14.553 16.773 26.587 25.121 36.794 9.089 11.112 19.039 20.183 29.593 26.981l1.051.668c10.954 6.87 23.671 12.002 37.798 15.252 12.547 2.89 26.619 4.8 43.014 5.84 6.571.416 13.27.776 19.825 1.12l9.415.492c5.159.273 10.384.56 15.524.878 16.299 1.012 30.355 2.752 42.973 5.321 13.442 2.738 26.383 7.07 38.458 12.877 11.348 5.509 22.07 11.824 34.679 19.61a13085 13085 0 0 1 33.764 20.977l120.315 75.508zm-26.633 15.473-109.928-68.989a12946 12946 0 0 0-33.853-21.07l-2.513-1.554c-10.112-6.232-20.919-12.617-32.571-17.818-11.959-5.298-25.334-9.192-39.754-11.572-12.697-2.095-26.588-3.51-43.719-4.457l-14.667-.801c-9.948-.55-20.061-1.153-29.916-1.958-15.827-1.292-29.622-3.485-42.176-6.703-13.684-3.506-26.11-8.726-36.937-15.513l-.237-.15c-10.729-6.765-20.896-15.704-30.222-26.572-8.605-10.032-16.932-21.678-25.455-35.608-6.162-10.074-12.245-20.579-18.159-30.847l-5.042-8.757-1.287-2.225c-7.892-13.582-14.881-24.602-21.811-34.394l-1.012-1.425c-8.701-12.164-18.129-22.656-28.025-31.183-9.632-8.278-19.891-15.241-32.33-23.151a13757 13757 0 0 0-33.182-21L5.104-260.132l.302-18.195 118.602 74.432 17.024 10.771a9495 9495 0 0 1 16.139 10.242l2.785 1.782c9.789 6.292 19.991 13.185 29.421 21.037 10.022 8.395 19.442 18.584 27.997 30.282l1.287 1.772c7.297 10.137 14.767 21.915 22.786 35.926q2.224 3.886 4.44 7.787l2.217 3.901c5.316 9.356 10.812 19.03 16.344 28.357 8.525 14.366 16.795 26.313 25.285 36.525 9.119 10.972 19.084 19.97 29.632 26.763l1.107.704c10.961 6.874 23.641 12.063 37.691 15.424 12.635 3.022 26.656 5.02 42.863 6.11 7.631.512 15.414.923 23.091 1.301l7.632.37c4.712.228 9.424.453 14.125.699l2.744.15c15.424.882 28.75 2.34 40.658 4.45 13.956 2.468 27.068 6.497 38.969 11.974 11.736 5.435 22.912 12.08 32.648 18.072l2.138 1.32c6.286 3.89 12.561 7.79 18.827 11.69l15.018 9.35 117.411 73.688zm-17.211 10.035-135.242-84.878-3.429-2.081c-9.654-5.844-20.377-12.151-31.753-17.112-11.856-5.17-25.253-9.019-39.822-11.44l-1.755-.286c-11.761-1.882-24.743-3.287-40.583-4.393l-9.566-.658c-11.896-.827-24.011-1.728-35.764-2.949-15.527-1.615-29.158-4.094-41.674-7.58-13.485-3.757-25.838-9.122-36.714-15.941l-.258-.163c-10.771-6.792-21.016-15.59-30.456-26.153-8.821-9.874-17.313-21.236-25.961-34.736-6.811-10.638-13.406-21.614-19.815-32.396l-3.822-6.442c-9.034-15.229-16.748-27.214-24.278-37.716-8.778-12.242-18.179-22.777-27.941-31.31-10.515-9.193-22.185-16.807-32.298-23.224a15228 15228 0 0 0-33.192-20.982L4.766-239.518l.302-18.186 110.198 69.158c11.036 6.968 22.1 13.96 33.173 20.996l2.367 1.511c11.31 7.249 20.805 13.796 29.731 21.466 9.783 8.438 19.1 18.807 27.695 30.822l.54.759.54.763c7.25 10.26 14.562 21.86 22.907 36.333l3.083 5.35c2.022 3.515 4.072 7.067 6.133 10.628a1409 1409 0 0 0 8.896 15.189c.742 1.245 1.491 2.468 2.236 3.706l1.922 3.197.969 1.595c8.576 14.022 16.967 25.757 25.654 35.88 9.19 10.71 19.191 19.577 29.745 26.373l1.174.747c10.995 6.893 23.608 12.193 37.486 15.75 12.665 3.246 26.565 5.455 42.497 6.756 9.868.806 19.984 1.409 29.935 1.96l14.699.804c17.02.935 30.846 2.344 43.512 4.434 14.258 2.353 27.477 6.199 39.285 11.43 12.495 5.576 24.066 12.565 34.848 19.246a12876 12876 0 0 1 33.847 21.068l108.93 68.364zm-17.24 10.008-126.746-79.544-3.425-2.092c-9.645-5.874-20.357-12.213-31.716-17.186-11.788-5.163-25.136-9.093-39.672-11.68l-1.633-.286c-11.22-1.94-23.786-3.526-39.22-4.953l-2.279-.208c-5.13-.46-10.215-.924-15.255-1.407l-2.683-.26q-3.354-.33-6.681-.676a878 878 0 0 1-9.96-1.096 677 677 0 0 1-4.881-.587l-4.087-.517c-15.238-2.002-28.682-4.809-41.101-8.581-13.286-4.036-25.558-9.555-36.476-16.4-10.92-6.858-21.35-15.557-30.989-25.88-9.018-9.658-17.696-20.694-26.529-33.74a655 655 0 0 1-3.611-5.396c-5.906-8.916-11.715-18.125-17.289-27.073l-4.664-7.501c-6.244-10.007-11.814-18.528-17.072-26.1l-.562-.807a399 399 0 0 0-5.689-7.955c-8.92-12.147-18.367-22.598-28.076-31.057-9.977-8.693-20.518-15.673-32.281-23.257l-127.634-80.1.303-18.186 101.808 63.893c11.034 6.962 22.098 13.942 33.174 20.971l2.1 1.337c9.542 6.09 20.259 13.231 29.952 21.703 9.636 8.423 18.93 18.839 27.624 30.961l1.043 1.463c7.142 10.067 14.527 21.593 23.133 36.1l3.841 6.47c6.437 10.83 13.053 21.842 19.837 32.428 8.71 13.6 17.268 25.049 26.16 35 9.276 10.384 19.326 19.084 29.892 25.885l1.256.799c11.033 6.92 23.558 12.359 37.226 16.167 12.618 3.517 26.353 6.015 41.989 7.64 13.003 1.352 26.431 2.31 39.521 3.21l4.683.32 3.534.25c15.496 1.133 28.224 2.57 39.815 4.492 14.397 2.389 27.643 6.191 39.367 11.304 12.62 5.503 24.485 12.713 34.94 19.067l134.211 84.231zm-17.208 10.031-118.279-74.231-4.586-2.812c-9.334-5.699-19.625-11.769-30.441-16.641-11.839-5.333-24.703-9.344-39.328-12.266l-1.55-.306c-11.411-2.225-23.844-4.093-39.911-5.994l-5.714-.674c-11.981-1.422-25.356-3.1-38.248-5.19-14.947-2.422-28.197-5.571-40.509-9.628-13.074-4.306-25.267-9.976-36.238-16.856l-.274-.173-1.352-.881c-.835-.539-1.669-1.074-2.499-1.632-7.738-5.22-15.244-11.282-22.388-18.088-.361-.343-.726-.675-1.086-1.023l-.244-.244a185 185 0 0 1-3.42-3.407c-9.213-9.428-18.088-20.124-27.133-32.702L232.718.614c-7.271-10.202-14.354-20.78-22.536-33.228l-2.095-3.187c-9.257-14.038-16.698-24.631-23.98-34.145-9.241-12.069-18.535-22.03-28.414-30.451-10.105-8.614-21.08-15.822-32.379-23.062L4.085-198.284l.303-18.191 126.637 79.476 3.852 2.492c10.156 6.605 19.41 12.935 28.189 20.585 9.597 8.363 18.939 18.7 27.769 30.724a413 413 0 0 1 7.692 10.851l.882 1.29c4.732 6.947 9.757 14.708 15.324 23.656l3.563 5.736c5.833 9.374 11.946 19.077 18.235 28.542a665 665 0 0 0 3.144 4.69c8.891 13.135 17.635 24.253 26.731 33.993 9.376 10.04 19.487 18.57 30.075 25.376l1.317.837c11.065 6.939 23.494 12.528 36.945 16.614 12.519 3.804 26.065 6.632 41.41 8.648l1.648.201a652 652 0 0 0 11.472 1.367q2.936.328 5.892.634l3.271.336 4.724.468 1.444.14c3.767.36 7.547.714 11.355 1.062l6.088.552c16.122 1.49 29.104 3.155 40.696 5.219 14.389 2.56 27.589 6.443 39.239 11.545 12.629 5.529 24.465 12.772 34.898 19.158l125.741 78.913zm-34.461 20.029-101.292-63.57-3.469-2.15a1546 1546 0 0 0-6.781-4.175l-2.692-1.644-1.575-.953-2.671-1.608c-5.737-3.434-11.404-6.714-17.224-9.878l-.066-.033c-12.551-5.684-25.467-10.323-38.391-13.788l-2.234-.592c-10.241-2.676-21.45-5.142-35.666-7.846l-9.455-1.778a2286 2286 0 0 1-4.547-.865l-3.733-.721-2.515-.492-3.591-.71-1.796-.362-3.275-.666-1.951-.404-3.297-.69-1.788-.384-3.525-.764c-.949-.209-1.894-.425-2.841-.638-.735-.165-1.473-.328-2.206-.496-14.387-3.3-27.253-7.133-39.335-11.715a213 213 0 0 1-9.409-3.826c-9.172-3.99-17.926-8.585-26.133-13.711l-.28-.17c-9.92-6.276-19.609-13.621-28.786-21.927l-1.144-1.043c-.605-.556-1.216-1.104-1.818-1.669-9.553-8.973-18.818-18.996-28.325-30.644-8.472-10.374-16.855-21.342-24.721-31.779l-3.03-4.022c-9.832-13.014-17.701-22.834-25.355-31.65-8.911-10.257-18.758-19.963-29.321-28.893-9.857-7.203-20.134-13.892-29.35-19.757l-3.733-2.368L3.396-157.052l.302-18.195 109.842 68.935 3.356 2.142c9.565 6.12 19.564 12.694 29.207 19.984a256 256 0 0 1 28.38 29.775l1.479 1.836c6.921 8.646 14.15 18.376 23.062 31.045l1.285 1.83c8.081 11.528 16.784 23.8 25.682 35.417 9.324 12.175 18.457 22.603 27.925 31.88 9.9 9.703 20.497 18.14 31.503 25.079l.36.226c11.13 6.978 23.376 12.858 36.402 17.477 12.289 4.359 25.435 7.876 40.189 10.753 12.724 2.478 25.528 4.529 40.683 6.807l1.523.229c17.108 2.566 29.975 4.916 41.721 7.615a236.4 236.4 0 0 1 38.704 12.518c11.572 6.065 22.87 12.966 34.382 20.089l108.777 68.269zm-19.262 11.211-15.196 8.838-84.326-52.922c-10.287-6.459-20.396-12.773-30.674-18.864l-3.475-2.047c-11.762-6.107-24.118-11.691-36.767-16.611-11.703-3.94-24.056-7.679-37.708-11.415l-8.26-2.248c-10.962-2.987-22.157-6.084-33.202-9.416-13.911-4.196-26.41-8.685-38.212-13.721-11.939-5.098-23.38-11.011-34.034-17.59l-1.878-1.172c-10.889-6.866-21.561-14.814-31.726-23.632-9.811-8.505-19.453-17.885-29.481-28.673l-1.879-2.026c-7.803-8.444-15.339-16.941-24.022-26.8l-2.106-2.393C170.764 4.663 161.5-5.345 152.403-14.61c-9.97-9.307-20.349-18.05-30.89-26.015-10.294-7-20.917-13.75-31.02-20.1l-87.79-55.095.302-18.185 95.58 59.986c11.289 7.109 20.92 13.331 30.4 19.983 10.234 8.15 20.329 17.239 29.971 26.977l1.775 1.994c7.718 8.704 15.759 18.22 24.49 28.977l5.882 7.251c7.934 9.75 15.021 18.295 22.348 26.714 9.836 11.297 19.347 21.057 29.079 29.838a243 243 0 0 0 15.701 13.019c.878.666 1.762 1.315 2.647 1.968l1.304.968c.934.68 1.874 1.34 2.814 2.001l1.279.907.93.634.931.63c.81.549 1.618 1.101 2.432 1.639l.436.28c1.114.733 2.229 1.46 3.351 2.167l.453.285c11.172 6.999 23.256 13.136 35.915 18.239 12.036 4.855 24.795 9.039 39.003 12.79 12.793 3.378 26.037 6.443 37.75 9.095l2.895.654c14.854 3.352 28.036 6.668 40.249 10.121 12.911 4.431 25.414 9.586 37.161 15.323 11.087 6.285 21.895 12.983 32.081 19.378zm-34.45 20.029-15.199 8.841-77.455-48.606a3580 3580 0 0 0-23.856-14.842 526 526 0 0 0-35.502-18.735c-11.791-5.154-24.058-10.133-37.511-15.227l-13.02-4.766c-8.329-3.056-16.778-6.178-25.077-9.341-13.571-5.176-25.706-10.319-37.098-15.723-12.208-5.791-24.001-12.241-35.052-19.169a351 351 0 0 1-32.65-23.27c-9.933-7.962-19.954-16.702-30.636-26.716-8.05-7.545-16.14-15.316-24.025-22.909l-5.65-5.442c-10.493-9.903-20.375-18.826-30.238-27.302a535 535 0 0 0-32.091-23.821l-2.995-1.923c-10.487-6.719-20.99-13.31-30.352-19.182L2.021-74.587l.303-18.196 76.302 47.885c7.911 4.964 15.688 9.862 23.367 14.808l2.924 1.894 2.915 1.9c1.311.854 2.629 1.704 3.935 2.566C122.38-16.105 132.926-7.782 143.082.98c9.576 8.927 19.402 18.63 29.205 28.836l9.206 9.588c6.474 6.734 13.078 13.562 19.678 20.19l1.027 1.026 1.025 1.016c8.642 8.594 16.958 16.278 25.268 23.346l1.247 1.055c.545.459 1.089.926 1.634 1.38 10.04 8.376 20.478 16.055 31.131 22.802l1.527.96c11.122 6.973 23.056 13.347 35.468 18.944 11.638 5.247 24.012 10.085 37.827 14.79 2.744.935 5.506 1.861 8.276 2.78 1.479.49 2.963.973 4.445 1.458 1.236.406 2.472.816 3.709 1.218a2957 2957 0 0 0 10.192 3.295l12.313 3.948c13.317 4.28 26.218 8.834 38.308 13.527a436 436 0 0 1 35.875 17.609c9.996 6.018 19.782 12.119 30.397 18.779zM2.367-95.2l.303-18.186L87.3-60.274c10.627 6.67 21.94 13.815 33.078 21.384 10.44 7.892 20.766 16.589 30.656 25.821 9.034 9.204 18.273 19.185 28.247 30.514l4.565 5.183c7.375 8.364 15.404 17.398 23.479 26.077 10.082 10.845 19.777 20.275 29.637 28.827 10.241 8.881 20.989 16.887 31.957 23.803l.512.321c11.13 6.98 23.139 13.236 35.691 18.596 11.867 5.068 24.431 9.58 38.413 13.793 13.397 4.036 27.424 7.849 39.797 11.212l3.169.867c13.1 3.613 24.951 7.213 36.103 10.966 12.546 4.882 24.837 10.435 36.489 16.484 11.44 6.698 22.635 13.686 34.049 20.854l83.338 52.3-15.192 8.835-83.401-52.334c-8.953-5.604-17.016-10.609-25.319-15.621l-1.168-.703a437 437 0 0 0-36.105-17.722c-12.162-4.72-25.1-9.289-38.453-13.58l-12.687-4.068a2826 2826 0 0 1-9.715-3.14 1270 1270 0 0 1-16.501-5.481c-13.757-4.685-26.073-9.501-37.654-14.722-12.332-5.559-24.184-11.89-35.233-18.817-11.019-6.899-21.958-14.867-32.433-23.599l-.885-.744-.885-.75c-8.449-7.134-16.893-14.894-25.676-23.598l-1.741-1.729q-.437-.434-.875-.875c-6.613-6.645-13.235-13.49-19.728-20.243l-9.13-9.509c-9.834-10.238-19.687-19.965-29.314-28.94-10.233-8.83-20.826-17.19-31.518-24.87l-1.347-.879c-9.309-6.117-18.726-12.084-28.323-18.113l-11.835-7.43zm.991-59.431 101.254 63.544 3.723 2.363c9.189 5.848 19.43 12.513 29.189 19.641a267 267 0 0 1 29.043 28.63l1.014 1.17c7.11 8.25 14.512 17.502 23.622 29.538l5.355 7.1c7.383 9.771 15.187 19.936 23.073 29.595 9.571 11.72 18.897 21.809 28.51 30.84.522.492 1.054.967 1.581 1.452.746.687 1.489 1.38 2.242 2.056l.286.252c8.424 7.528 17.253 14.27 26.329 20.09l1.441.915.464.286c8.278 5.174 17.119 9.814 26.389 13.846a214 214 0 0 0 9.499 3.865c12.138 4.608 25.087 8.464 39.588 11.79l1.099.248 3.959.886 1.706.37q1.81.397 3.638.786l3.248.681 2.678.552 3.179.645 3.251.647 2.998.591 4.979.962 5.069.965 8.784 1.652c15.215 2.893 26.965 5.511 37.765 8.406 12.78 3.425 25.584 8.023 38.059 13.667l1.904 1.051c.794.438 1.591.871 2.381 1.314l1.106.628q1.605.901 3.2 1.815l1.09.634c1.056.611 2.112 1.222 3.165 1.841l1.61.955a394 394 0 0 1 2.628 1.559l3.044 1.834 2.079 1.261c4.013 2.445 8.025 4.93 12.06 7.442l100.298 62.945-15.194 8.838-92.809-58.244c-10.866-6.824-22.46-14.044-34.274-20.736-11.846-5.784-24.433-10.976-37.458-15.447-12.296-3.476-25.512-6.8-40.4-10.16l-4.924-1.115c-11.574-2.627-23.688-5.453-35.654-8.617-14.108-3.727-26.792-7.885-38.775-12.715-12.573-5.068-24.554-11.15-35.607-18.082-11.01-6.879-21.804-15.089-32-24.288-9.694-8.747-19.149-18.45-28.906-29.66-8.316-9.553-16.346-19.326-23.942-28.68l-5.252-6.474c-9.051-11.112-17.355-20.887-25.355-29.841-9.765-9.86-19.921-19.003-30.232-27.213-10.303-7.227-20.681-13.89-33.07-21.67l-94.03-59.009zm118.926 32.976c11.246 7.206 22.167 14.377 32.153 22.896 9.773 8.336 18.971 18.194 28.116 30.136l.967 1.269c6.941 9.143 14.103 19.376 22.926 32.755l4.607 7c7.712 11.69 14.519 21.773 21.581 31.592 9.107 12.661 18.048 23.436 27.332 32.939a185 185 0 0 0 6.035 5.884c.492.46.979.933 1.475 1.386l.924.823c6.106 5.516 12.448 10.505 18.974 14.897 1.011.683 2.032 1.338 3.053 1.994l1.172.763c11.108 6.966 23.444 12.703 36.667 17.056 12.407 4.089 25.754 7.263 40.802 9.7 11.802 1.914 23.998 3.482 35.163 4.825l9.969 1.181c16.242 1.941 28.723 3.85 40.223 6.147 14.47 2.887 27.199 6.856 38.912 12.132 12.541 5.649 24.369 12.923 34.798 19.337l117.247 73.584-15.195 8.838-109.779-68.898-3.585-2.213c-10.665-6.569-20.56-12.518-31.039-18.005a238 238 0 0 0-39.058-12.634l-1.519-.346c-10.678-2.409-22.308-4.543-37.123-6.81l-8.82-1.332c-11.418-1.733-24.102-3.755-36.527-6.177-14.661-2.86-27.719-6.353-39.918-10.68-12.889-4.571-25.006-10.387-36.013-17.29l-.252-.158c-.593-.375-1.182-.769-1.772-1.152l-1.433-.925a70 70 0 0 1-.713-.47c-6.018-4.03-11.9-8.511-17.601-13.398l-2.244-1.937c-.375-.331-.742-.676-1.116-1.012a201 201 0 0 1-6.394-5.984c-9.377-9.185-18.448-19.542-27.73-31.661-8.249-10.771-16.381-22.175-24.004-33.03l-1.626-2.317c-10.183-14.53-18.176-25.27-25.914-34.826a257.6 257.6 0 0 0-28.67-30.066c-10.901-8.245-22.161-15.522-32.765-22.274L3.736-177.672l.305-18.19zM3.704-295.32l-.22 13.341-.017-.011-.384 23.035.005.003-.684 41.226.004.003-.303 18.197-.004-.003-.384 23.034.002.001-.344 20.619.003.002-.303 18.21-.008-.005-.383 23.036.007.005-.303 18.185-.003-.002L0-73.41l80.946 50.803c7.183 4.52 14.719 9.29 22.177 14.088a533 533 0 0 1 31.921 23.694c9.811 8.433 19.672 17.335 30.132 27.21l2.697 2.598c8.813 8.489 17.925 17.267 26.992 25.766 10.72 10.05 20.779 18.822 30.754 26.82 9.899 7.936 20.126 15.288 30.435 21.879l2.402 1.522c11.117 6.97 22.978 13.456 35.255 19.28 11.439 5.426 23.62 10.59 37.239 15.784 8.309 3.166 16.763 6.291 25.097 9.348l13.014 4.765c13.412 5.078 25.65 10.044 37.38 15.171a525 525 0 0 1 35.315 18.637l2.985 1.842a4018 4018 0 0 1 22.86 14.247L544.016 268l17.223-10.017.008.005 19.248-11.195-.003-.002 17.218-10.014-.004-.003 17.247-10.03-.003-.002 17.218-10.014-.002-.001 15.198-8.841.015.01 19.249-11.197-.017-.011 15.206-8.84.011.007 19.248-11.206-.011-.008 15.219-8.85.015.009 11.398-6.631.159-9.391-.032-.021.301-18.181.021.013.384-23.036-.018-.011.304-18.204.017.011.383-23.036-.005-.002.302-18.19.004.002.382-23.035-.011-.008.344-20.604-130.034-81.61a1769 1769 0 0 1-8.633-5.025l-9.66-5.657c-4.487-2.623-9.041-5.269-13.594-7.855l-2.733-1.545c-11.255-6.324-23.241-12.559-35.622-18.532l-3.61-1.724c-8.759-4.159-18.267-8.504-30.025-13.721l-6.378-2.826c-9.606-4.268-21.443-9.63-33.094-15.368-12.617-6.205-24.047-12.546-34.943-19.385-10.434-6.521-20.679-13.732-31.312-21.966l-1.453-1.129c-9.99-7.792-19.747-15.895-27.702-22.605l-7.938-6.712c-7.82-6.597-17.266-14.466-26.85-22.09-10.74-8.546-21.542-16.622-32.104-24.005-5.153-3.602-10.406-7.167-15.586-10.657l-5.149-3.463c-4.048-2.721-8.092-5.44-12.15-8.203L130.37-369l-34.449 20.039-.001-.001-53.708 31.24.006.004-15.208 8.844-.005-.003z" clip-rule="evenodd"/><defs><linearGradient id="a" x1="3.861" x2="327.919" y1="-22.565" y2="328.055" gradientUnits="userSpaceOnUse"><stop stop-color="#F2A91B" stop-opacity=".01"/><stop offset=".079" stop-color="#1C60AF" stop-opacity=".147"/><stop offset=".538" stop-color="#3B4A9B"/><stop offset="1" stop-color="#EA9E2D"/></linearGradient></defs></svg>