<svg width="424" height="268" viewBox="0 0 424 268" fill="none" xmlns="http://www.w3.org/2000/svg">
<path fill-rule="evenodd" clip-rule="evenodd" d="M28.9995 -307.631L44.2029 -316.473L150.29 -249.895L167.059 -239.279L174.43 -234.601L183.394 -228.899C192.678 -222.972 202.501 -216.588 212.075 -209.739C213.421 -208.778 214.763 -207.805 216.101 -206.822C221.573 -202.762 226.831 -198.469 231.84 -193.974C236.843 -189.484 241.602 -184.788 246.08 -179.917C254.966 -170.219 263.551 -159.157 272.325 -146.096C277.704 -138.087 283.047 -129.749 288.271 -121.523L292.164 -115.381C293.645 -113.043 295.126 -110.704 296.61 -108.369L298.039 -106.133C306.581 -92.8463 314.545 -81.8829 322.344 -72.6757C331.541 -61.816 341.537 -52.8799 352.074 -46.0937L353.184 -45.3881C364.13 -38.5193 376.773 -33.2691 390.762 -29.7836C403.022 -26.7274 416.485 -24.5242 433.13 -22.8508L447.667 -21.4014C457.298 -20.4338 467.085 -19.4035 476.607 -18.1642C491.827 -16.1846 505.281 -13.4064 517.736 -9.67392C530.229 -5.91299 542.71 -0.745148 554.829 5.68152C565.452 11.3577 575.843 17.567 585.618 23.5685L589.315 25.8453C599.548 32.1765 609.755 38.5266 619.947 44.8694L726.51 111.73L726.205 129.926L615.318 60.3336C610.458 57.3059 605.592 54.2786 600.722 51.2523L589.27 44.1426L581.532 39.3465L578.947 37.7554C567.429 30.6838 557.398 24.7906 546.824 19.4119C534.532 13.1989 521.672 8.4191 508.604 5.2049C495.976 2.1004 482.077 -0.0856934 466.109 -1.47751C458.874 -2.10873 451.493 -2.64722 444.214 -3.15369L430.416 -4.10486L421.753 -4.71808C419.71 -4.86789 417.706 -5.03101 415.737 -5.2049C401.94 -6.4281 389.935 -8.25336 379.189 -10.756C365.658 -13.9069 353.444 -18.7914 342.87 -25.2801L341.831 -25.9265C331.142 -32.6661 321.05 -41.7666 311.833 -52.9771C303.644 -62.9386 295.44 -74.8112 286.752 -89.2741C284.839 -92.457 282.934 -95.6523 281.032 -98.8507L274.508 -109.833C270.807 -116.051 267.038 -122.344 263.266 -128.465C254.638 -142.469 246.338 -154.214 237.893 -164.371C229.133 -174.907 219.196 -184.502 208.359 -192.892C197.636 -201.132 186.323 -208.551 175.695 -215.341C167.582 -220.516 159.471 -225.657 151.374 -230.784L142.533 -236.379L28.9995 -307.631ZM61.4224 -326.497L159.022 -265.245C167.286 -260.019 175.568 -254.783 183.857 -249.522L192.148 -244.251C202.081 -237.921 213.755 -230.379 225.015 -222.428C236.177 -214.502 246.525 -205.883 255.772 -196.807C265.168 -187.553 274.429 -176.923 283.298 -165.213C290.702 -155.436 297.996 -145.081 305.099 -134.897L308.78 -129.61C318.505 -115.641 326.944 -104.762 335.338 -95.3734C344.701 -84.9 354.76 -76.1755 365.258 -69.4197L366.463 -68.6537C377.404 -61.7934 389.934 -56.3622 403.704 -52.5119C415.567 -49.1957 428.759 -46.5302 445.222 -44.1209L451.202 -43.244C463.211 -41.4758 475.478 -39.6027 487.461 -37.302C501.593 -34.5872 515.003 -30.9776 527.313 -26.574C539.567 -22.1673 551.471 -16.7222 563.703 -9.9243C575.739 -3.213 587.302 3.83778 598.006 10.4563L607.031 16.0559C611.84 19.0404 616.647 22.0261 621.446 25.014L630.652 30.7461L665.084 52.3501L726.836 91.1059L726.532 109.3L635.415 52.1138L634.409 51.4845C630.977 49.3304 627.553 47.1811 624.117 45.0234C616.619 40.3554 609.119 35.6853 601.607 31.0231L590.262 23.9954L586.617 21.7507C576.818 15.7344 566.397 9.50725 555.726 3.80495C543.497 -2.6801 530.899 -7.89467 518.28 -11.6965C505.725 -15.4588 492.172 -18.2577 476.846 -20.2511C466.111 -21.6484 455.055 -22.779 444.263 -23.8538L433.314 -24.9431C416.764 -26.6077 403.389 -28.7955 391.218 -31.8298C377.812 -35.1751 365.668 -40.1525 355.106 -46.6337L354.016 -47.3119C343.315 -54.059 333.163 -63.0599 323.846 -74.0653C315.657 -83.7363 307.295 -95.3366 298.281 -109.529L296.057 -113.033L293.836 -116.539C287.381 -126.729 280.706 -137.267 273.966 -147.301C265.133 -160.446 256.485 -171.589 247.527 -181.369C243.253 -186.018 238.716 -190.503 233.962 -194.814C228.651 -199.632 223.071 -204.224 217.246 -208.543C215.886 -209.542 214.521 -210.533 213.15 -211.513C203.5 -218.413 193.694 -224.784 184.44 -230.688L183.105 -231.536C178.096 -234.728 173.086 -237.91 168.081 -241.082L151.27 -251.727L46.2185 -317.654L61.4224 -326.497ZM78.6544 -336.521L167.766 -280.597C176.035 -275.373 184.32 -270.138 192.613 -264.88L203.966 -257.666C212.632 -252.138 223.327 -245.232 233.926 -238.021C240.346 -233.624 246.349 -229.217 252.046 -224.727L254.317 -222.929L254.868 -222.479C258.488 -219.555 261.99 -216.593 265.388 -213.567C275.158 -204.858 284.869 -195.001 294.248 -184.268C296.437 -181.759 298.603 -179.227 300.773 -176.645L302.402 -174.699C307.293 -168.829 312.246 -162.669 317.599 -155.907L321.988 -150.345L322.74 -149.395C332.512 -137.059 340.864 -127.376 348.9 -119.056C350.463 -117.436 352.045 -115.87 353.637 -114.337L354.834 -113.193C355.385 -112.671 355.931 -112.134 356.486 -111.62L357.397 -110.8C364.43 -104.369 371.694 -98.7211 379.106 -93.9551L380.428 -93.1149C391.349 -86.2655 403.72 -80.5856 417.2 -76.2312C419.321 -75.545 421.498 -74.8732 423.739 -74.2093L425.521 -73.6868C434.503 -71.0844 444.533 -68.6249 456.374 -66.1125L457.564 -65.8611C470.674 -63.1024 484.682 -60.0461 498.276 -56.3998C499.967 -55.943 501.65 -55.4747 503.323 -54.9963C515.034 -51.6412 526.282 -47.7344 536.826 -43.3582C548.549 -38.4653 560.242 -32.6307 572.572 -25.5222C579.014 -21.7842 585.476 -17.9272 591.844 -14.0938L600.702 -8.74879L606.832 -5.04536L727.195 70.4948L726.893 88.6872L632.894 29.692L622.469 23.2107C617.667 20.2206 612.857 17.2332 608.043 14.2455C605.036 12.3787 602.041 10.5078 599.028 8.64333L595.422 6.41811C585.725 0.446953 575.379 -5.79942 564.647 -11.7844C552.322 -18.6327 540.324 -24.1227 527.967 -28.5636C515.562 -33.0023 502.058 -36.6375 487.828 -39.3711C474.808 -41.8713 461.473 -43.8644 448.494 -45.7666L445.506 -46.2042C429.123 -48.6008 416.007 -51.2527 404.226 -54.5467C390.636 -58.3447 378.279 -63.7002 367.498 -70.4609L367.244 -70.6208C356.561 -77.3566 346.321 -86.1675 336.803 -96.8137C328.874 -105.684 320.896 -115.903 311.81 -128.841L310.334 -130.952L306.783 -136.05C299.649 -146.282 292.321 -156.687 284.871 -166.524C275.933 -178.322 266.605 -189.026 257.146 -198.344C247.821 -207.496 237.39 -216.186 226.142 -224.173C214.952 -232.079 203.693 -239.359 193.192 -246.05C185.093 -251.209 176.995 -256.337 168.911 -261.452L160.023 -267.073L63.4519 -327.678L78.6544 -336.521ZM80.6777 -337.697L95.8816 -346.54L209.719 -275.094L214.495 -271.996L225.108 -265.122C230.976 -261.318 236.932 -257.442 242.798 -253.566C254.815 -245.567 265.309 -237.899 274.881 -230.129C284.9 -221.99 295.022 -212.837 304.966 -202.925L306.646 -201.239C315.864 -191.955 324.652 -182.475 331.671 -174.787L336.075 -169.962C343.484 -161.878 352.766 -152.015 362.519 -142.815C364.417 -141.024 366.333 -139.298 368.258 -137.602C376.366 -130.441 384.664 -124.113 393.019 -118.754L394.523 -117.795C405.379 -110.982 417.563 -105.007 430.738 -100.033C443.153 -95.3448 455.875 -91.4118 466.204 -88.3738L472.886 -86.4234C487.306 -82.2013 498.505 -78.668 508.859 -75.0804C521.917 -70.5458 534.491 -65.4513 546.23 -59.9386C557.359 -54.6813 568.87 -48.5079 581.423 -41.0654C587.341 -37.5332 593.31 -33.9194 599.179 -30.3526L612.061 -22.5197C613.235 -21.8068 614.408 -21.095 615.579 -20.3847L727.533 49.8774L727.231 68.0676L607.851 -6.85655L601.442 -10.7233L595.326 -14.4188C588.147 -18.7499 580.831 -23.1307 573.537 -27.3598C561.111 -34.5245 549.344 -40.3954 537.563 -45.3105C536.047 -45.9394 534.517 -46.5592 532.973 -47.1678C522.164 -51.4356 510.683 -55.2182 498.773 -58.4323C489.679 -60.8717 480.414 -63.0421 471.352 -65.0392C468.33 -65.7053 465.33 -66.3533 462.368 -66.9844L456.718 -68.1817L454.31 -68.6983C442.795 -71.1917 433.034 -73.6363 424.295 -76.2246C422.066 -76.8848 419.902 -77.5552 417.789 -78.2388C404.449 -82.5497 392.224 -88.1609 381.454 -94.916L381.194 -95.0797C370.521 -101.81 360.129 -110.377 350.304 -120.549L349.132 -121.771C341.299 -129.985 333.099 -139.567 323.495 -151.726L320.878 -155.045C311.809 -166.536 303.945 -176.266 295.722 -185.687C286.29 -196.48 276.52 -206.399 266.682 -215.167C265.003 -216.662 263.297 -218.14 261.566 -219.607L259.334 -221.486C257.671 -222.87 255.97 -224.241 254.253 -225.606C248.222 -230.4 241.856 -235.096 235.016 -239.781L233.128 -241.062C221.8 -248.723 210.579 -255.919 201.944 -261.409C190.881 -268.443 179.824 -275.428 168.766 -282.415L80.6777 -337.697ZM113.109 -356.557L218.465 -290.435L225.397 -285.967L232.34 -281.503C238.773 -277.37 245.211 -273.231 251.639 -269.058L253.863 -267.603C265.598 -259.902 275.298 -253.148 284.234 -246.459C294.6 -238.694 305.075 -230.144 315.369 -221.046L317.121 -219.492C327.026 -210.678 336.546 -201.714 344.058 -194.561L347.942 -190.863C355.695 -183.5 365.424 -174.443 375.648 -165.724C385.982 -156.914 396.064 -149.393 406.41 -142.78L407.928 -141.818L408.151 -141.677C419.107 -134.803 430.761 -128.69 443.777 -122.989L445.904 -122.063C457.607 -117.003 469.381 -112.481 478.897 -108.923L485.727 -106.374C495.508 -102.706 507.414 -98.1421 519.141 -93.2385C531.757 -87.9604 543.988 -82.2523 555.491 -76.2711L557.358 -75.2942C567.342 -70.0394 577.85 -64.0504 590.236 -56.5588C594.628 -53.8915 599.011 -51.2135 603.39 -48.5323L609.957 -44.509C614.747 -41.5731 619.534 -38.6379 624.315 -35.7225L727.88 29.2751L727.578 47.46L616.597 -22.1925L611.455 -25.3153L597.425 -33.8467C592.446 -36.8686 587.413 -39.909 582.413 -42.8942C569.806 -50.3685 558.241 -56.5698 547.055 -61.8549C535.254 -67.3966 522.617 -72.5174 509.493 -77.0744L507.319 -77.8223C495.001 -82.0305 482.728 -85.7265 472.843 -88.6178L466.645 -90.4283C456.34 -93.4627 443.686 -97.3788 431.42 -102.008C418.822 -106.766 407.138 -112.446 396.671 -118.903L395.189 -119.828C384.576 -126.52 374.037 -134.778 363.862 -144.376C354.111 -153.582 344.874 -163.396 337.511 -171.431L331.909 -177.566C324.661 -185.487 315.698 -195.11 306.35 -204.447C296.353 -214.412 286.178 -223.611 276.111 -231.79C266.52 -239.579 255.977 -247.284 243.873 -255.342C237.025 -259.867 230.061 -264.387 223.257 -268.793L220.352 -270.674C217.158 -272.742 213.965 -274.808 210.765 -276.888L97.9097 -347.718L113.109 -356.557ZM130.332 -366.578L260.604 -284.822C263.29 -282.992 265.985 -281.172 268.684 -279.355L272.733 -276.632C279.542 -272.056 286.583 -267.324 293.438 -262.533C303.309 -255.633 313.391 -248.126 323.435 -240.194L325.443 -238.602C335.008 -230.991 344.44 -223.133 352.25 -216.546L360.091 -209.917C368.077 -203.18 377.892 -195.026 387.949 -187.183C399.157 -178.434 409.955 -170.815 420.879 -163.97C431.832 -157.096 443.322 -150.722 456.001 -144.484L458.07 -143.471C468.419 -138.423 478.797 -133.704 487.528 -129.813L497.476 -125.401C509.932 -119.859 519.846 -115.295 529.122 -110.839C541.466 -104.885 553.414 -98.6694 564.634 -92.3639C570.083 -89.2999 575.557 -86.124 580.936 -82.9798L592.747 -76.0649C594.902 -74.807 597.054 -73.5551 599.203 -72.3143L728.212 8.65303L727.909 26.8388L625.342 -37.5336L618.29 -41.843L611.241 -46.1611C606.803 -48.8808 602.364 -51.6018 597.919 -54.315L591.242 -58.379L588.933 -59.7713C576.731 -67.1041 566.335 -72.9735 556.387 -78.1526C544.878 -84.1394 532.598 -89.8707 519.887 -95.1896L517.784 -96.0647C506.569 -100.709 495.453 -104.963 486.267 -108.405L476.939 -111.891C467.361 -115.496 455.863 -119.97 444.553 -124.926C432.339 -130.276 420.882 -136.243 410.479 -142.674L408.741 -143.758C398.45 -150.247 388.439 -157.624 378.196 -166.268L376.915 -167.355C368.835 -174.244 360.385 -181.901 349.856 -191.883L342.525 -198.854C334.99 -205.997 325.89 -214.497 316.663 -222.651C306.293 -231.813 295.777 -240.398 285.401 -248.169L283.712 -249.428C274.653 -256.145 264.74 -262.989 252.698 -270.844C248.409 -273.627 244.117 -276.395 239.825 -279.156L233.391 -283.294C228.761 -286.269 224.135 -289.242 219.508 -292.231L115.133 -357.738L130.332 -366.578ZM725.843 150.514L606.672 75.7223L598.643 70.7323C592.903 67.1626 587.161 63.5925 581.412 60.0271L572.783 54.6827L570.562 53.3146C560.825 47.3306 549.653 40.6668 537.928 34.9741C525.683 29.0912 512.59 24.7081 499.013 21.9444C486.302 19.3565 472.16 17.6048 455.777 16.5892C450.641 16.2708 445.425 15.9844 440.273 15.7114L427.57 15.0455C422.067 14.7538 416.496 14.4454 411.016 14.0979C394.733 13.0669 380.764 11.1713 368.311 8.30553C354.385 5.10011 341.869 0.0513458 331.11 -6.69817L330.894 -6.83437C320.217 -13.5669 310.144 -22.6771 300.959 -33.9143C292.658 -44.0655 284.502 -56.0148 276.022 -70.4433C272.437 -76.5356 268.844 -82.7811 265.336 -88.8973L260.084 -98.0546C257.728 -102.156 255.341 -106.295 252.965 -110.359C244.453 -124.928 236.402 -137.098 228.352 -147.563C219.701 -158.811 209.99 -168.807 199.486 -177.279C188.862 -185.799 177.575 -193.24 166.96 -200.014C159.498 -204.768 152.038 -209.496 144.589 -214.212L133.793 -221.043L11.7769 -297.619L26.968 -306.454L141.494 -234.581L142.24 -234.109C153.021 -227.286 163.833 -220.446 174.647 -213.549L178.008 -211.395C187.589 -205.232 197.609 -198.549 207.165 -191.2C217.868 -182.917 227.696 -173.426 236.377 -162.992C244.75 -152.929 252.993 -141.263 261.578 -127.327C265.37 -121.172 269.163 -114.841 272.886 -108.584L276.583 -102.361C279.4 -97.6186 282.217 -92.874 285.052 -88.1556L286.465 -85.8184C294.686 -72.3164 302.502 -61.1053 310.311 -51.606C319.41 -40.5323 329.36 -31.4845 339.903 -24.6943L340.981 -24.0093C351.934 -17.1409 364.641 -11.9923 378.748 -8.70717C389.581 -6.18462 401.673 -4.34615 415.56 -3.11516C417.544 -2.9391 419.564 -2.77562 421.623 -2.62453L430.309 -2.00887L444.116 -1.05647C451.373 -0.551376 458.729 -0.0148773 465.936 0.612961C481.803 1.99663 495.609 4.16661 508.139 7.24763C521.083 10.4348 533.803 15.1631 545.944 21.3017C556.811 26.824 567.163 32.9376 579.211 40.3554L584.103 43.3785L592.367 48.502L601.305 54.0576C605.74 56.8169 610.11 59.5401 614.36 62.1903L726.145 132.348L725.843 150.514ZM725.718 159.921L716.337 165.378L597.926 91.0637L593.218 88.1307C586.75 84.1023 580.277 80.0704 573.795 76.0441L564.063 70.0101C553.791 63.658 541.767 56.389 529.067 50.5052C517.011 44.9591 503.741 40.8817 489.625 38.3852C476.95 36.1425 462.677 34.6287 445.99 33.7554C442.864 33.593 439.734 33.4385 436.603 33.2867L424.269 32.69C416.587 32.3116 408.8 31.9007 401.171 31.3885C385.092 30.3087 371.175 28.3254 358.624 25.3284C345.157 22.1063 332.973 17.1845 322.392 10.6935L321.291 10.0084C310.606 3.27152 300.503 -5.78002 291.257 -16.8959C282.831 -27.0249 274.623 -38.8843 266.163 -53.1506C260.658 -62.4342 255.184 -72.0668 249.89 -81.384C247.655 -85.3188 245.419 -89.2504 243.178 -93.1674C234.641 -108.075 226.726 -120.472 218.978 -131.064C210.319 -142.895 200.785 -153.204 190.639 -161.71C180.228 -170.372 168.908 -177.869 158.225 -184.679C150.46 -189.623 142.697 -194.54 134.946 -199.442L125.053 -205.697L5.46265 -280.751L5.68248 -294.072L9.74345 -296.436L132.751 -219.238L133.65 -218.669C144.38 -211.879 155.14 -205.069 165.907 -198.213C176.503 -191.449 187.755 -184.029 198.255 -175.607C208.632 -167.238 218.231 -157.356 226.782 -146.237C234.772 -135.849 242.776 -123.753 251.248 -109.257C253.617 -105.201 256 -101.07 258.352 -96.9757L265.364 -84.7515C268.314 -79.6169 271.312 -74.4239 274.306 -69.3347C282.862 -54.7819 291.079 -42.7476 299.427 -32.5408C308.516 -21.4289 318.466 -12.3583 329.02 -5.55993L330.071 -4.89153C341.025 1.97834 353.742 7.10984 367.869 10.3604C380.416 13.2498 394.488 15.1599 410.883 16.2005C417.454 16.616 424.153 16.9757 430.708 17.3193L440.123 17.8119C445.282 18.0849 450.507 18.372 455.647 18.6902C471.946 19.7018 486.002 21.4422 498.62 24.0111C512.062 26.7488 525.003 31.0814 537.078 36.8879C548.426 42.3966 559.148 48.7115 571.757 56.4974C583.039 63.4754 594.29 70.481 605.521 77.4747L725.836 152.983L725.718 159.921ZM699.085 175.394L589.157 106.405C577.895 99.3778 566.616 92.3445 555.304 85.3344L552.791 83.7806C542.679 77.5494 531.872 71.1638 520.22 65.9626C508.261 60.6649 494.886 56.771 480.466 54.3914C467.769 52.2961 453.878 50.8803 436.747 49.9342L422.08 49.1327C412.132 48.5822 402.019 47.9797 392.164 47.1746C376.337 45.8827 362.542 43.69 349.988 40.472C336.304 36.9657 323.878 31.7458 313.051 24.9589L312.814 24.8091C302.085 18.0442 291.918 9.10471 282.592 -1.76306C273.987 -11.7946 265.66 -23.4415 257.137 -37.3712C250.975 -47.4455 244.892 -57.95 238.978 -68.2176L233.936 -76.9753L232.649 -79.2004C224.757 -92.782 217.768 -103.802 210.838 -113.594L209.826 -115.019C201.125 -127.183 191.697 -137.675 181.801 -146.202C172.169 -154.48 161.91 -161.443 149.471 -169.353C138.395 -176.39 127.329 -183.383 116.289 -190.353L5.10376 -260.132L5.4061 -278.327L124.008 -203.895L141.032 -193.124C146.408 -189.719 151.789 -186.306 157.171 -182.882L159.956 -181.1C169.745 -174.808 179.947 -167.915 189.377 -160.063C199.399 -151.668 208.819 -141.479 217.374 -129.781L218.661 -128.009C225.958 -117.872 233.428 -106.094 241.447 -92.083C242.93 -89.4931 244.409 -86.8961 245.887 -84.2961L248.104 -80.3946C253.42 -71.0394 258.916 -61.3658 264.448 -52.0382C272.973 -37.6724 281.243 -25.7247 289.733 -15.5129C298.852 -4.54077 308.817 4.45609 319.365 11.2497L320.472 11.954C331.433 18.8282 344.113 24.0174 358.163 27.3778C370.798 30.4001 384.819 32.3983 401.026 33.4873C408.657 33.9996 416.44 34.4108 424.117 34.789L431.749 35.1589C436.461 35.3866 441.173 35.6123 445.874 35.8575L448.618 36.0072C464.042 36.8896 477.368 38.3489 489.276 40.458C503.232 42.9259 516.344 46.9552 528.245 52.4317C539.981 57.8665 551.157 64.5112 560.893 70.5038L563.031 71.8235C569.317 75.7134 575.592 79.6134 581.858 83.5131L596.876 92.8647L714.287 166.552L699.085 175.394ZM681.874 185.429L546.632 100.551L543.203 98.47C533.549 92.6255 522.826 86.3188 511.45 81.3576C499.594 76.1874 486.197 72.3391 471.628 69.9183L469.873 69.6323C458.112 67.75 445.13 66.3452 429.29 65.2391L419.724 64.5807C407.828 63.7536 395.713 62.8532 383.96 61.6323C368.433 60.0174 354.802 57.5378 342.286 54.0513C328.801 50.2948 316.448 44.9303 305.572 38.1105L305.314 37.9479C294.543 31.1564 284.298 22.3583 274.858 11.7948C266.037 1.92128 257.545 -9.44066 248.897 -22.9414C242.086 -33.5786 235.491 -44.5554 229.082 -55.3374L225.26 -61.7789C216.226 -77.0079 208.512 -88.9928 200.982 -99.4946C192.204 -111.737 182.803 -122.272 173.041 -130.805C162.526 -139.998 150.856 -147.612 140.743 -154.029C129.667 -161.057 118.6 -168.04 107.551 -175.011L4.76562 -239.518L5.06779 -257.704L115.266 -188.546C126.302 -181.578 137.366 -174.586 148.439 -167.55L150.806 -166.039C162.116 -158.79 171.611 -152.243 180.537 -144.573C190.32 -136.135 199.637 -125.766 208.232 -113.751L208.772 -112.992L209.312 -112.229C216.562 -101.969 223.874 -90.3699 232.219 -75.896L235.302 -70.5455C237.324 -67.0314 239.374 -63.4789 241.435 -59.9183C244.369 -54.8496 247.333 -49.7621 250.331 -44.7292C251.073 -43.484 251.822 -42.2605 252.567 -41.0231L254.489 -37.8264L255.458 -36.2314C264.034 -22.2094 272.425 -10.4739 281.112 -0.351028C290.302 10.3591 300.303 19.2257 310.857 26.0222L312.031 26.7689C323.026 33.6624 335.639 38.9619 349.517 42.5193C362.182 45.7648 376.082 47.9744 392.014 49.2753C401.882 50.081 411.998 50.6838 421.949 51.2347L436.648 52.0386C453.668 52.9739 467.494 54.383 480.16 56.4729C494.418 58.8256 507.637 62.672 519.445 67.9028C531.94 73.4794 543.511 80.4682 554.293 87.149C565.603 94.1589 576.882 101.191 588.14 108.217L697.07 176.581L681.874 185.429ZM664.634 195.437L537.888 115.893L534.463 113.801C524.818 107.927 514.106 101.588 502.747 96.6146C490.959 91.4518 477.611 87.5225 463.075 84.9357L461.442 84.6493C450.222 82.7093 437.656 81.1233 422.222 79.6961L419.943 79.4883C414.813 79.028 409.728 78.5643 404.688 78.0806L402.005 77.8204C399.768 77.6012 397.543 77.3758 395.324 77.1449C393.394 76.9435 391.468 76.7368 389.549 76.5237C388.151 76.3695 386.755 76.2111 385.364 76.0495C383.733 75.8589 382.105 75.6633 380.483 75.4618L376.396 74.9454C361.158 72.9431 347.714 70.136 335.295 66.3637C322.009 62.3278 309.737 56.8093 298.819 49.9646C287.899 43.1063 277.469 34.4071 267.83 24.0839C258.812 14.4264 250.134 3.38966 241.301 -9.65643C240.091 -11.4438 238.888 -13.2442 237.69 -15.0522C231.784 -23.9678 225.975 -33.1769 220.401 -42.1254L215.737 -49.6261C209.493 -59.6329 203.923 -68.1539 198.665 -75.7251L198.103 -76.5326C196.171 -79.3032 194.281 -81.9456 192.414 -84.4878C183.494 -96.6349 174.047 -107.086 164.338 -115.545C154.361 -124.238 143.82 -131.218 132.057 -138.802L4.42261 -218.902L4.72649 -237.088L106.534 -173.195C117.568 -166.233 128.632 -159.253 139.708 -152.224L141.808 -150.887C151.35 -144.797 162.067 -137.656 171.76 -129.184C181.396 -120.761 190.69 -110.345 199.384 -98.2227L200.427 -96.7598C207.569 -86.6933 214.954 -75.1669 223.56 -60.6603L227.401 -54.1897C233.838 -43.3605 240.454 -32.3479 247.238 -21.7616C255.948 -8.16164 264.506 3.28654 273.398 13.2384C282.674 23.6219 292.724 32.3222 303.29 39.1232L304.546 39.9217C315.579 46.8419 328.104 52.2806 341.772 56.0887C354.39 59.6057 368.125 62.1041 383.761 63.7293C396.764 65.0814 410.192 66.0398 423.282 66.9397L427.965 67.2597L431.499 67.5094C446.995 68.6419 459.723 70.0797 471.314 72.0012C485.711 74.3897 498.957 78.1921 510.681 83.305C523.301 88.808 535.166 96.0185 545.621 102.372L679.832 186.603L664.634 195.437ZM647.426 205.468L529.147 131.237L524.561 128.425C515.227 122.726 504.936 116.656 494.12 111.784C482.281 106.451 469.417 102.44 454.792 99.5181L453.242 99.2123C441.831 96.9866 429.398 95.1193 413.331 93.2178L407.617 92.5443C395.636 91.1221 382.261 89.4439 369.369 87.3549C354.422 84.932 341.172 81.783 328.86 77.7256C315.786 73.4203 303.593 67.7502 292.622 60.8695L292.348 60.6965L290.996 59.816C290.161 59.2773 289.327 58.7416 288.497 58.184C280.759 52.9644 273.253 46.9024 266.109 40.0964C265.748 39.7526 265.383 39.4207 265.023 39.0727L264.779 38.8293C263.63 37.712 262.488 36.5784 261.359 35.4217C252.146 25.9941 243.271 15.2981 234.226 2.71959L232.718 0.61377C225.447 -9.58797 218.364 -20.1662 210.182 -32.6142L208.087 -35.801C198.83 -49.8391 191.389 -60.4324 184.107 -69.9456C174.866 -82.0148 165.572 -91.9757 155.693 -100.397C145.588 -109.011 134.613 -116.219 123.314 -123.459L4.08545 -198.284L4.38848 -216.475L131.025 -136.999L134.877 -134.507C145.033 -127.902 154.287 -121.572 163.066 -113.922C172.663 -105.559 182.005 -95.2215 190.835 -83.1976C193.343 -79.7832 195.891 -76.1883 198.527 -72.3468L199.409 -71.057C204.141 -64.1102 209.166 -56.3492 214.733 -47.4014L218.296 -41.6651C224.129 -32.2913 230.242 -22.588 236.531 -13.123C237.577 -11.549 238.625 -9.98482 239.675 -8.43353C248.566 4.70151 257.31 15.8203 266.406 25.5599C275.782 35.6002 285.893 44.1298 296.481 50.9361L297.798 51.7732C308.863 58.7119 321.292 64.301 334.743 68.387C347.262 72.1906 360.808 75.0191 376.153 77.0349L377.801 77.2363C380.245 77.5496 382.701 77.8497 385.172 78.1379C386.535 78.2959 387.904 78.4516 389.273 78.6035C391.23 78.8211 393.194 79.0322 395.165 79.2369L398.436 79.5727L403.16 80.0412L404.604 80.1803C408.371 80.5408 412.151 80.8949 415.959 81.2425L422.047 81.7947C438.169 83.2844 451.151 84.9499 462.743 87.0138C477.132 89.5734 490.332 93.4574 501.982 98.559C514.611 104.088 526.447 111.331 536.88 117.717L662.621 196.63L647.426 205.468ZM612.965 225.497L511.673 161.927L508.204 159.777C505.911 158.358 503.656 156.968 501.423 155.602L498.731 153.958L497.156 153.005L494.485 151.397C488.748 147.963 483.081 144.683 477.261 141.519L477.195 141.486C464.644 135.802 451.728 131.163 438.804 127.698L436.57 127.106C426.329 124.43 415.12 121.964 400.904 119.26L391.449 117.482C389.911 117.191 388.397 116.903 386.902 116.617L383.169 115.896L380.654 115.404L377.063 114.694L375.267 114.332L371.992 113.666L370.041 113.262L366.744 112.572L364.956 112.188L361.431 111.424C360.482 111.215 359.537 110.999 358.59 110.786C357.855 110.621 357.117 110.458 356.384 110.29C341.997 106.99 329.131 103.157 317.049 98.5751C313.868 97.3692 310.73 96.0928 307.64 94.7493C298.468 90.7588 289.714 86.1635 281.507 81.0376L281.227 80.8674C271.307 74.5915 261.618 67.2468 252.441 58.9413L251.297 57.8981C250.692 57.3415 250.081 56.7938 249.479 56.2294C239.926 47.2556 230.661 37.2329 221.154 25.5851C212.682 15.2112 204.299 4.24303 196.433 -6.19391L193.403 -10.2165C183.571 -23.2305 175.702 -33.0501 168.048 -41.8655C159.137 -52.1229 149.29 -61.829 138.727 -70.7594C128.87 -77.9619 118.593 -84.6506 109.377 -90.5157L105.644 -92.8843L3.396 -157.052L3.69834 -175.247L113.54 -106.312L116.896 -104.17C126.461 -98.0498 136.46 -91.4759 146.103 -84.1864C156.299 -75.0878 165.846 -65.07 174.483 -54.4112L175.962 -52.5746C182.883 -43.929 190.112 -34.1989 199.024 -21.5302L200.309 -19.7001C208.39 -8.17165 217.093 4.10034 225.991 15.7165C235.315 27.8917 244.448 38.3197 253.916 47.5972C263.816 57.3001 274.413 65.7362 285.419 72.6757L285.779 72.9018C296.909 79.8801 309.155 85.7603 322.181 90.379C334.47 94.7376 347.616 98.2547 362.37 101.132C375.094 103.61 387.898 105.661 403.053 107.939L404.576 108.168C421.684 110.734 434.551 113.084 446.297 115.783C459.437 118.804 472.457 123.016 485.001 128.301C496.573 134.366 507.871 141.267 519.383 148.39L628.16 216.659L612.965 225.497ZM593.703 236.708L578.507 245.546L494.181 192.624C483.894 186.165 473.785 179.851 463.507 173.76L460.032 171.713C448.27 165.606 435.914 160.022 423.265 155.102C411.562 151.162 399.209 147.423 385.557 143.687L377.297 141.439C366.335 138.452 355.14 135.355 344.095 132.023C330.184 127.827 317.685 123.338 305.883 118.302C293.944 113.204 282.503 107.291 271.849 100.712L269.971 99.5399C259.082 92.6744 248.41 84.726 238.245 75.9085C228.434 67.4028 218.792 58.0235 208.764 47.2346L206.885 45.2085C199.082 36.7648 191.546 28.2676 182.863 18.409L180.757 16.0161C170.764 4.66339 161.5 -5.345 152.403 -14.6108C142.433 -23.9183 132.054 -32.6609 121.513 -40.6259C111.219 -47.6252 100.596 -54.3753 90.4924 -60.7264L2.70264 -115.821L3.00515 -134.006L98.5844 -74.0201C109.874 -66.9112 119.505 -60.6889 128.985 -54.0371C139.219 -45.8862 149.314 -36.7981 158.956 -27.0598L160.731 -25.0655C168.449 -16.362 176.49 -6.84683 185.221 3.91142L191.103 11.1621C199.037 20.9127 206.124 29.457 213.451 37.876C223.287 49.1726 232.798 58.9328 242.53 67.7136C247.629 72.314 252.875 76.6615 258.231 80.7326C259.109 81.3991 259.993 82.0481 260.878 82.7014L262.182 83.6694C263.116 84.3488 264.056 85.009 264.996 85.6701L266.275 86.5773L267.205 87.2107L268.136 87.8401C268.946 88.3899 269.754 88.9423 270.568 89.4797L271.004 89.7609C272.118 90.4927 273.233 91.2203 274.355 91.9272L274.808 92.2117C285.98 99.2109 298.064 105.348 310.723 110.451C322.759 115.306 335.518 119.49 349.726 123.241C362.519 126.619 375.763 129.684 387.476 132.336L390.371 132.99C405.225 136.342 418.407 139.658 430.62 143.111C443.531 147.542 456.034 152.697 467.781 158.434C478.868 164.719 489.676 171.417 499.862 177.812L593.703 236.708ZM559.253 256.737L544.054 265.578L466.599 216.972C458.383 211.823 450.587 206.961 442.743 202.13C431.165 195.443 419.231 189.144 407.241 183.395C395.45 178.241 383.183 173.262 369.73 168.168L356.71 163.402C348.381 160.346 339.932 157.224 331.633 154.061C318.062 148.885 305.927 143.742 294.535 138.338C282.327 132.547 270.534 126.097 259.483 119.169C248.4 112.199 237.441 104.407 226.833 95.8996C216.9 87.937 206.879 79.1971 196.197 69.1835C188.147 61.6377 180.057 53.8669 172.172 46.2744L166.522 40.8318C156.029 30.9291 146.147 22.0062 136.284 13.5296C125.938 5.23119 115.15 -2.77936 104.193 -10.2915L101.198 -12.2141C90.7113 -18.9329 80.2078 -25.5243 70.8461 -31.3958L2.02124 -74.587L2.3241 -92.7826L78.6262 -44.8977C86.537 -39.9343 94.3136 -35.0359 101.993 -30.0898L104.917 -28.1962L107.832 -26.2966C109.143 -25.442 110.461 -24.5915 111.767 -23.7302C122.38 -16.1053 132.926 -7.7821 143.082 0.980461C152.658 9.90713 162.484 19.6093 172.287 29.8163L181.493 39.4043C187.967 46.1383 194.571 52.9658 201.171 59.5948L202.198 60.6195L203.223 61.6357C211.865 70.2303 220.181 77.914 228.491 84.9816L229.738 86.0371C230.283 86.4957 230.827 86.9627 231.372 87.4175C241.412 95.7933 251.85 103.472 262.503 110.219L264.03 111.179C275.152 118.152 287.086 124.526 299.498 130.123C311.136 135.37 323.51 140.208 337.325 144.913C340.069 145.848 342.831 146.774 345.601 147.693C347.08 148.183 348.564 148.666 350.046 149.151C351.282 149.557 352.518 149.967 353.755 150.369C357.162 151.478 360.566 152.577 363.947 153.664L376.26 157.612C389.577 161.892 402.478 166.446 414.568 171.139C426.799 176.462 438.88 182.393 450.443 188.748C460.439 194.766 470.225 200.867 480.84 207.527L559.253 256.737ZM2.3667 -95.2005L2.66972 -113.386L87.3009 -60.2742C97.9272 -53.6046 109.24 -46.4594 120.378 -38.8897C130.818 -30.9983 141.144 -22.301 151.034 -13.069C160.068 -3.86451 169.307 6.11599 179.281 17.4445L183.846 22.6281C191.221 30.9917 199.25 40.0255 207.325 48.7052C217.407 59.5503 227.102 68.9795 236.962 77.532C247.203 86.4131 257.951 94.4194 268.919 101.335L269.431 101.656C280.561 108.636 292.57 114.892 305.122 120.252C316.989 125.32 329.553 129.832 343.535 134.045C356.932 138.081 370.959 141.894 383.332 145.257L386.501 146.124C399.601 149.737 411.452 153.337 422.604 157.09C435.15 161.972 447.441 167.525 459.093 173.574C470.533 180.272 481.728 187.26 493.142 194.428L576.48 246.728L561.288 255.563L477.887 203.229C468.934 197.625 460.871 192.62 452.568 187.608L451.4 186.905C439.792 180.52 427.656 174.562 415.295 169.183C403.133 164.463 390.195 159.894 376.842 155.603L364.155 151.535C360.932 150.499 357.688 149.452 354.44 148.395C348.922 146.599 343.395 144.773 337.939 142.914C324.182 138.229 311.866 133.413 300.285 128.192C287.953 122.633 276.101 116.302 265.052 109.375C254.033 102.476 243.094 94.5084 232.619 85.7764L231.734 85.0318L230.849 84.2819C222.4 77.148 213.956 69.3885 205.173 60.6835L203.432 58.9553C203.141 58.6655 202.849 58.3742 202.557 58.0804C195.944 51.4346 189.322 44.5892 182.829 37.8367L173.699 28.3285C163.865 18.0901 154.012 8.36278 144.385 -0.612335C134.152 -9.4419 123.559 -17.8018 112.867 -25.4821L111.52 -26.3608C102.211 -32.4778 92.7938 -38.4447 83.1967 -44.4744L71.3618 -51.9032L2.3667 -95.2005ZM3.35843 -154.631L104.612 -91.0869L108.335 -88.7243C117.524 -82.8764 127.765 -76.2115 137.524 -69.0827C147.95 -60.2662 157.721 -50.6345 166.567 -40.4539L167.581 -39.2822C174.691 -31.0338 182.093 -21.7808 191.203 -9.74542L196.558 -2.64468C203.941 7.1263 211.745 17.2905 219.631 26.9495C229.202 38.6694 238.528 48.7586 248.141 57.7909C248.663 58.282 249.195 58.757 249.722 59.2418C250.468 59.929 251.211 60.6226 251.964 61.2981L252.25 61.5497C260.674 69.078 269.503 75.8197 278.579 81.6404L280.02 82.5553L280.484 82.8408C288.762 88.0149 297.603 92.6554 306.873 96.6874C309.993 98.0451 313.161 99.3338 316.372 100.552C328.51 105.16 341.459 109.016 355.96 112.342L357.059 112.59L361.018 113.476L362.724 113.846C363.932 114.11 365.143 114.373 366.362 114.632L369.61 115.313L372.288 115.865L375.467 116.51L378.718 117.157L381.716 117.748L386.695 118.71L391.764 119.675L400.548 121.327C415.763 124.22 427.513 126.838 438.313 129.733C451.093 133.158 463.897 137.756 476.372 143.4L478.276 144.451C479.07 144.889 479.867 145.322 480.657 145.765L481.763 146.393C482.832 146.995 483.9 147.598 484.963 148.208L486.053 148.842C487.109 149.453 488.165 150.064 489.218 150.683L490.828 151.638C491.705 152.155 492.581 152.672 493.456 153.197L496.5 155.031L498.579 156.292C502.592 158.737 506.604 161.222 510.639 163.734L610.937 226.679L595.743 235.517L502.934 177.273C492.068 170.449 480.474 163.229 468.66 156.537C456.814 150.753 444.227 145.561 431.202 141.09C418.906 137.614 405.69 134.29 390.802 130.93L385.878 129.815C374.304 127.188 362.19 124.362 350.224 121.198C336.116 117.471 323.432 113.313 311.449 108.483C298.876 103.415 286.895 97.3321 275.842 90.4009C264.832 83.5222 254.038 75.3121 243.842 66.1133C234.148 57.3661 224.693 47.6637 214.936 36.453C206.62 26.9001 198.59 17.1272 190.994 7.77238L185.742 1.29895C176.691 -9.81346 168.387 -19.5882 160.387 -28.5422C150.622 -38.4012 140.466 -47.5446 130.155 -55.755C119.852 -62.9818 109.474 -69.6458 97.0846 -77.4256L3.05591 -136.434L3.35843 -154.631ZM122.284 -121.655C133.53 -114.449 144.451 -107.278 154.437 -98.7592C164.21 -90.4227 173.408 -80.5651 182.553 -68.6229L183.52 -67.354C190.461 -58.2113 197.623 -47.9785 206.446 -34.5992L211.053 -27.5995C218.765 -15.9096 225.572 -5.82629 232.634 3.99266C241.741 16.6544 250.682 27.4287 259.966 36.9317C261.945 38.9596 263.963 40.9093 266.001 42.8157C266.493 43.2757 266.98 43.7493 267.476 44.2024L268.4 45.0251C274.506 50.5412 280.848 55.5295 287.374 59.9217C288.385 60.6046 289.406 61.2597 290.427 61.9156L291.599 62.6789C302.707 69.6446 315.043 75.3819 328.266 79.7347C340.673 83.8238 354.02 86.9981 369.068 89.4358C380.87 91.3491 393.066 92.9174 404.231 94.2601L414.2 95.4413C430.442 97.3821 442.923 99.2903 454.423 101.588C468.893 104.475 481.622 108.444 493.335 113.72C505.876 119.369 517.704 126.643 528.133 133.057L645.38 206.641L630.185 215.479L520.406 146.581L516.821 144.368C506.156 137.799 496.261 131.85 485.782 126.363C473.124 121.027 459.982 116.776 446.724 113.729L445.205 113.383C434.527 110.974 422.897 108.84 408.082 106.573L399.262 105.241C387.844 103.508 375.16 101.486 362.735 99.0635C348.074 96.204 335.016 92.7111 322.817 88.3847C309.928 83.813 297.811 77.9969 286.804 71.0945L286.552 70.9355C285.959 70.5606 285.37 70.1672 284.78 69.784L283.347 68.8591C283.109 68.7038 282.871 68.5472 282.634 68.3884C276.616 64.3581 270.734 59.8776 265.033 54.9912L262.789 53.0538C262.414 52.7229 262.047 52.3777 261.673 52.0418C259.515 50.1029 257.378 48.1163 255.279 46.0584C245.902 36.8726 236.831 26.5161 227.549 14.3965C219.3 3.62598 211.168 -7.77826 203.545 -18.6325L201.919 -20.9496C191.736 -35.4801 183.743 -46.2204 176.005 -55.7761C167.314 -66.5094 157.689 -76.607 147.335 -85.8422C136.434 -94.0865 125.174 -101.364 114.57 -108.116L3.73633 -177.672L4.04056 -195.862L122.284 -121.655ZM3.70334 -295.32L3.48384 -281.979L3.4667 -281.99L3.0834 -258.955L3.08769 -258.952L2.4036 -217.726L2.40788 -217.723L2.10537 -199.526L2.10108 -199.529L1.71693 -176.495L1.71864 -176.494L1.37488 -155.875L1.37831 -155.873L1.07527 -137.663L1.0667 -137.668L0.683747 -114.632L0.691461 -114.627L0.388436 -96.4417L0.385008 -96.4438L0 -73.4104L80.9464 -22.6073C88.1294 -18.0867 95.6646 -13.3174 103.123 -8.51886C114.014 -1.05066 124.763 6.92889 135.044 15.1754C144.855 23.6082 154.716 32.5101 165.176 42.3843L167.873 44.9832C176.686 53.4716 185.798 62.2495 194.865 70.7493C205.585 80.799 215.644 89.5707 225.619 97.5687C235.518 105.505 245.745 112.857 256.054 119.448L258.456 120.97C269.573 127.94 281.434 134.426 293.711 140.25C305.15 145.676 317.331 150.84 330.95 156.034C339.259 159.2 347.713 162.325 356.047 165.382L369.061 170.147C382.473 175.225 394.711 180.191 406.441 185.318C418.354 191.032 430.243 197.307 441.756 203.955L444.741 205.797C452.206 210.408 459.693 215.086 467.601 220.044L544.016 268L561.239 257.983L561.247 257.988L580.495 246.793L580.492 246.791L597.71 236.777L597.706 236.774L614.953 226.744L614.95 226.742L632.168 216.728L632.166 216.727L647.364 207.886L647.379 207.896L666.628 196.699L666.611 196.688L681.817 187.848L681.828 187.855L701.076 176.649L701.065 176.641L716.284 167.791L716.299 167.8L727.697 161.169L727.856 151.778L727.824 151.757L728.125 133.576L728.146 133.589L728.53 110.553L728.512 110.542L728.816 92.3383L728.833 92.3492L729.216 69.3132L729.211 69.3105L729.513 51.1204L729.517 51.1226L729.899 28.0876L729.888 28.0805L730.232 7.47586L600.198 -74.1341C597.316 -75.799 594.439 -77.4768 591.565 -79.1588L581.905 -84.8158C577.418 -87.4391 572.864 -90.085 568.311 -92.6712L565.578 -94.2156C554.323 -100.54 542.337 -106.775 529.956 -112.748L526.346 -114.472C517.587 -118.631 508.079 -122.976 496.321 -128.193L489.943 -131.019C480.337 -135.287 468.5 -140.649 456.849 -146.387C444.232 -152.592 432.802 -158.933 421.906 -165.772C411.472 -172.293 401.227 -179.504 390.594 -187.738L389.141 -188.867C379.151 -196.659 369.394 -204.762 361.439 -211.472L353.501 -218.184C345.681 -224.781 336.235 -232.65 326.651 -240.274C315.911 -248.82 305.109 -256.896 294.547 -264.279C289.394 -267.881 284.141 -271.446 278.961 -274.936L273.812 -278.399C269.764 -281.12 265.72 -283.839 261.662 -286.602L130.37 -369L95.9215 -348.961L95.9198 -348.962L42.2116 -317.722L42.2176 -317.718L27.0105 -308.874L27.0053 -308.877L3.70334 -295.32Z" fill="url(#paint0_linear_312_171)"/>
<defs>
<linearGradient id="paint0_linear_312_171" x1="3.8608" y1="-22.5648" x2="327.919" y2="328.055" gradientUnits="userSpaceOnUse">
<stop stop-color="#F2A91B" stop-opacity="0.01"/>
<stop offset="0.0790471" stop-color="#1C60AF" stop-opacity="0.146882"/>
<stop offset="0.538482" stop-color="#3B4A9B"/>
<stop offset="1" stop-color="#EA9E2D"/>
</linearGradient>
</defs>
</svg>
