<svg width="41" height="41" viewBox="0 0 41 41" fill="none" xmlns="http://www.w3.org/2000/svg">
<path d="M13.4531 2.5625V1.92188C13.4531 1.41216 13.6556 0.923326 14.016 0.562904C14.3764 0.202483 14.8653 0 15.375 0C15.8847 0 16.3735 0.202483 16.734 0.562904C17.0944 0.923326 17.2969 1.41216 17.2969 1.92188V2.5625C17.2969 3.07221 17.0944 3.56105 16.734 3.92147C16.3735 4.28189 15.8847 4.48438 15.375 4.48438C14.8653 4.48438 14.3764 4.28189 14.016 3.92147C13.6556 3.56105 13.4531 3.07221 13.4531 2.5625ZM2.5625 17.2969C3.07221 17.2969 3.56105 17.0944 3.92147 16.734C4.28189 16.3736 4.48437 15.8847 4.48437 15.375C4.48437 14.8653 4.28189 14.3765 3.92147 14.016C3.56105 13.6556 3.07221 13.4531 2.5625 13.4531H1.92187C1.41216 13.4531 0.923326 13.6556 0.562904 14.016C0.202483 14.3765 0 14.8653 0 15.375C0 15.8847 0.202483 16.3736 0.562904 16.734C0.923326 17.0944 1.41216 17.2969 1.92187 17.2969H2.5625ZM20.532 6.30695C20.7715 6.38679 21.0243 6.41867 21.2761 6.40079C21.5279 6.38291 21.7736 6.3156 21.9994 6.20272C22.2252 6.08984 22.4265 5.9336 22.5918 5.74291C22.7572 5.55222 22.8834 5.33083 22.9632 5.09137L23.6038 3.16949C23.7473 2.69088 23.6988 2.1752 23.4685 1.73179C23.2382 1.28837 22.8442 0.952071 22.3702 0.794191C21.8961 0.636311 21.3792 0.66926 20.929 0.886053C20.4788 1.10285 20.1308 1.48644 19.9587 1.95551L19.318 3.87738C19.1572 4.36056 19.1948 4.8878 19.4224 5.34334C19.65 5.79887 20.0491 6.14544 20.532 6.30695ZM3.87578 19.318L1.95391 19.9587C1.70747 20.0326 1.47837 20.1552 1.2802 20.3192C1.08203 20.4833 0.918817 20.6855 0.800237 20.9138C0.681657 21.1421 0.610124 21.3919 0.589881 21.6484C0.569637 21.9049 0.601093 22.1628 0.682386 22.4069C0.763678 22.651 0.893151 22.8762 1.06313 23.0694C1.23311 23.2625 1.44013 23.4195 1.67193 23.5312C1.90372 23.6428 2.15557 23.7067 2.41254 23.7192C2.66951 23.7317 2.92637 23.6925 3.16789 23.6038L5.08977 22.9632C5.3362 22.8893 5.5653 22.7667 5.76347 22.6027C5.96164 22.4386 6.12485 22.2364 6.24343 22.0081C6.36201 21.7798 6.43355 21.53 6.45379 21.2735C6.47403 21.017 6.44258 20.7591 6.36129 20.515C6.27999 20.2709 6.15052 20.0456 5.98054 19.8525C5.81056 19.6594 5.60354 19.5024 5.37175 19.3907C5.13995 19.2791 4.8881 19.2151 4.63113 19.2027C4.37417 19.1902 4.1173 19.2294 3.87578 19.318ZM35.5755 29.0155C35.8731 29.313 36.1091 29.6661 36.2702 30.0548C36.4312 30.4435 36.5141 30.8602 36.5141 31.2809C36.5141 31.7017 36.4312 32.1183 36.2702 32.507C36.1091 32.8957 35.8731 33.2489 35.5755 33.5463L33.5447 35.5771C33.2473 35.8747 32.8941 36.1107 32.5054 36.2718C32.1167 36.4328 31.7001 36.5157 31.2793 36.5157C30.8586 36.5157 30.4419 36.4328 30.0532 36.2718C29.6645 36.1107 29.3114 35.8747 29.0139 35.5771L21.7252 28.2884L18.9849 34.5938C18.7395 35.1658 18.3312 35.653 17.811 35.9948C17.2907 36.3365 16.6813 36.5177 16.0589 36.5156H15.8987C15.2509 36.4874 14.6273 36.2613 14.1119 35.8679C13.5965 35.4744 13.214 34.9325 13.0159 34.3151L4.64453 8.67406C4.46433 8.11333 4.44222 7.51377 4.58064 6.94129C4.71906 6.36881 5.01263 5.84557 5.4291 5.4291C5.84557 5.01263 6.36881 4.71906 6.94129 4.58064C7.51377 4.44222 8.11333 4.46433 8.67406 4.64453L34.3119 13.0159C34.9253 13.2202 35.4626 13.6055 35.853 14.1209C36.2434 14.6364 36.4687 15.2579 36.4992 15.9038C36.5297 16.5497 36.364 17.1897 36.0239 17.7396C35.6838 18.2895 35.1852 18.7237 34.5937 18.9849L28.2884 21.7268L35.5755 29.0155ZM32.4044 31.2801L24.9043 23.7784C24.5356 23.4092 24.2628 22.9556 24.1093 22.4569C23.9559 21.9583 23.9267 21.4297 24.0241 20.9171C24.1215 20.4046 24.3426 19.9236 24.6682 19.5159C24.9938 19.1083 25.4141 18.7864 25.8925 18.5781L31.4979 16.1421L8.69488 8.69488L16.1405 31.4963L18.5765 25.8909C18.785 25.4126 19.1071 24.9924 19.5149 24.667C19.9227 24.3415 20.4038 24.1206 20.9164 24.0234C21.1138 23.9852 21.3143 23.9659 21.5154 23.9658C22.3643 23.9664 23.1782 24.3039 23.7784 24.9043L31.2801 32.406L32.4044 31.2801Z" fill="#222157"/>
</svg>
