<svg xmlns="http://www.w3.org/2000/svg" width="437" height="549" fill="none"><path fill="url(#a)" fill-rule="evenodd" d="M42.569 12.198C57.138 5.41 73.319 2.043 91.789 2.043c18.864 0 40.119 3.517 64.46 10.491 15.855 4.544 30.274 8.407 43.281 11.85q-4.673-1.087-9.603-2.227c-13.789-3.19-29.419-6.806-46.941-11.277-42.872-10.938-73.7-9.862-98.025 1.206q-1.207.045-2.392.112m-5.468.448C66.346-2.861 103.092-4.77 156.802 10.62c18.745 5.372 35.487 9.793 50.262 13.695l.055.015c86.858 22.934 116.119 30.66 173.068 128.829 35.598 61.362 53.026 96.888 55.788 132.811 2.805 36.494-9.186 72.531-44.246 132.965-35.059 60.434-60.422 88.788-93.581 104.616-26.993 12.885-58.763 16.99-109.211 18.025-16.272 4.511-30.833 7.423-44.299 7.423-3.834 0-7.58-.236-11.25-.738h-.314c-5.699 0-11.054-.402-16.192-1.244-11.033 1.28-20.87 1.977-29.853 1.978-16.067.001-29.407-2.229-42.02-7.346-8.152-3.308-15.944-7.767-23.786-13.808a136 136 0 0 1-10.004-4.29c-33.159-15.828-58.522-44.182-93.582-104.616s-47.051-96.471-44.245-132.965c2.762-35.924 20.189-71.449 55.787-132.811a6898 6898 0 0 0 9.316-16.12l.002-.003c2.591-4.492 5.132-8.898 7.633-13.213C-33.994 58.371-13.98 18.134 37.1 12.646m-86.486 103.463c9.423-29.856 19.213-54.096 32.522-71.286 12.7-16.402 28.563-26.077 49.12-29.446C.78 34.218-22.154 69.468-49.384 116.11m-2.627 8.494C-25.765 79.318-3.707 43.581 24.63 22.845a108 108 0 0 1 13.024-8.196q1.276-.136 2.575-.243C1.37 34.88-20.699 82.33-51.06 147.612l-.003.006a7348 7348 0 0 1-7.711 16.544c-4.306 9.201-8.285 17.833-11.942 25.977q.437-1.556.883-3.133a8407 8407 0 0 0 4.492-15.994l.004-.014.001-.004.325-1.158.001-.006c4.513-16.112 8.748-31.233 12.999-45.228m-4.331 7.489-3.424 5.934-.004.007a7111 7111 0 0 1-9.317 16.122c-35.444 61.097-52.794 96.427-55.526 131.97-2.771 36.046 9.15 71.771 43.984 131.816s59.961 88.181 92.714 103.816q1.89.903 3.816 1.748c-11.985-10.298-24.298-24.472-38.38-44.028-10.205-13.342-20.96-29.572-32.926-49.41-35.382-58.661-48.292-94.064-47.633-130.626.503-27.917 9.122-56.021 26.716-96.609a2394 2394 0 0 1 4.563-16.364q2.473-8.772 4.82-17.165l.003-.009c3.672-13.11 7.15-25.527 10.594-37.202m84.463 398.19c5.84 3.978 11.673 7.102 17.645 9.525 17.962 7.287 37.55 8.6 64.701 5.902a79 79 0 0 1-2.565-.674c-11.971-.379-22.491-1.675-32.202-4.115-7.942-1.061-15.267-2.531-22.175-4.488-9.179-1.581-17.56-3.595-25.404-6.15M39 531.344c-5.782-1.462-11.245-3.163-16.48-5.14-6.479-5.019-13.024-11.144-19.836-18.584 10.822 9.958 21.658 17.112 33.411 22.451q1.443.655 2.904 1.273m20.139 3.974a241 241 0 0 1-5.152-.826c-5.964-1.694-11.607-3.754-17.062-6.233-20.144-9.151-37.594-23.765-57.043-48.982-6.398-8.806-13.135-18.7-20.33-29.806-35.483-54.781-49.828-88.55-52.927-124.592-2.788-32.423 3.805-66.263 18.947-121.395 5.067-11.685 10.883-24.414 17.466-38.481 2.514-5.37 4.962-10.634 7.358-15.786l.355-.762.002-.005C-24.596 95.449-5.125 53.586 22.231 29.389c7.198-6.368 14.926-11.46 23.325-15.294q1.01-.036 2.035-.054c-42.555 18.454-61.44 69.905-88.5 143.622l-.003.011-.01.029a8836 8836 0 0 1-6.207 16.868c-23.765 64.295-34.847 101.223-33.55 137.185 1.317 36.529 15.038 71.257 50.624 128.132 35.541 56.805 59.736 82.697 89.194 95.43m32.424 3.189c-8.582-.504-16.537-1.176-23.974-2.059a104 104 0 0 1-7.501-2.89c-28.737-12.369-53.535-38.927-88.445-94.721-35.381-56.549-49.02-91.01-50.323-127.152-1.285-35.631 9.756-72.381 33.428-136.428a7542 7542 0 0 0 5.69-15.463l.003-.007.001-.002.525-1.429c19.862-54.112 35.55-96.851 59.408-122.323 9.528-10.173 20.333-17.467 32.87-21.973q6.002.148 12.456.822C9.188 24.615-2.663 83.2-21.496 176.284l-.003.013-.046.229-.001.006-.004.017a8690 8690 0 0 1-3.477 17.128c-13.513 66.122-19.115 103.862-14.4 139.493 4.727 35.727 20.29 70.143 55.506 122.756 31.385 46.886 52.956 70.741 75.484 82.581m15.539.716q-5.366-.187-10.437-.439c-23.548-10.856-46.233-35.129-78.922-83.963-35.486-53.013-50.443-86.055-55.187-121.912-3.728-28.165-2.526-56.124 14.377-138.836 1.21-5.922 2.383-11.717 3.53-17.383C-8.278 121.031.615 77.067 18.127 49.533 31.136 29.083 48.876 18.16 73.76 15.898q3.442.507 7.012 1.147C9.85 17.758 1.714 79.321-12.237 184.88v.001l-.002.013-.046.353-.003.019-.002.013v.002c-.739 5.587-1.494 11.299-2.276 17.133-8.937 66.673-12.098 104.623-5.896 139.967 6.221 35.442 22.326 69.059 57.443 119.904 29.544 42.776 49.982 65.484 70.121 76.939m44.712.661c-14.682-.016-27.997-.157-40.167-.515-20.923-10.649-42.32-33.767-73.018-78.212-35.393-51.244-50.874-83.529-57.12-119.119-4.907-27.957-5.274-55.942 5.907-139.361.786-5.86 1.545-11.596 2.286-17.206l.042-.318C-2.838 129.022 3.022 84.687 17.667 56.344c13.148-25.446 33.385-37.302 64.556-37.302 4.168 0 8.532.211 13.1.631 10.089 1.758 19.345 3.238 27.801 4.59h.001c69.489 11.109 92.898 14.851 150.433 103.675 36.098 55.73 54.556 88.378 61.814 123.186 7.364 35.312 3.383 72.234-14.688 136.228-17.829 63.135-33.573 95.333-56.156 114.842-22.522 19.455-52.374 27.329-106.771 36.68q-3.02.52-5.943 1.01m55.321-.846c39.849-1.65 66.852-6.16 90.148-17.281 32.752-15.635 57.88-43.771 92.714-103.816s46.755-95.77 43.983-131.816c-2.732-35.542-20.082-70.873-55.525-131.97-45.411-78.281-73.095-98.632-126.939-115.414 38.933 14.319 64.301 37.585 104.239 103.801 35.927 59.567 53.805 94.203 58.23 129.932 4.495 36.293-4.626 72.846-33.653 134.866-29.033 62.036-50.849 91.571-80.495 108.975-22.949 13.472-50.276 19.221-92.702 22.723m-38.284 2.796c-12.424 1.251-23.639 2.197-33.881 2.754a662 662 0 0 1-6.158.893 69 69 0 0 0 4.408.788c11.183-.011 23.729-1.593 38.595-4.456q-1.472.012-2.964.021M89.819 5.245c-14.607 0-27.588 2.237-39.292 6.758q1.068.007 2.151.03c19.917-7.108 44.836-7.508 77.622-.232 16.311 3.62 30.842 6.478 43.665 9l.053.01.002.001c2.946.58 5.816 1.144 8.614 1.7-12.068-2.802-25.438-5.951-40.145-9.703-19.685-5.023-37.103-7.564-52.67-7.564M-101.04 299.478c.44-24.446 7.205-49.117 20.884-82.445-12.494 47.242-17.778 78.17-15.212 108.014 1.28 14.897 4.596 29.665 10.547 45.725-11.903-27.149-16.62-49.026-16.219-71.294m269.865 240.04q3.251-.17 6.406-.343 3.226-.34 6.559-.705 6.105-.665 11.846-1.334c3.481-.805 7.075-1.657 10.79-2.554q2.477-.598 4.88-1.188a969 969 0 0 0 4.905-1.552c44.792-14.287 69.095-24.849 86.06-46.238 17.038-21.48 27.043-54.964 35.683-119.42 8.759-65.346 8.385-102.457-1.38-136.932-9.622-33.974-28.45-64.761-64.453-116.888-57.347-83.029-77.4-84.598-136.926-89.258h-.001l-.114-.009c-2.957-.232-6.027-.472-9.214-.732 69.82 11.162 93.472 15.106 151.373 104.495 36.236 55.94 54.769 88.742 62.092 123.859 7.436 35.66 3.445 72.836-14.722 137.171-18.177 64.374-33.564 95.76-56.77 115.807-21.994 18.999-50.651 27.089-101.485 36.05q2.212-.11 4.471-.229m129.995-24.917c-20.817 12.221-45.4 18.014-81.959 21.568 38.888-5.535 63.739-12.59 84.155-27.172 26.33-18.808 44.824-49.349 68.236-112.691 23.403-63.314 29.859-100.243 23.824-136.255-5.944-35.459-24.188-69.186-60.326-126.943-40.076-64.052-64.589-86.128-100.964-98.583 50.069 14.163 76.546 33.26 122.254 109.041 35.78 59.321 53.578 93.779 57.959 129.152 4.445 35.88-4.63 72.139-33.479 133.783-28.843 61.626-50.444 90.925-79.7 108.1M58.75 12.293c4.732.296 9.684.819 14.872 1.572 10.107-.883 21.52-.391 34.476 1.542 14.104 2.104 26.634 3.613 37.688 4.945 65.076 7.84 86.999 10.482 145.025 97.172 36.23 54.125 54.981 85.991 63.553 120.698 8.703 35.242 6.992 72.55-6.313 137.654-13.314 65.15-25.8 97.229-46.067 118.362-20.688 21.572-50.678 30.89-90.431 40.658 41.468-5.601 67.331-12.543 88.297-27.516 25.633-18.31 44.565-49.644 67.525-111.762 23.269-62.953 29.7-99.606 23.728-135.239-5.888-35.128-24.055-68.689-60.05-126.218-57.387-91.718-82.595-96.677-157.422-111.396h-.001c-12.847-2.527-27.409-5.392-43.766-9.021-28.612-6.351-51.828-6.934-71.114-1.451m36.834 5.405c-4.016-.7-8.163-1.444-12.443-2.242 7.597-.049 15.799.597 24.66 1.918 11.709 1.747 22.327 3.085 31.918 4.25q-3.109-.248-6.369-.502l-.019-.002c-10.22-.8-21.803-1.706-34.863-3.131q-1.457-.159-2.884-.291m146.638 506.808c25.551-9.367 45.464-19.822 59.62-37.669 17.506-22.072 27.29-54.701 36.094-120.392 8.799-65.64 8.41-102.97-1.437-137.733-4.847-17.114-12.323-34.244-23.53-53.911-10.572-18.554-24.116-38.829-41.2-63.564-39.854-57.704-61.888-76.432-91.409-84.04 39.947 7.441 63.031 23.072 108.787 91.429 36.098 53.929 54.774 85.652 63.275 120.072 8.626 34.924 6.91 71.996-6.33 136.782-13.062 63.909-25.834 96.821-45.555 117.383-13.941 14.537-31.58 23.436-58.315 31.643" clip-rule="evenodd"/><defs><linearGradient id="a" x1="-130.766" x2="156.022" y1="298.77" y2="576.532" gradientUnits="userSpaceOnUse"><stop stop-color="#3C3CF0" stop-opacity=".01"/><stop offset="1" stop-color="#635034"/></linearGradient></defs></svg>